<svg xmlns="http://www.w3.org/2000/svg" xmlns:xlink="http://www.w3.org/1999/xlink" version="1.1" x="0px" y="0px" viewBox="0 0 24 30" style="enable-background:new 0 0 24 24;" xml:space="preserve"><g><g><path d="M19,20H5c-0.6,0-1-0.4-1-1V5c0-0.6,0.4-1,1-1h14c0.6,0,1,0.4,1,1v14C20,19.6,19.6,20,19,20z M6,18h12V6H6V18z"/></g><g><path d="M15,11c-0.3,0-0.5-0.1-0.7-0.3C14.1,10.5,14,10.3,14,10c0-0.3,0.1-0.5,0.3-0.7c0.4-0.4,1-0.4,1.4,0C15.9,9.5,16,9.7,16,10    c0,0.3-0.1,0.5-0.3,0.7C15.5,10.9,15.3,11,15,11z"/></g><g><path d="M9,11c-0.3,0-0.5-0.1-0.7-0.3C8.1,10.5,8,10.3,8,10c0-0.3,0.1-0.5,0.3-0.7c0.4-0.4,1-0.4,1.4,0C9.9,9.5,10,9.7,10,10    c0,0.3-0.1,0.5-0.3,0.7C9.5,10.9,9.3,11,9,11z"/></g><g><path d="M14,15h-4c-0.6,0-1-0.4-1-1s0.4-1,1-1h4c0.6,0,1,0.4,1,1S14.6,15,14,15z"/></g><g><path d="M14,6c-0.3,0-0.5-0.1-0.7-0.3c-0.4-0.4-0.4-1,0-1.4l4-4c0.4-0.4,1-0.4,1.4,0s0.4,1,0,1.4l-4,4C14.5,5.9,14.3,6,14,6z"/></g><g><path d="M10,6C9.7,6,9.5,5.9,9.3,5.7l-4-4c-0.4-0.4-0.4-1,0-1.4s1-0.4,1.4,0l4,4c0.4,0.4,0.4,1,0,1.4C10.5,5.9,10.3,6,10,6z"/></g><g><path d="M8,24c-0.6,0-1-0.4-1-1v-4c0-0.6,0.4-1,1-1s1,0.4,1,1v4C9,23.6,8.6,24,8,24z"/></g><g><path d="M16,24c-0.6,0-1-0.4-1-1v-4c0-0.6,0.4-1,1-1s1,0.4,1,1v4C17,23.6,16.6,24,16,24z"/></g><g><path d="M10,24H6c-0.6,0-1-0.4-1-1s0.4-1,1-1h4c0.6,0,1,0.4,1,1S10.6,24,10,24z"/></g><g><path d="M18,24h-4c-0.6,0-1-0.4-1-1s0.4-1,1-1h4c0.6,0,1,0.4,1,1S18.6,24,18,24z"/></g><g><path d="M23,16h-4c-0.6,0-1-0.4-1-1V9c0-0.6,0.4-1,1-1h4c0.6,0,1,0.4,1,1v6C24,15.6,23.6,16,23,16z M20,14h2v-4h-2V14z"/></g><g><path d="M5,16H1c-0.6,0-1-0.4-1-1V9c0-0.6,0.4-1,1-1h4c0.6,0,1,0.4,1,1v6C6,15.6,5.6,16,5,16z M2,14h2v-4H2V14z"/></g></g><text x="0" y="39" fill="#000000" font-size="5px" font-weight="bold" font-family="'Helvetica Neue', Helvetica, Arial-Unicode, Arial, Sans-serif">Created by Creative Stall</text><text x="0" y="44" fill="#000000" font-size="5px" font-weight="bold" font-family="'Helvetica Neue', Helvetica, Arial-Unicode, Arial, Sans-serif">from the Noun Project</text></svg>