<?xml version="1.0" encoding="utf-8"?>
<!-- Generator: Adobe Illustrator 19.0.0, SVG Export Plug-In . SVG Version: 6.00 Build 0)  -->
<svg version="1.1" id="Layer_1" xmlns="http://www.w3.org/2000/svg" xmlns:xlink="http://www.w3.org/1999/xlink" x="0px" y="0px"
	 viewBox="0 0 58 72" style="enable-background:new 0 0 58 72;" xml:space="preserve">
<style type="text/css">
	.st0{fill:none;}
	.st1{fill:#FFFFFF;}
</style>
<g>
	<path class="st0" d="M48.3,64.1H6.2V6.9h30.9l14.7,13.8v40.2C51.8,62.7,50.2,64.1,48.3,64.1z"/>
	<path d="M48.3,65.5H6.2c-0.7,0-1.3-0.5-1.3-1.3V6.8c0-0.7,0.6-1.3,1.3-1.3h30.9c0.3,0,0.7,0.1,0.9,0.3l14.6,13.8
		c0.3,0.3,0.5,0.6,0.5,1v40.2C53.1,63.5,50.9,65.5,48.3,65.5z M7.6,62.8h40.7c1.1,0,2.1-0.8,2.1-1.9V21.2l-13.8-13h-29V62.8z"/>
	<path class="st1" d="M49.8,21.3h-10c-1.9,0-3.5-1.5-3.5-3.3v-10c0-0.9,1.2-1.4,1.8-0.7l12.5,12.4C51.1,20.2,50.7,21.3,49.8,21.3z"
		/>
	<path d="M49.8,22.6h-10c-2.6,0-4.9-2.1-4.9-4.7v-10c0-1,0.6-1.8,1.5-2.2c0.9-0.4,1.9-0.2,2.6,0.5l12.4,12.4
		c0.7,0.7,0.9,1.7,0.5,2.6C51.6,22.1,50.7,22.6,49.8,22.6z M37.6,8.7v9.2c0,1.1,1,2,2.2,2H49L37.6,8.7z"/>
	<path d="M21.3,27.2H12c-0.6,0-1.1-0.5-1.1-1.1s0.5-1.1,1.1-1.1h9.3c0.6,0,1.1,0.5,1.1,1.1S21.9,27.2,21.3,27.2z"/>
	<path d="M28.3,27.2h-2.5c-0.6,0-1.1-0.5-1.1-1.1s0.5-1.1,1.1-1.1h2.5c0.6,0,1.1,0.5,1.1,1.1S28.9,27.2,28.3,27.2z"/>
	<path d="M21.3,33H12c-0.6,0-1.1-0.5-1.1-1.1s0.5-1.1,1.1-1.1h9.3c0.6,0,1.1,0.5,1.1,1.1S21.9,33,21.3,33z"/>
	<path d="M37.9,33H25.8c-0.6,0-1.1-0.5-1.1-1.1s0.5-1.1,1.1-1.1h12.1c0.6,0,1.1,0.5,1.1,1.1S38.5,33,37.9,33z"/>
	<path d="M16.7,39.8H12c-0.6,0-1.1-0.5-1.1-1.1s0.5-1.1,1.1-1.1h4.6c0.6,0,1.1,0.5,1.1,1.1S17.3,39.8,16.7,39.8z"/>
	<path d="M37.9,39.8H20.6c-0.6,0-1.1-0.5-1.1-1.1s0.5-1.1,1.1-1.1h17.3c0.6,0,1.1,0.5,1.1,1.1S38.5,39.8,37.9,39.8z"/>
	<path d="M18.5,56.9H12c-0.6,0-1.1-0.5-1.1-1.1s0.5-1.1,1.1-1.1h6.5c0.6,0,1.1,0.5,1.1,1.1S19.1,56.9,18.5,56.9z"/>
	<path d="M37.9,56.9h-15c-0.6,0-1.1-0.5-1.1-1.1s0.5-1.1,1.1-1.1h15c0.6,0,1.1,0.5,1.1,1.1S38.5,56.9,37.9,56.9z"/>
	<path d="M20.6,46.6H12c-0.6,0-1.1-0.5-1.1-1.1s0.5-1.1,1.1-1.1h8.5c0.6,0,1.1,0.5,1.1,1.1S21.2,46.6,20.6,46.6z"/>
	<path d="M37.9,46.6H24.9c-0.6,0-1.1-0.5-1.1-1.1s0.5-1.1,1.1-1.1h12.9c0.6,0,1.1,0.5,1.1,1.1S38.5,46.6,37.9,46.6z"/>
	<path d="M24.9,52H12c-0.6,0-1.1-0.5-1.1-1.1s0.5-1.1,1.1-1.1h12.9c0.6,0,1.1,0.5,1.1,1.1S25.6,52,24.9,52z"/>
	<path d="M32.3,52h-4c-0.6,0-1.1-0.5-1.1-1.1s0.5-1.1,1.1-1.1h4c0.6,0,1.1,0.5,1.1,1.1S32.9,52,32.3,52z"/>
	<path d="M37.9,52h-2.1c-0.6,0-1.1-0.5-1.1-1.1s0.5-1.1,1.1-1.1h2.1c0.6,0,1.1,0.5,1.1,1.1S38.5,52,37.9,52z"/>
</g>
</svg>
