<?xml version="1.0" encoding="utf-8"?>
<!-- Generator: Adobe Illustrator 19.0.0, SVG Export Plug-In . SVG Version: 6.00 Build 0)  -->
<svg version="1.1" id="Layer_1" xmlns="http://www.w3.org/2000/svg" xmlns:xlink="http://www.w3.org/1999/xlink" x="0px" y="0px"
	 viewBox="0 0 227 36" style="enable-background:new 0 0 227 36;" xml:space="preserve">
<style type="text/css">
	.st0{fill:#FFFFFF;}
	.st1{fill:#22193F;}
	.st2{fill:#F8F9FB;}
	.st3{fill:#3D4143;}
</style>
<g>
	<g>
		<path class="st0" d="M92,11.6v15.2h-5.7v-2.3c-1,1.6-2.6,2.5-4.7,2.5c-3.2,0-5.4-2.3-5.4-5.8v-9.7h5.7v8.1c0,1.5,0.8,2.4,2,2.4
			c1.5,0,2.4-1.2,2.4-3v-7.5H92z"/>
		<path class="st0" d="M100.6,15.2c-0.7,0-1.1,0.3-1.1,0.7c0,1.7,8,1,8,6.2c0,3.1-2.7,5-6.7,5c-2.7,0-5.2-0.7-7.2-2.2l1.7-3.6
			c1.9,1.2,3.8,1.9,5.5,1.9c0.8,0,1.3-0.2,1.3-0.7c0-1.7-7.8-0.9-7.8-6.1c0-3.2,2.7-5.1,6.5-5.1c2.3,0,4.6,0.6,6.7,1.8l-1.9,3.6
			C103.5,15.7,101.8,15.2,100.6,15.2z"/>
		<path class="st0" d="M124.1,20.6h-10.2c0.4,1.5,1.5,2.3,3,2.3c1.2,0,2.4-0.5,3.4-1.5l2.9,2.9c-1.6,1.8-3.9,2.7-6.8,2.7
			c-5.1,0-8.2-3.1-8.2-7.8c0-4.8,3.2-7.9,8-7.9C121.5,11.4,124.4,15,124.1,20.6z M116.2,15.2c-1.3,0-2.2,1-2.5,2.6h4.8
			C118.6,16.3,117.6,15.2,116.2,15.2z"/>
		<path class="st0" d="M136.3,11.4v5.1c-2.9-0.4-4.8,0.9-4.8,3.1v7.3h-5.7V11.6h5.7V14C132.6,12.3,134.2,11.4,136.3,11.4z"/>
	</g>
	<g>
		<path class="st1" d="M151.3,7.2v2.1h-6.4v17.5h-2.2V9.3h-6.4V7.2H151.3z"/>
		<path class="st1" d="M164.5,21.8h-10.7l-2.2,5h-2.4l8.8-19.6h2.3l8.8,19.6h-2.4L164.5,21.8z M163.6,19.8l-4.5-10.1l-4.4,10.1
			H163.6z"/>
		<path class="st1" d="M186.3,12.1c0,2.3-1.4,3.9-3.6,4.4c2.8,0.4,4.5,2.3,4.5,5c0,3.3-2.6,5.3-7.1,5.3h-8.4V7.2h8.3
			C183.9,7.2,186.3,9.1,186.3,12.1z M184,12.5c0-2-1.5-3.2-4.2-3.2H174v6.4h5.9C182.5,15.7,184,14.5,184,12.5z M184.9,21.2
			c0-2.2-1.8-3.5-5-3.4H174v7h5.9C183.1,24.8,184.9,23.5,184.9,21.2z"/>
		<path class="st1" d="M193.5,7.2v17.5h8.6v2.1h-10.8V7.2H193.5z"/>
		<path class="st1" d="M218.5,7.2v2.1h-11.1v6.6h9.9v2h-9.9v6.8h11.4v2.1h-13.7V7.2H218.5z"/>
	</g>
</g>
<g>
	<polygon class="st2" points="63.1,30.9 12.5,30.4 12,8.1 63.6,7.8 	"/>
	<g>
		<path class="st3" d="M59.4,7.6c-0.2,0-0.1,0.1-0.1,0.1c-0.2,0-0.1,0-0.2-0.1c-0.1,0-0.3,0.1-0.4,0.1c0,0,0,0,0,0
			c-0.2,0-0.5,0-0.7,0.1c0,0,0,0,0,0c0,0,0,0.1,0,0.1c-0.1,0-0.2,0-0.2,0c0.1,0,0.1,0,0.1,0l-0.1,0c-0.1,0,0.1,0,0.1-0.1
			c-0.2,0-0.4,0.1-0.5,0.1c0,0,0.3,0,0.1-0.1l0.2,0c-0.2-0.1,0.1,0,0-0.1c-0.3,0-0.3,0-0.6,0c-0.1,0,0,0,0,0.1
			c-0.4,0.1-0.3-0.1-0.6,0c-0.1,0-0.1,0.1-0.3,0.1l0.1-0.1c-0.3,0-0.2,0.1-0.5,0c0.1,0,0.2,0,0.2,0c-0.2,0-0.1,0-0.3,0l0,0
			c-0.3,0-0.6,0.1-1,0.1c0,0,0.1,0,0,0c-0.4,0-0.9,0-1.3,0l-0.1,0c0,0-0.1,0,0,0c-0.2,0,0,0-0.1,0c-0.1,0-0.1,0-0.1,0
			c-0.3,0-0.8,0.1-1.1,0.1l0.1,0c-0.2,0-0.3,0.1-0.5,0.1l0,0c-0.5,0-1.1,0-1.4,0c-0.1,0.1-0.5,0-0.5,0.1c-0.3,0-0.2-0.1-0.6-0.1
			c-0.1,0-0.2,0.1-0.3,0.1v0l-0.2,0.1l-0.1-0.1l-0.1,0c0,0,0.1,0,0.1,0c-0.2,0-0.5,0-0.5,0l-0.5,0c0,0,0.1,0,0.1,0c-0.2,0,0,0-0.3,0
			c0,0,0,0,0,0c-0.1,0-0.4,0-0.5,0l0,0c-0.3,0-0.7,0-1.1,0c0.1,0,0.1,0.1,0,0.1l0,0c-0.1,0,0.1,0,0,0.1c-0.1,0-0.1,0,0-0.1l-0.2,0
			c0,0,0,0,0.1,0c-0.1,0-0.3,0-0.4,0l0,0c-0.4,0-0.5,0-0.9,0c0,0-0.1,0-0.2,0.1c-0.2,0-0.5,0-0.8,0c-0.2,0,0,0-0.1,0.1
			c0,0-0.3,0-0.1-0.1c-0.3,0-0.4,0-0.8,0c0,0,0.1,0,0.1,0C42.1,8,42,8,42,8l0,0c-0.5,0.1-1.1-0.1-1.4,0l0,0l-0.4,0
			c-0.2,0,0.1,0,0-0.1c-0.4,0.1-0.7,0-1,0c-0.3-0.1-0.9,0-1.3-0.1l0,0c-0.1,0-0.1,0-0.2,0c0,0,0.1,0,0,0C37,8,36.2,8,35.4,8
			c-0.3,0-0.2,0.1-0.5,0.1l0.1,0c-0.6,0.1-1.2,0-1.8,0c0,0,0,0,0.1,0c-0.1,0-0.5,0-0.5,0c-0.1,0,0,0-0.1,0c-0.1,0-0.3,0-0.4,0
			c0,0,0,0,0.1,0c-0.1,0-0.4,0-0.3,0c-0.2,0-0.4,0-0.6,0c-0.1,0-0.4,0-0.4,0c0-0.1-0.4,0-0.5,0c0,0-0.1,0-0.1,0c-0.2,0-0.3,0-0.3,0
			C30,8,29.7,8.1,29.5,8C29,8,28.6,8,28.2,8.1c0-0.1,0.5,0,0.5-0.1c-0.4,0-0.6,0.1-1,0.1c-0.1,0,0.1,0,0.1,0c-0.4,0-0.8,0-1.1,0
			c0,0,0,0,0.1,0c-0.1,0-0.2,0-0.2,0l0.1,0c0.1,0-0.3,0.1-0.3,0.1c0.1-0.1-0.4,0-0.2-0.1c0,0-0.1,0-0.1,0c-0.1,0-0.1,0,0,0
			c-0.2,0-0.2,0-0.4,0c0,0,0,0,0.1,0c-0.1,0-0.2,0.1-0.4,0c0,0,0,0,0,0c-0.3,0-0.6,0.1-0.9,0c0.1-0.1-0.1,0-0.1-0.1l-0.2,0l0.1,0
			c-0.2,0-0.3,0-0.5,0l0.1,0l-0.3,0l0.2,0c-0.2,0,0,0.1-0.2,0.1c0,0-0.2,0-0.3,0l0,0c-0.1,0-0.2,0-0.3,0c0,0,0-0.1,0-0.1
			c-0.1,0-0.4,0-0.5,0.1c0,0,0,0,0,0l-0.1,0c-0.1,0-0.1,0-0.1,0c-0.2,0,0.1,0.1-0.2,0c0,0,0,0,0.1,0c-0.3,0-0.5,0-0.8,0
			c-0.1-0.1,0.2,0,0.1-0.1c-0.4,0-0.8,0.1-1.1,0.1l0.1,0c0,0.1-0.3,0-0.5,0c0.1,0,0.1,0,0.1,0c-0.2,0-0.5,0-0.9,0l0,0
			c-0.1,0-0.4,0-0.5,0c0,0-0.1,0-0.1,0c-0.5-0.1-0.9,0.1-1.4,0c0.1,0,0.1,0,0.1,0l-0.4,0c0,0,0.1,0,0.1,0c0,0-0.2,0-0.2,0
			c0.2,0,0-0.1-0.1-0.1c0,0,0,0,0,0c-0.2-0.1,0,0.1-0.3,0l0,0c-0.1,0-0.2,0-0.3,0c-0.1,0,0.1,0,0.1-0.1c-0.2,0-0.3,0.1-0.4,0
			c0.1,0,0.1,0,0.2,0c-0.1,0-0.2,0-0.3,0h0l-0.3,0l0.1,0c-0.2,0.1-0.4,0-0.6,0.1c0.2-0.1,0,0,0.1-0.1c-0.1,0-0.2,0-0.1,0
			c-0.1,0-0.2,0-0.4,0c0,0-0.1,0-0.1,0c-0.2,0,0,0,0,0c-0.2,0-0.6-0.1-0.9,0c-0.3,0-0.4,0.1-0.6,0.1c-0.1,0,0.1-0.1,0.1-0.1
			c-0.1,0-0.3,0-0.4,0c0,0,0,0,0,0c-0.1,0-0.1,0.1-0.2,0c0,0,0.1,0,0.1-0.1c-0.1,0-0.3,0-0.4,0.1c0,0,0.1,0,0.1-0.1
			c-0.2,0-0.4,0-0.4,0.1l0.1,0c-0.1,0,0,0,0,0c0.1,0,0.2,0,0.2,0l-0.1,0c0.1,0.1,0.4,0,0.6,0l-0.1,0.1l0.2,0c0,0,0.1,0,0,0.1
			c0.1,0,0.1,0,0.2,0c0,0,0,0,0,0l0.1,0c0,0,0,0-0.1,0c0.3,0,0.4,0,0.5,0l0,0c0.3,0,0,0,0.3-0.1l0.2,0.1l0,0c0,0,0.1,0,0.1,0
			c0.1,0,0,0,0,0c0.2,0,0.5,0,0.5,0.1c0.1,0-0.2,0,0-0.1c0.1,0.1,0.2,0,0.4,0c-0.1,0-0.2,0,0,0.1c0.1-0.1,0.3,0,0.4,0
			c0-0.1,0.3,0,0.5,0c0,0,0.4,0,0.6,0l0,0c0-0.1,0.3,0,0.4-0.1c0,0,0,0-0.1,0.1h0.1c0,0,0.1,0,0.2,0l0,0c0.2,0,0.4,0,0.6,0
			c0,0-0.2-0.1,0.1-0.1c0,0,0,0.1,0,0.1c0,0,0.1,0,0.1,0l-0.1,0c0.1,0,0.1,0,0.1,0c0,0,0.1,0,0.1,0c0,0-0.1,0-0.1,0
			c0.1,0,0.2,0,0.3,0c0,0,0,0,0.1,0c0.2,0,0.1,0,0.2,0.1c0,0,0.2,0,0.2,0c0.1,0,0.1,0,0.1,0c0.1,0,0.5,0,0.4-0.1l0,0l0,0l0,0l0,0
			c0.3,0,0.7,0,1,0v0c0.2,0,0.4,0,0.6,0c0.1,0,0.1,0,0.1,0c0.1,0,0.2,0,0.4,0c-0.1,0,0.1,0-0.1,0c0.2,0,0.2,0,0.4,0
			c-0.1,0,0.1,0,0.2,0l-0.1,0c0.1,0,0.2,0,0.3,0l0,0c0.4,0.1,0.7-0.1,1,0c0.1,0-0.2,0-0.1-0.1c0.2,0,0.4,0.1,0.4,0.1
			c0.2,0,0.2-0.1,0.5,0c0,0-0.1-0.1,0.1-0.1c0.2,0,0.2,0.1,0.1,0.1c0,0-0.1,0-0.1,0c-0.1,0-0.1,0-0.1,0l0,0c0.1,0,0.3,0,0.3,0
			c0.1,0,0.1,0,0,0c0.2,0,0.4,0,0.6,0c0,0-0.1,0,0,0c0.3,0,0.2,0,0.4,0c0.1,0-0.1,0.1,0.2,0c0.1,0,0,0,0,0.1c0.2,0,0.4,0,0.5,0
			l-0.1,0c0.1,0,0.1,0,0.2,0l-0.1,0c0.1,0,0.1,0,0.1,0c0.1,0-0.1-0.1,0.1-0.1c0.1,0,0.3,0,0.3,0c-0.3,0,0,0-0.2,0.1c0,0,0.1,0,0.2,0
			c0,0,0,0,0,0c0.3,0,0.1-0.1,0.4-0.1c0,0,0.1,0.1,0.1,0c-0.1,0,0,0,0-0.1c0.2,0,0.2,0,0.3,0l-0.1,0c0,0,0.1,0,0.2,0
			c0,0-0.1,0-0.1,0c0.1,0,0.3,0,0.5,0c0.1,0,0,0,0.1,0.1c0.2,0,0.2,0,0.5,0c-0.1,0-0.1,0,0.1-0.1l-0.4,0l0.2,0c-0.1,0-0.2,0-0.3,0
			c0.1,0,0.1,0,0,0c0.2,0.1,0.3,0,0.5,0v0.1c0.3,0,0.5,0,0.8,0l-0.1,0c0,0,0.2,0,0.3,0c0,0,0.1,0,0.1,0.1c0,0,0.3,0,0.3-0.1l0.2,0
			c0.3,0,0.3-0.1,0.6-0.1c-0.1,0,0,0.1-0.1,0.1c0.1,0,0.2,0,0.2,0c0.1,0,0.3,0,0.3,0c0,0,0,0,0.1,0c0,0,0,0,0,0c0,0,0.2,0,0.1-0.1
			c0.3,0.1,0.8,0,1,0.1c0.2,0,0.4,0,0.6,0c0,0,0,0,0,0c0.3,0,0.2-0.1,0.4-0.1c0.1,0-0.1,0,0,0c0,0.1,0.3,0,0.5,0l0,0
			c0.1,0,0.3,0,0.6,0c0,0,0,0,0,0c0.2-0.1,0.5-0.1,0.7-0.1c-0.1,0-0.1,0,0,0.1c0.1,0,0-0.1,0.2-0.1c0.1,0,0.2,0,0.2,0.1l-0.2,0
			c0.1,0.1,0.3,0,0.4,0l0,0c0.3,0,0.3-0.1,0.6-0.1l0,0c0.2-0.1,0.1,0,0.3,0l0,0.1c0.1,0,0.4-0.1,0.6-0.1c-0.1,0-0.4,0.1-0.5,0.1
			c0.1,0,0.4,0,0.4,0c0,0-0.1,0-0.1,0c0.1,0,0.3-0.1,0.5-0.1c0,0.1,0.6,0,0.8,0.1c0.4,0,0.8,0,1.3,0c-0.2-0.1,0.1,0,0.1-0.1
			c0.1,0,0.2,0,0.2,0l0.3,0.1c0.1,0-0.1,0-0.1,0c0.2,0,0.1,0,0.3,0.1c0,0,0.1,0,0.2,0l-0.2,0c0.3,0,0.3,0.1,0.6,0l-0.1,0
			c0.2,0,0.6,0,0.8-0.1c0,0,0.1,0,0,0c0.4,0,0.9-0.1,1.2,0l0,0c0.1,0,0.1,0,0.2,0c0,0,0,0,0,0c0,0,0.2,0,0.3,0l-0.1,0
			c0.4,0,0.6-0.1,1-0.1c0,0.1,0.3,0.1,0.5,0.1l0,0c0.5,0,0.8-0.1,1.2-0.1c0.3,0.1,0.9,0,1.3,0c-0.1,0,0-0.1,0.1-0.1
			c0.1,0,0.3,0,0.3,0l0,0c0.1,0.1,0.3,0,0.4,0l0-0.1c0.4,0.1,1.1-0.1,1.3,0c0.1,0,0.2,0,0.3,0l0,0c0.3,0,0.4,0,0.8,0l-0.1,0
			c0.2,0,0.2-0.1,0.4-0.1l0,0.1c0.3,0,0.7,0,1,0c0,0,0,0-0.1,0c0.2,0,0.6,0,0.6-0.1c0,0.1,0.4,0,0.5,0l0,0C52.5,8,52.5,8,52.7,8
			c0,0,0,0,0,0c0.2,0,0.1,0,0.4,0l-0.1,0c0.2,0,0.2,0,0.2,0c0.1,0,0.3,0,0.4,0c0,0,0.1-0.1,0.2,0c0,0,0,0,0,0C54,8,54.2,8,54.4,8
			c0,0,0,0,0,0C54.2,8,54,8,54,8c0,0,0.2,0,0,0.1c0.1,0,0.4-0.1,0.6-0.1c0,0,0,0,0,0l0,0c0,0,0.1,0,0.1,0c0.1,0,0.1,0,0.2,0
			c0,0,0.2,0,0.3,0c0,0,0.1,0,0-0.1c0,0,0,0-0.1,0c0,0,0,0,0,0c0,0,0,0,0,0c-0.1,0-0.1,0-0.2,0C55,8,55,8,55.1,8
			c0,0,0.1-0.1,0.1-0.1C55.4,8,55.7,8,55.7,8c0.3,0,0.7,0,0.9-0.1c0.1,0,0.1,0,0.1,0c0,0-0.1,0-0.1,0c0.2,0,0.5,0,0.5-0.1
			c0.2,0-0.1,0,0.2,0l0,0c0.6,0.1,0.9-0.2,1.5-0.1c0,0-0.1,0-0.1,0c0.7,0,1.5-0.1,2.2,0c0.2,0,0.2,0,0.3,0l0.1,0l0.2-0.1
			c0.3,0,0.5,0.1,0.9,0l0,0c0.1,0,0.4,0,0.4,0c0,0,0,0,0.1,0l0,0l0.3,0c0.3,0,0,0.1,0.3,0.1c0.1,0,0.4-0.1,0.3-0.1
			c-0.1,0-0.1,0-0.1,0l0.1,0c0-0.1,0.1-0.1-0.2-0.2l-0.2,0l-0.1,0l0.2,0c-0.1,0-0.2,0-0.2,0c0,0,0,0-0.1,0l-0.2,0.1
			c0,0,0.1-0.1,0-0.1c-0.1,0,0.1,0.1-0.1,0.1c-0.1,0-0.1-0.1-0.2,0c0,0,0,0,0.1,0c-0.1,0-0.3,0-0.4,0c-0.1,0-0.4,0-0.4-0.1
			c0,0-0.2,0.1-0.3,0.1c0.2-0.1-0.4,0-0.3-0.1c-0.1,0.1-0.5,0-0.7,0.1c0,0,0,0,0.1,0c-0.1,0-0.2,0-0.3,0c0,0.1-0.2,0.1-0.3,0.1
			c-0.2-0.1,0.1-0.1,0-0.1c0,0-0.3,0-0.2,0.1c-0.1,0-0.1,0-0.2-0.1c0,0.1-0.1,0-0.2,0.1C59.3,7.6,59.5,7.6,59.4,7.6
			C59.2,7.6,59.4,7.6,59.4,7.6 M54.6,7.8L54.6,7.8C54.6,7.8,54.7,7.8,54.6,7.8C54.7,7.8,54.6,7.8,54.6,7.8 M54.2,7.8
			c0.1,0,0.1,0,0.2,0c0,0,0,0,0,0C54.3,7.8,54.3,7.8,54.2,7.8 M55,8C55,8.1,55,8,55,8C55,8,55,8,55,8C55.1,8,55.1,8,55,8
			C55.1,8,55.1,8,55,8"/>
		<path class="st3" d="M15.4,30.9c0.2,0,0.1,0,0.1-0.1c0.2,0,0.1,0,0.2,0.1c0.2,0,0.3-0.1,0.4-0.1c0,0,0,0,0,0c0.2,0,0.5,0,0.7,0
			c0,0,0,0,0,0c0,0,0-0.1,0-0.1c0.1,0,0.2,0,0.2,0c-0.1,0-0.1,0-0.1,0l0.1,0c0.1,0.1-0.1,0-0.1,0.1c0.2,0,0.4-0.1,0.5,0
			c0,0.1-0.3,0-0.1,0.1l-0.2,0c0.2,0.1-0.1,0,0,0.1c0.3,0,0.3,0,0.6,0c0.1,0,0,0,0-0.1c0.4,0,0.3,0.1,0.6,0.1c0.1,0,0.1-0.1,0.3-0.1
			l-0.1,0.1c0.3,0,0.2-0.1,0.5,0c-0.1,0-0.2,0-0.2,0c0.2,0,0.1,0,0.3,0l0,0.1c0.3,0,0.6,0,1,0c0,0-0.1,0,0,0c0.4,0,0.9,0,1.3,0.1
			l0.2,0c0,0,0.1,0,0,0c0.2,0,0,0,0.1,0c0.1,0,0.1,0,0,0c0.3,0,0.8-0.1,1.1,0l-0.1,0c0.2,0,0.3-0.1,0.5,0l0,0c0.5,0,1,0,1.4,0.1
			c0.1-0.1,0.5,0,0.5,0c0.3,0,0.2,0.1,0.6,0.1c0.1,0,0.2,0,0.3-0.1v0l0.2,0l0.1,0.1l0.1,0c0,0-0.1,0-0.1,0c0.2,0,0.5,0,0.5,0.1
			l0.5,0c0,0-0.1,0-0.2,0c0.2,0,0,0.1,0.3,0c0,0,0,0,0,0c0.1,0,0.4,0,0.6,0l0,0c0.3,0,0.7,0,1.1,0c-0.1,0-0.1-0.1,0-0.1l0,0
			c0.1,0-0.1,0,0-0.1c0.1,0,0.1,0.1,0,0.1l0.2,0c0,0,0,0,0,0c0.1,0,0.3,0.1,0.4,0l0,0c0.4,0,0.6,0,0.9,0c0,0,0.1,0,0.2-0.1
			c0.2,0,0.5,0.1,0.8,0.1c0.2,0,0.1,0,0.1-0.1c0,0,0.3,0,0.1,0.1c0.3,0,0.4,0,0.8,0c0,0-0.1,0-0.1,0c0.1,0,0.2,0,0.2,0l0,0
			c0.5,0,1.1,0.1,1.4,0.1l0,0l0.4,0c0.2,0-0.1,0,0,0c0.4-0.1,0.7,0,1,0c0.3,0.1,0.9,0,1.3,0.1l0,0c0.1,0,0.1,0,0.2,0c0,0-0.1,0,0,0
			c0.8,0,1.6,0,2.4,0.1c0.3,0,0.2-0.1,0.5-0.1l-0.1,0c0.6-0.1,1.2,0,1.8,0c0,0,0,0-0.1,0c0.1,0,0.5,0,0.5,0c0.1,0,0,0,0.1,0
			c0.1,0,0.3,0,0.4,0c0,0,0,0-0.1,0c0.1,0,0.4,0,0.3,0c0.2,0,0.4,0,0.6,0c0.1,0,0.4,0,0.4,0c0,0.1,0.4,0.1,0.5,0c0,0,0.1,0,0.1,0
			c0.1,0,0.3,0,0.3,0c0.3,0.1,0.6-0.1,0.7,0c0.5,0,0.9-0.1,1.3-0.1c0,0.1-0.5,0-0.4,0.1c0.4,0,0.6-0.1,1-0.1c0.1,0-0.1,0-0.1,0
			c0.4,0,0.8,0,1.1,0c0,0,0,0-0.1,0c0.1,0,0.2,0,0.2,0l-0.1,0c-0.1,0,0.3-0.1,0.3-0.1c-0.1,0.1,0.3,0,0.2,0.1c0,0,0.1,0,0.1,0
			c0.1,0,0.1,0,0,0c0.2,0,0.2,0,0.4,0c0,0,0,0-0.1,0c0.1,0,0.2-0.1,0.4,0c0,0,0,0,0,0c0.3,0,0.6-0.1,0.9,0c-0.1,0.1,0.1,0,0.1,0.1
			l0.2,0l-0.1,0c0.2,0,0.3,0,0.5,0l-0.1,0l0.3,0l-0.2,0c0.2,0,0-0.1,0.2-0.1c0,0,0.2,0,0.3,0l0,0c0.1,0,0.2,0,0.3,0c0,0,0,0.1,0,0.1
			c0.1,0,0.4,0,0.5-0.1c0,0,0,0,0,0l0.1,0c0.1,0,0.1,0,0.1,0c0.2,0-0.1-0.1,0.2,0c0,0,0,0-0.1,0c0.3,0,0.5,0,0.8,0
			c0.1,0.1-0.2,0-0.1,0.1c0.4,0,0.8-0.1,1.1,0l-0.1,0c0-0.1,0.3,0,0.5,0c0,0-0.1,0,0,0c0.2,0,0.5,0,0.9,0l0,0c0.1,0,0.4,0,0.5,0
			c0,0,0.1,0,0.1,0c0.5,0.1,0.9-0.1,1.4,0c-0.1,0-0.1,0-0.1,0l0.4,0c0,0,0,0-0.1,0c0,0,0.1,0,0.2,0c-0.2,0,0,0.1,0.1,0.1
			c0,0,0,0,0,0c0.2,0.1,0-0.1,0.3,0l0,0c0.1,0,0.2,0,0.3,0c0.1,0-0.1,0-0.1,0c0.2,0,0.3-0.1,0.4,0c-0.1,0-0.2,0-0.2,0
			c0.1,0,0.2,0,0.3,0l0,0l0.2,0l-0.1,0c0.2-0.1,0.4,0,0.6-0.1c-0.2,0.1,0,0-0.1,0.1c0.1,0,0.2,0,0.1,0c0.1,0,0.2,0,0.4,0
			c0,0,0.1,0,0.1,0c0.1,0,0,0,0,0c0.2,0,0.6,0.1,0.9,0c0.3,0,0.3-0.1,0.6-0.1c0.1,0-0.1,0.1-0.1,0.1c0.1,0,0.3,0,0.4,0c0,0,0,0,0,0
			c0.1,0,0.1-0.1,0.2,0c0,0-0.1,0-0.1,0.1c0.1,0,0.3,0,0.4-0.1c0,0-0.1,0-0.1,0.1c0.2,0,0.4,0,0.4-0.1l-0.1,0c0.1,0,0,0,0,0
			c-0.1,0-0.2,0-0.2,0l0.1,0c-0.1-0.1-0.4,0-0.6,0l0.1-0.1l-0.2,0.1c0,0-0.1-0.1,0-0.1c-0.1,0-0.1,0-0.3,0c0,0,0,0,0,0l-0.1,0
			c0,0,0,0,0.1,0c-0.2,0-0.4,0-0.5,0l0,0c-0.3,0,0,0-0.3,0.1L60.9,31l0,0c0,0-0.1,0-0.1,0c-0.1,0,0,0,0,0c-0.2,0-0.5,0-0.5-0.1
			c-0.1,0,0.2,0,0,0c-0.1-0.1-0.2,0-0.4,0c0,0,0.2,0,0-0.1c-0.1,0.1-0.3,0-0.4,0c0,0.1-0.3,0-0.5,0c0,0-0.4,0-0.6,0v0
			c0,0.1-0.2,0-0.4,0.1c0,0,0,0,0.1-0.1h-0.1c0,0-0.1,0-0.2,0l0,0c-0.2,0-0.4,0-0.6,0c0,0,0.2,0.1-0.1,0.1c0,0,0-0.1,0-0.1
			c0,0-0.1,0-0.1,0l0.1,0c-0.1,0,0,0-0.1,0c0,0-0.1,0-0.1,0c0,0,0.1,0,0.1,0c-0.1,0-0.2,0-0.3,0c0,0,0,0-0.1,0c-0.2,0-0.1,0-0.2,0
			c0,0-0.2,0-0.2,0c-0.1,0-0.1,0-0.1,0c-0.1,0-0.5,0-0.4,0l0,0h0l0,0l0,0c-0.3,0-0.7,0-1,0v0c-0.2,0-0.4,0-0.6,0c-0.1,0-0.1,0-0.1,0
			c-0.1,0-0.2,0-0.4,0c0.1,0,0,0,0.2,0c-0.2,0-0.2,0-0.4,0c0.1,0-0.1,0-0.2,0l0.1,0c-0.1,0-0.2,0-0.3,0l0,0c-0.4-0.1-0.7,0.1-1,0
			c-0.1,0,0.2,0,0.1,0.1c-0.2,0-0.4-0.1-0.4-0.1c-0.2,0-0.2,0.1-0.5,0.1c0,0,0.1,0.1-0.1,0.1c-0.2,0-0.2-0.1-0.1-0.1
			c0,0,0.1,0,0.1,0c0.1,0,0.1,0,0.1,0l0,0c-0.1,0-0.3,0-0.3,0c-0.1,0,0,0,0,0c-0.2,0-0.4,0-0.6,0c0,0,0.1,0,0,0c-0.3,0-0.2,0-0.4,0
			c-0.1,0,0.1-0.1-0.2,0c-0.1,0,0,0,0-0.1c-0.2,0-0.4,0-0.5,0l0.1,0c-0.1,0-0.1,0-0.2,0l0.1,0c-0.1,0-0.1,0-0.1,0
			c-0.1,0,0.1,0.1-0.1,0.1c-0.1,0-0.3,0-0.3,0c0.3,0,0,0,0.2-0.1c0,0-0.1,0-0.2,0c0,0,0,0,0,0c-0.3,0-0.1,0.1-0.4,0.1
			c0,0-0.1-0.1-0.1,0c0.1,0,0,0,0,0.1c-0.2,0-0.2,0-0.3,0l0.1,0c0,0-0.1,0-0.3,0c0,0,0.1,0,0.1,0c-0.1,0-0.3,0-0.5,0
			c-0.1,0,0,0-0.1-0.1c-0.2,0-0.2,0-0.5,0c0.1,0,0.1,0-0.1,0.1l0.4,0l-0.2,0c0.1,0,0.2,0,0.3,0c-0.1,0-0.1,0,0,0
			c-0.2-0.1-0.3,0-0.5,0v-0.1c-0.3,0-0.5,0-0.8,0l0.1,0c0,0-0.2,0-0.3,0c0,0-0.1,0-0.1-0.1c0,0-0.3,0-0.3,0.1l-0.2,0
			c-0.3,0-0.3,0.1-0.6,0.1c0.1,0,0,0,0.1-0.1c-0.1,0-0.2,0-0.2,0c-0.1,0-0.3,0-0.3,0c0,0,0,0-0.2,0c0,0,0,0,0,0c0,0-0.2,0-0.1,0.1
			c-0.3-0.1-0.8,0-1-0.1c-0.2,0-0.4,0-0.6,0c0,0,0,0,0,0c-0.2,0-0.2,0.1-0.4,0.1c-0.1,0,0.1,0,0.1,0c0-0.1-0.3,0-0.5,0l0,0
			c-0.1,0-0.3,0-0.6,0c0,0,0,0,0,0c-0.2,0-0.5,0.1-0.7,0.1c0.1,0,0.1,0,0.1-0.1c-0.1,0,0,0.1-0.2,0.1c-0.1,0-0.2,0-0.2-0.1l0.2,0
			c-0.1-0.1-0.2,0-0.3,0l0,0c-0.3,0-0.3,0.1-0.6,0.1l0,0c-0.2,0.1-0.1,0-0.3,0l0-0.1c-0.1,0-0.4,0.1-0.6,0.1c0.1,0,0.3-0.1,0.5-0.1
			c-0.1,0-0.4,0-0.4,0c0,0,0.1,0,0.1,0c-0.1,0-0.3,0.1-0.5,0.1c0-0.1-0.6,0-0.8-0.1c-0.4,0-0.8,0-1.3,0c0.2,0.1-0.1,0-0.1,0.1
			c-0.1,0-0.2,0-0.2,0l-0.3-0.1c-0.1,0,0.1,0,0.1,0c-0.2,0-0.1,0-0.3-0.1c0,0-0.1,0-0.2,0l0.2,0c-0.3,0-0.3-0.1-0.6,0l0.1,0
			c-0.2,0-0.6,0-0.8,0.1c0,0-0.1,0,0,0c-0.4,0-0.9,0.1-1.2,0l0,0c-0.1,0-0.1,0-0.2,0c0,0,0,0,0,0c0,0-0.2,0-0.3,0l0.1,0
			c-0.4,0-0.6,0-0.9,0.1c0-0.1-0.3-0.1-0.5-0.1l0,0c-0.5,0-0.8,0-1.2,0.1c-0.3-0.1-0.9,0-1.3-0.1c0.1,0,0,0-0.1,0.1
			c-0.1,0-0.3,0-0.3,0l0,0c-0.1-0.1-0.3,0-0.4-0.1l0,0.1c-0.4-0.1-1.1,0-1.3-0.1c-0.1,0-0.2,0-0.3,0l0,0c-0.3,0-0.4,0-0.8,0l0.1,0
			c-0.2,0-0.3,0.1-0.4,0.1l0-0.1c-0.3,0-0.7-0.1-1,0c0,0,0,0,0.1,0c-0.2,0-0.6-0.1-0.6,0c0-0.1-0.4,0-0.5,0l0,0
			c-0.2,0-0.2,0.1-0.4,0.1c0,0,0,0,0,0c-0.2,0-0.1,0-0.4,0l0.1,0c-0.2,0-0.2,0-0.2,0c-0.1,0-0.4,0-0.4-0.1c0,0-0.1,0.1-0.2,0
			c0,0,0,0,0.1,0c-0.3,0-0.5,0-0.7,0c0,0,0,0,0,0c0.2,0,0.4,0,0.4,0c0,0-0.2-0.1,0-0.1c-0.2,0-0.4,0.1-0.6,0.1c0,0,0,0,0,0l0,0
			c0,0-0.1,0-0.1,0c-0.1,0-0.1,0-0.2,0c0,0-0.2,0-0.3,0c0,0-0.1,0,0,0.1c0,0,0,0,0.1,0c0,0,0,0,0,0c0,0,0,0,0,0c0.1,0,0.1,0,0.2,0
			c-0.1,0-0.1,0-0.3,0c0,0-0.1,0.1-0.1,0.1c-0.1-0.1-0.4-0.1-0.4-0.1c-0.3,0-0.7,0-0.9,0.1c-0.1,0-0.1,0-0.1,0c0,0,0.1,0,0.1,0
			c-0.2,0-0.5,0-0.5,0c-0.2,0,0.1,0-0.2,0l0,0c-0.6-0.1-0.9,0.1-1.5,0c0,0,0.1,0,0.1,0c-0.7-0.1-1.5,0-2.2-0.1c-0.2,0-0.2,0-0.3,0
			l0,0l-0.2,0.1c-0.3,0-0.5-0.1-0.9,0l0,0c-0.1,0-0.4,0-0.4,0c0,0-0.1,0-0.1,0v0l-0.3,0c-0.3,0,0-0.1-0.3-0.1
			c-0.1,0-0.4,0.1-0.3,0.1c0.1,0,0.1,0,0.1,0l-0.1,0c0,0.1-0.1,0.1,0.2,0.2l0.2,0l0.1,0l-0.2,0c0.1,0,0.2,0,0.2,0c0,0,0,0,0.1,0
			l0.2-0.1c0,0-0.1,0.1,0,0.1c0.1,0-0.1-0.1,0.1-0.1c0.1,0,0.1,0.1,0.2,0c0,0,0,0,0,0c0.1,0,0.3,0,0.3,0c0.1,0,0.3,0,0.3,0.1
			c0,0,0.2,0,0.3,0c-0.2,0.1,0.4,0,0.3,0.1c0.1-0.1,0.5,0,0.7-0.1c0,0,0,0-0.1,0c0.1,0,0.2,0,0.3,0c0-0.1,0.2-0.1,0.3-0.1
			c0.2,0.1-0.1,0.1,0,0.1c0,0,0.3,0,0.2-0.1c0.1,0,0.1,0,0.2,0.1c0-0.1,0.1,0,0.2-0.1C15.4,30.8,15.3,30.8,15.4,30.9
			C15.6,30.8,15.4,30.9,15.4,30.9 M20.2,30.8L20.2,30.8C20.1,30.8,20.1,30.8,20.2,30.8C20.1,30.8,20.1,30.8,20.2,30.8 M20.6,30.8
			c0,0-0.1,0-0.2,0c0,0,0,0,0,0C20.4,30.8,20.5,30.8,20.6,30.8 M19.7,30.5C19.8,30.5,19.8,30.5,19.7,30.5
			C19.8,30.6,19.8,30.6,19.7,30.5C19.7,30.6,19.7,30.6,19.7,30.5C19.7,30.6,19.7,30.5,19.7,30.5"/>
		<path class="st3" d="M11.8,9.8C11.8,9.9,11.8,9.9,11.8,9.8c0.1,0.2,0,0.1,0,0.2c0,0.1,0.1,0.1,0.1,0.2c0,0,0,0,0,0
			c0,0.1,0,0.2,0.1,0.3c0,0,0,0,0,0c0,0,0,0,0.1,0c0,0,0,0.1,0,0.1c0,0,0,0,0,0l0,0c0,0,0-0.1-0.1-0.1c0,0.1,0.1,0.2,0.1,0.3
			c-0.1,0,0-0.2-0.1-0.1l0-0.1c-0.1,0.1,0-0.1-0.1,0c0,0.1,0,0.2,0,0.3c0,0,0,0,0.1,0c0.1,0.2-0.1,0.2,0,0.3c0,0,0.1,0,0.1,0.2
			l-0.1,0c0,0.1,0.1,0.1,0.1,0.2c0,0,0-0.1,0-0.1c0,0.1,0,0.1,0,0.1l0,0c0,0.2,0.1,0.3,0.1,0.5c0,0,0,0,0,0c0,0.2,0,0.5,0,0.7l0,0.1
			c0,0,0,0,0,0c0,0.1,0,0,0,0c0,0,0,0.1,0,0c0,0.1,0.1,0.4,0.1,0.5l0,0c0,0.1,0.1,0.1,0.1,0.2l0,0c0,0.3,0,0.5,0,0.7
			c0.1,0,0,0.2,0.1,0.3c0,0.1-0.1,0.1-0.1,0.3c0,0.1,0.1,0.1,0.1,0.1l0,0l0.1,0.1l-0.1,0l0,0.1c0,0,0-0.1,0-0.1c0,0.1,0,0.2,0,0.2
			l0.1,0.2c0,0,0,0,0-0.1c0.1,0.1,0,0,0,0.1c0,0,0,0,0,0c0,0.1,0,0.2,0,0.3l0,0c0,0.2,0,0.4,0,0.6c0-0.1,0.1-0.1,0.1,0l0,0
			c0,0,0-0.1,0.1,0c0,0.1,0,0-0.1,0l0,0.1c0,0,0,0,0,0c0,0,0,0.2,0,0.2l0,0c0,0.2,0,0.3,0,0.4c0,0,0,0.1,0.1,0.1c0,0.1,0,0.2,0,0.4
			c0,0.1,0,0,0.1,0.1c0,0,0,0.1-0.1,0.1c0,0.2,0,0.2,0,0.4c0,0,0,0,0,0c0,0,0,0.1,0,0.1v0c0.1,0.2-0.1,0.5,0,0.7l0,0l0,0.2
			c0,0.1,0-0.1-0.1,0c0.1,0.2,0,0.3,0,0.5c-0.1,0.1,0,0.5-0.1,0.7l0,0c0,0,0,0.1,0,0.1c0,0,0,0,0,0c0,0.4,0-2-0.1-1.5
			c0,0.1,0.1,0.1,0.1,0.3l0-0.1c0.1,0.3,0,0.6,0,0.9c0,0,0,0,0,0c0,0.1,0,0.2,0,0.2c0,0,0,0,0,0c0,0.1,0.1,0.2,0,0.2c0,0,0,0,0,0
			c0,0,0,0.2,0,0.1c0,0.1,0,0.2,0,0.3c0,0.1,0,0.2,0,0.2c-0.1,0,0,0.2,0,0.3c0,0,0,0.1-0.1,0c0,0.1,0,0.2,0.1,0.1
			c-0.1,0.1,0.1,0.3,0,0.4c0,0.2,0.1,0.5,0.1,0.7c-0.1,0,0-0.2-0.1-0.2c0,0.2,0.1,0.3,0.1,0.5c0,0.1,0,0,0,0c0,0.2,0,0.4,0,0.6
			c0,0,0,0,0,0c0,0,0,0.1,0,0.1v0c0-0.1,0.1,0.1,0.1,0.1c-0.1-0.1,0,0.2-0.1,0.1c0,0,0,0.1,0,0c0,0,0,0,0,0c0,0.1,0,0.1,0,0.2
			c0,0,0,0,0,0c0,0.1,0,0.1,0,0.2c0,0,0,0,0,0c0,0.2,0.1,0.3,0,0.5c-0.1-0.1,0,0.1-0.1,0.1l0,0.1l0,0c0,0.1,0,0.2,0,0.2l0-0.1l0,0.2
			l0-0.1c0,0.1,0.1,0,0,0.1c0,0,0,0.1,0,0.1l0,0c0,0,0,0.1,0,0.1c0,0-0.1,0-0.1,0c0,0,0,0.2,0.1,0.3c0,0,0,0,0,0l0,0c0,0,0,0,0,0
			c0,0.1,0.1,0,0,0.1c0,0,0,0,0,0c0,0.1,0,0.3,0,0.4c0,0,0-0.1,0-0.1c0,0.2,0.1,0.4,0,0.6v0c0.1,0,0,0.1,0,0.2c0,0,0,0,0,0
			c0,0.1,0,0.3,0,0.4l0,0c0,0.1,0,0.2,0,0.3c0,0,0,0.1,0,0c-0.1,0.2,0.1,0.5,0,0.7c0,0,0-0.1,0,0l0,0.2c0,0,0,0,0-0.1
			c0,0,0,0.1,0,0.1c0-0.1,0,0-0.1,0c0,0,0,0,0,0c-0.1,0.1,0.1,0,0,0.1v0c0,0,0,0.1,0,0.1c0,0,0-0.1,0-0.1c0,0.1,0.1,0.1,0,0.2
			c0,0,0-0.1,0-0.1c0,0.1,0,0.1,0,0.1v0l0,0.1l0,0c0.1,0.1,0,0.2,0.1,0.3c-0.1-0.1,0,0-0.1,0c0,0,0,0.1,0,0.1c0,0.1,0,0.1,0,0.2
			c0,0,0,0.1,0,0.1c0,0.1,0,0,0,0c0.1,0.1,0,0.3,0,0.5c0,0.2,0.1,0.2,0.1,0.3c0,0,0,0,0,0c0,0.1,0,0.1,0,0.2c0,0,0,0,0,0
			c0,0.1,0,0,0,0.1c0,0,0,0-0.1-0.1c0,0.1,0,0.1,0.1,0.2c0,0,0,0-0.1-0.1c0,0.1,0,0.2,0.1,0.2l0,0c0,0,0,0,0,0c0-0.1,0-0.1,0-0.1
			l0,0c0.1,0,0-0.2,0-0.3l0.1,0l0-0.1c0,0,0,0,0,0c0-0.1,0-0.1,0-0.1c0,0,0,0,0,0l0-0.1c0,0,0,0,0,0c0-0.1,0-0.2,0-0.2l0,0
			c0-0.2,0,0-0.1-0.2l0.1-0.1l0,0c0,0,0-0.1,0-0.1c0-0.1,0,0,0,0c0-0.1,0-0.2,0-0.3c0,0,0,0.1,0,0c0.1,0,0-0.1,0-0.2
			c0,0,0,0.1,0.1,0c-0.1,0,0-0.2,0-0.2c-0.1,0,0-0.1,0-0.3c0,0,0-0.2,0-0.3l0,0c-0.1,0,0-0.1-0.1-0.2c0,0,0,0,0.1,0.1v-0.1
			c0,0,0,0,0-0.1l0,0c0-0.1,0-0.2,0-0.3c0,0-0.1,0.1-0.1,0c0,0,0,0,0.1,0c0,0,0,0,0-0.1l0,0.1c0-0.1,0,0,0-0.1c0,0,0,0,0,0
			c0,0,0,0,0,0.1c0-0.1,0-0.1,0-0.1c0,0,0,0,0,0c0-0.1,0,0,0.1-0.1c0,0,0-0.1,0-0.1c0,0,0,0,0,0c0-0.1,0-0.2,0-0.2l0,0c0,0,0,0,0,0
			l0,0l0,0c0-0.2,0-0.3,0-0.5h0c0-0.1,0-0.2,0-0.3c0,0,0-0.1,0-0.1c0-0.1,0-0.1,0-0.2c0,0.1,0,0,0,0.1c0-0.1,0-0.1,0-0.2
			c0,0,0-0.1,0-0.1l0,0.1c0-0.1,0-0.1,0-0.1l0,0c0.1-0.2-0.1-0.4,0-0.5c0-0.1,0,0.1-0.1,0.1c0-0.1,0.1-0.2,0.1-0.2
			c0-0.1-0.1-0.1-0.1-0.2c0,0-0.1,0-0.1-0.1c0-0.1,0.1-0.1,0.1-0.1c0,0,0,0,0,0c0,0,0,0.1,0,0l0,0c0,0,0-0.2,0-0.1c0-0.1,0,0,0,0
			c0-0.1,0-0.2,0-0.3c0,0,0,0,0,0c0-0.2,0-0.1,0-0.2c0-0.1,0.1,0,0-0.1c0-0.1,0,0,0.1,0c0-0.1,0-0.2,0-0.3v0.1c0,0,0-0.1,0-0.1l0,0
			c0,0,0-0.1,0-0.1c0,0-0.1,0-0.1,0c0,0,0-0.1,0-0.2c0,0.1,0,0,0,0.1c0,0,0-0.1,0-0.1c0,0,0,0,0,0c0-0.1,0-0.1,0-0.2c0,0,0,0,0-0.1
			c0,0.1,0,0-0.1,0c0-0.1,0-0.1,0-0.1l0,0.1c0,0,0-0.1,0-0.1c0,0,0,0.1,0,0c0-0.1,0-0.2,0-0.3c0,0,0,0,0.1,0c0-0.1,0-0.1,0-0.2
			c0,0,0,0-0.1,0l0,0.2l0-0.1c0,0.1,0,0.1,0,0.2c0-0.1,0-0.1,0,0c0-0.1,0-0.2,0-0.3l0.1,0c0-0.1,0-0.2,0-0.4l0,0.1c0,0,0-0.1,0-0.2
			c0,0,0,0,0.1-0.1c0,0,0-0.1-0.1-0.1l0-0.1c0-0.1-0.1-0.2-0.1-0.3c0,0,0,0,0.1,0.1c0,0,0-0.1,0-0.1c0,0,0-0.1,0-0.2c0,0,0,0,0-0.1
			c0,0,0,0,0,0c0,0,0-0.1,0,0c0.1-0.1,0-0.4,0.1-0.5c0-0.1,0-0.2,0-0.3c0,0,0,0,0,0c0-0.1-0.1-0.1-0.1-0.2c0-0.1,0,0.1,0,0
			c0.1,0,0-0.2,0-0.3l0,0c0-0.1,0-0.2,0-0.3c0,0,0,0,0,0c-0.1-0.1-0.1-0.2-0.1-0.4c0,0,0,0.1,0.1,0c0,0-0.1,0-0.1-0.1
			c0,0,0-0.1,0.1-0.1l0,0.1c0-0.1,0-0.1,0-0.2l0,0c0-0.1-0.1-0.1-0.1-0.3l0,0c-0.1-0.1,0-0.1,0-0.2l0.1,0c0-0.1-0.1,2.6-0.1,2.5
			c0,0.1,0.1-2.6,0.1-2.5c0-0.1,0,2.6,0,2.6c0,0,0-2.7,0-2.7c0-0.1-0.1,2.6-0.1,2.5c0.1,0,0-0.3,0.1-0.4c0-0.2,0-0.4,0-0.6
			c-0.1,0.1,0-0.1-0.1-0.1c0-0.1,0-0.1,0-0.1l0.1-0.2c0,0,0,0.1,0,0c0-0.1,0-0.1,0.1-0.1c0,0,0,0,0-0.1l0,0.1c0-0.2,0.1-0.1,0-0.3
			l0,0.1c0-0.1,0-0.3-0.1-0.4c0,0,0,0,0,0c0-0.2-0.1-0.5-0.1-0.6l0,0c0,0,0-0.1,0-0.1c0,0,0,0,0,0c0,0,0-0.1,0-0.2l0,0
			c0-0.2-0.1-0.3-0.1-0.5c0.1,0,0.1-0.2,0.1-0.2h0c0-0.2-0.1-0.4-0.1-0.6c0.1-0.1,0-0.5,0-0.7c0,0,0,0-0.1,0c0-0.1,0-0.1,0-0.1v0
			c0,0,0-0.1,0-0.2l-0.1,0c0.1-0.2-0.1-0.6,0-0.7c0-0.1,0-0.1,0-0.2l0,0c0-0.1,0-0.2,0-0.4l0,0c0-0.1-0.1-0.1-0.1-0.2l0.1,0
			c0-0.2,0-0.4,0-0.5c0,0,0,0,0,0c0-0.1,0-0.3-0.1-0.3c0.1,0,0-0.2,0-0.3l0,0c0-0.1-0.1-0.1-0.1-0.2c0,0,0,0,0,0c0-0.1,0-0.1,0-0.2
			l0,0c0-0.1,0-0.1,0-0.1c0-0.1,0-0.2,0-0.2c0,0-0.1-0.1,0-0.1c0,0,0,0,0,0c0-0.2-0.1-0.2,0-0.3c0,0,0,0,0,0c0,0.1,0,0.2,0,0.2
			c0,0,0-0.1,0.1,0c0-0.1-0.1-0.2-0.1-0.3c0,0,0,0,0,0l0,0c0,0,0,0,0-0.1c0,0,0-0.1,0-0.1c0,0,0-0.1,0-0.2c0,0,0-0.1-0.1,0
			c0,0,0,0,0,0c0,0,0,0,0,0v0c0,0,0,0.1,0,0.1c0,0,0-0.1,0-0.1c0,0-0.1-0.1-0.1-0.1c0-0.1,0.1-0.2,0.1-0.2c0-0.1,0-0.3-0.1-0.4
			c0,0,0,0,0-0.1c0,0,0,0.1,0,0.1c0-0.1,0-0.2-0.1-0.3c0-0.1,0,0.1,0-0.1l0,0c0.1-0.3-0.2-0.5,0-0.8c0,0,0,0,0,0
			c0-0.4-0.1-0.7,0-1.1c0-0.1,0-0.1-0.1-0.2l0,0L12,8.8c0-0.1,0.1-0.3,0-0.5l0,0c0-0.1,0-0.2,0-0.2c0,0,0,0,0,0l0,0l0-0.2
			c0-0.1,0.1,0,0.1-0.2c0-0.1-0.1-0.2-0.1-0.2c0,0,0,0.1,0,0.1l0-0.1c-0.1,0-0.1-0.1-0.2,0.1l0,0.1l0,0l0-0.1c0,0.1,0,0.1,0,0.1
			c0,0,0,0,0,0L11.8,8c0,0,0,0-0.1,0c0,0.1,0.1,0,0.1,0c0,0.1-0.1,0,0,0.1c0,0,0,0,0,0c0,0.1,0,0.1,0,0.2c0,0.1,0,0.2,0,0.2
			c0,0,0,0.1,0,0.2c-0.1-0.1,0,0.2-0.1,0.2c0.1,0.1,0,0.2,0.1,0.4c0,0,0,0,0,0c0,0.1,0,0.1,0,0.1c0,0,0.1,0.1,0.1,0.2
			c-0.1,0.1-0.1,0-0.1,0c0,0,0.1,0.1,0.1,0.1c0,0.1,0,0.1-0.1,0.1C11.9,9.6,11.8,9.7,11.8,9.8C11.8,9.8,11.8,9.8,11.8,9.8
			C11.8,9.9,11.8,9.8,11.8,9.8 M12,12.2L12,12.2C12,12.2,12,12.2,12,12.2C12,12.2,12,12.2,12,12.2 M12,12.4C12,12.4,12,12.4,12,12.4
			C12,12.3,12,12.4,12,12.4C12,12.4,12,12.4,12,12.4 M12.2,12C12.3,12,12.2,12,12.2,12C12.2,12,12.2,12,12.2,12
			C12.2,12,12.2,12,12.2,12C12.2,12,12.2,12,12.2,12"/>
		<path class="st3" d="M31.5,9.8C31.5,9.9,31.6,9.9,31.5,9.8c0.1,0.2,0,0.1,0,0.2c0,0.1,0.1,0.1,0.1,0.2c0,0,0,0,0,0
			c0,0.1,0,0.2,0.1,0.3c0,0,0,0,0,0c0,0,0.1,0,0.1,0c0,0,0,0.1,0,0.1c0,0,0,0,0,0l0,0c0,0,0-0.1-0.1-0.1c0,0.1,0.1,0.2,0.1,0.3
			c0,0,0-0.2-0.1-0.1l0-0.1c-0.1,0.1,0-0.1-0.1,0c0,0.1,0,0.2,0,0.3c0,0,0,0,0.1,0c0,0.2-0.1,0.2,0,0.3c0,0,0.1,0,0.1,0.2l-0.1,0
			c0,0.1,0.1,0.1,0,0.2c0,0,0-0.1,0-0.1c0,0.1,0,0.1,0,0.1l0,0c0,0.2,0.1,0.3,0.1,0.5c0,0,0,0,0,0c0,0.2,0,0.5,0,0.7l0,0.1
			c0,0,0,0,0,0c0,0.1,0,0,0,0c0,0,0,0.1,0,0c0,0.1,0.1,0.4,0.1,0.5l0,0c0,0.1,0.1,0.1,0.1,0.2l0,0c0,0.3,0,0.5,0,0.7
			c0.1,0,0,0.2,0.1,0.3c0,0.1-0.1,0.1-0.1,0.3c0,0.1,0.1,0.1,0.1,0.1l0,0l0.1,0.1l-0.1,0l0,0.1c0,0,0-0.1,0-0.1c0,0.1,0,0.2,0,0.2
			l0.1,0.2c0,0,0,0,0-0.1c0.1,0.1,0,0,0,0.1c0,0,0,0,0,0c0,0.1,0,0.2,0,0.3l0,0c0,0.2,0,0.4,0,0.6c0-0.1,0.1-0.1,0.1,0l0,0
			c0,0,0-0.1,0.1,0c0,0.1,0,0-0.1,0l0,0.1c0,0,0,0,0,0c0,0,0,0.2,0,0.2l0,0c0,0.2,0,0.3,0,0.4c0,0,0,0.1,0.1,0.1c0,0.1,0,0.2,0,0.4
			c0,0.1,0,0,0.1,0.1c0,0,0,0.1-0.1,0.1c0,0.2,0,0.2,0,0.4c0,0,0,0,0,0c0,0,0,0.1,0,0.1v0c0.1,0.2-0.1,0.5,0,0.7v0l0,0.2
			c0,0.1,0-0.1-0.1,0c0.1,0.2,0,0.3,0,0.5c-0.1,0.1,0,0.5,0,0.7l0,0c0,0,0,0.1,0,0.1c0,0,0,0,0,0c0,0.4,0-2-0.1-1.5
			c0,0.1,0.1,0.1,0.1,0.3l0-0.1c0.1,0.3,0,0.6,0,0.9c0,0,0,0,0,0c0,0.1,0,0.2,0,0.2c0,0,0,0,0,0c0,0.1,0,0.2,0,0.2c0,0,0,0,0,0
			c0,0,0,0.2,0,0.1c0,0.1,0,0.2,0,0.3c0,0.1,0,0.2,0,0.2c-0.1,0,0,0.2,0,0.3c0,0,0,0.1,0,0c0,0.1,0,0.2,0,0.1
			c-0.1,0.1,0.1,0.3,0,0.4c0,0.2,0.1,0.5,0.1,0.7c-0.1,0,0-0.2-0.1-0.2c0,0.2,0.1,0.3,0.1,0.5c0,0.1,0,0,0,0c0,0.2,0,0.4,0,0.6
			c0,0,0,0,0,0c0,0,0,0.1,0,0.1l0,0c0-0.1,0.1,0.1,0.1,0.1c-0.1-0.1,0,0.2-0.1,0.1c0,0,0,0.1,0,0c0,0,0,0,0,0c0,0.1,0,0.1,0,0.2
			c0,0,0,0,0,0c0,0.1,0,0.1,0,0.2c0,0,0,0,0,0c0,0.2,0.1,0.3,0.1,0.5c-0.1-0.1,0,0.1-0.1,0.1l0,0.1l0,0c0,0.1,0,0.2,0,0.2l0-0.1
			l0,0.2l0-0.1c0,0.1,0.1,0,0.1,0.1c0,0,0,0.1,0,0.1l0,0c0,0,0,0.1,0,0.1c0,0-0.1,0-0.1,0c0,0,0,0.2,0.1,0.3c0,0,0,0,0,0l0,0
			c0,0,0,0,0,0c0,0.1,0.1,0,0,0.1c0,0,0,0,0,0c0,0.1,0,0.3,0,0.4c0,0,0-0.1-0.1-0.1c0,0.2,0.1,0.4,0.1,0.6v0c0.1,0,0,0.1,0,0.2
			c0,0,0,0,0,0c0,0.1,0,0.3,0,0.4l0,0c0,0.1,0,0.2,0,0.3c0,0,0,0.1,0,0c-0.1,0.2,0.1,0.5,0,0.7c0,0,0-0.1,0,0l0,0.2c0,0,0,0,0-0.1
			c0,0,0,0.1,0,0.1c0-0.1-0.1,0-0.1,0c0,0,0,0,0,0c-0.1,0.1,0.1,0,0,0.1l0,0c0,0,0,0.1,0,0.1c0,0,0-0.1-0.1-0.1c0,0.1,0.1,0.1,0,0.2
			c0,0,0-0.1,0-0.1c0,0.1,0,0.1,0,0.1v0l0,0.1l0,0c0.1,0.1,0,0.2,0.1,0.3c-0.1-0.1,0,0-0.1,0c0,0,0,0.1,0,0.1c0,0.1,0,0.1,0,0.2
			c0,0,0,0.1,0,0.1c0,0.1,0,0,0,0c0,0.1-0.1,0.3,0,0.5c0,0.2,0.1,0.2,0.1,0.3c0,0,0,0,0,0c0,0.1,0,0.1,0,0.2c0,0,0,0,0,0
			c0,0.1,0.1,0,0,0.1c0,0,0,0-0.1-0.1c0,0.1,0,0.1,0.1,0.2c0,0,0,0-0.1-0.1c0,0.1,0,0.2,0.1,0.2l0,0c0,0,0,0,0,0c0-0.1,0-0.1,0-0.1
			l0,0c0.1,0,0-0.2,0-0.3l0.1,0l0-0.1c0,0,0,0,0.1,0c0-0.1,0-0.1,0-0.1c0,0,0,0,0,0l0-0.1c0,0,0,0,0,0c0-0.1,0-0.2,0-0.2v0
			c0-0.2,0,0-0.1-0.2l0.1-0.1l0,0c0,0,0-0.1,0-0.1c0-0.1,0,0,0,0c0-0.1,0-0.2,0-0.3c0,0,0,0.1,0,0c0.1,0,0-0.1,0-0.2
			c0,0,0,0.1,0.1,0c-0.1,0,0-0.2,0-0.2c0,0,0-0.1,0-0.3c0,0,0-0.2,0-0.3l0,0c-0.1,0,0-0.1-0.1-0.2c0,0,0,0,0.1,0.1v-0.1
			c0,0,0,0,0-0.1l0,0c0-0.1,0-0.2,0-0.3c0,0-0.1,0.1-0.1,0c0,0,0.1,0,0.1,0c0,0,0,0,0-0.1l0,0.1c0-0.1,0,0,0-0.1c0,0,0,0,0,0
			c0,0,0,0,0,0.1c0-0.1,0-0.1,0-0.1c0,0,0,0,0,0c0-0.1,0,0,0-0.1c0,0,0-0.1,0-0.1c0,0,0,0,0,0c0-0.1,0-0.2,0-0.2v0c0,0,0,0,0,0l0,0
			l0,0c0-0.2,0-0.3,0-0.5h0c0-0.1,0-0.2,0-0.3c0,0,0-0.1,0-0.1c0-0.1,0-0.1,0-0.2c0,0.1,0,0,0,0.1c0-0.1,0-0.1,0-0.2
			c0,0,0.1-0.1,0-0.1l0,0.1c0-0.1,0-0.1,0-0.1l0.1,0c0.1-0.2-0.1-0.4,0-0.5c0-0.1,0,0.1-0.1,0.1c0-0.1,0.1-0.2,0.1-0.2
			c0-0.1-0.1-0.1-0.1-0.2c0,0-0.1,0-0.1-0.1c0-0.1,0.1-0.1,0.1-0.1c0,0,0,0,0,0c0,0,0,0.1,0,0l0,0c0,0,0-0.2,0-0.1c0-0.1,0,0,0,0
			c0-0.1,0-0.2,0-0.3c0,0,0,0,0,0c0-0.2,0-0.1,0-0.2c0-0.1,0.1,0,0-0.1c0-0.1,0,0,0.1,0c0-0.1,0-0.2,0-0.3l0,0.1c0,0,0-0.1,0-0.1
			l0,0c0,0,0-0.1,0-0.1c0,0-0.1,0-0.1,0c0,0,0-0.1,0-0.2c0,0.1,0,0,0.1,0.1c0,0,0-0.1,0-0.1c0,0,0,0,0,0c0-0.1-0.1-0.1,0-0.2
			c0,0,0,0,0-0.1c0,0.1,0,0-0.1,0c0-0.1,0-0.1,0-0.1l0,0.1c0,0,0-0.1,0-0.1c0,0,0,0.1,0,0c0-0.1,0-0.2,0-0.3c0,0,0,0,0.1,0
			c0-0.1,0-0.1,0-0.2c0,0,0,0-0.1,0l0,0.2l-0.1-0.1c0,0.1,0,0.1,0,0.2c0-0.1,0-0.1,0,0c0.1-0.1,0-0.2,0-0.3l0.1,0c0-0.1,0-0.2,0-0.4
			l0,0.1c0,0,0-0.1,0-0.2c0,0,0,0,0.1-0.1c0,0,0-0.1,0-0.1l0-0.1c0-0.1-0.1-0.2-0.1-0.3c0,0,0,0,0.1,0.1c0,0,0-0.1,0-0.1
			c0,0,0-0.1,0-0.2c0,0,0,0,0-0.1c0,0,0,0,0,0c0,0,0-0.1,0,0c0.1-0.1,0-0.4,0.1-0.5c0-0.1,0-0.2,0-0.3c0,0,0,0,0,0
			c0-0.1-0.1-0.1,0-0.2c0-0.1,0,0.1,0,0c0.1,0,0-0.2,0-0.3l0,0c0-0.1,0-0.2,0-0.3c0,0,0,0,0,0c0-0.1-0.1-0.2-0.1-0.4
			c0,0,0,0.1,0.1,0c0,0-0.1,0-0.1-0.1c0,0,0-0.1,0.1-0.1v0.1c0.1-0.1,0-0.1,0-0.2l0,0c0-0.1-0.1-0.1-0.1-0.3l0,0c0-0.1,0-0.1,0-0.2
			l0,0c0-0.1,0,2.6-0.1,2.5c0,0.1,0.1-2.6,0.1-2.5c0-0.1,0,2.6,0,2.6c0,0,0-2.7,0-2.7c0-0.1-0.1,2.6-0.1,2.5c0.1,0,0-0.3,0.1-0.4
			c0-0.2,0-0.4,0-0.6c-0.1,0.1,0-0.1-0.1-0.1c0-0.1,0-0.1,0-0.1l0-0.2c0,0,0,0.1,0,0c0-0.1,0-0.1,0.1-0.1c0,0,0,0,0-0.1l0,0.1
			c0-0.2,0.1-0.1,0-0.3l0,0.1c0-0.1,0-0.3-0.1-0.4c0,0,0,0,0,0c0-0.2-0.1-0.5,0-0.6l0,0c0,0,0-0.1,0-0.1c0,0,0,0,0,0
			c0,0,0-0.1,0-0.2l0,0c0-0.2-0.1-0.3-0.1-0.5c0.1,0,0.1-0.2,0.1-0.2h0c0-0.2-0.1-0.4-0.1-0.6c0.1-0.1,0-0.5,0-0.7c0,0-0.1,0-0.1,0
			c0-0.1,0-0.1,0-0.1v0c0.1,0,0-0.1,0-0.2l-0.1,0c0.1-0.2-0.1-0.6,0-0.7c0-0.1,0-0.1,0-0.2l0,0c0-0.1,0-0.2,0-0.4l0,0
			c0-0.1-0.1-0.1-0.1-0.2l0.1,0c0-0.2,0-0.4,0-0.5c0,0,0,0,0,0c0-0.1,0-0.3-0.1-0.3c0.1,0,0-0.2,0-0.3l0,0c0-0.1-0.1-0.1-0.1-0.2
			c0,0,0,0,0,0c0-0.1,0-0.1,0-0.2l0,0c0-0.1,0-0.1-0.1-0.1c0-0.1,0-0.2,0-0.2c0,0-0.1-0.1,0-0.1c0,0,0,0,0,0c0-0.2-0.1-0.2,0-0.3
			c0,0,0,0,0,0c0,0.1,0,0.2,0,0.2c0,0,0-0.1,0.1,0c0-0.1-0.1-0.2-0.1-0.3c0,0,0,0,0,0l0,0c0,0,0,0,0-0.1c0,0,0-0.1,0-0.1
			c0,0,0-0.1,0-0.2c0,0,0-0.1-0.1,0c0,0,0,0,0,0c0,0,0,0,0,0l0,0c0,0,0,0.1,0,0.1c0,0,0-0.1,0-0.1c0,0-0.1-0.1-0.1-0.1
			c0.1-0.1,0.1-0.2,0.1-0.2c0-0.1,0-0.3-0.1-0.4c0,0,0,0,0-0.1c0,0,0,0.1,0,0.1c0-0.1,0-0.2-0.1-0.3c0-0.1,0,0.1,0-0.1l0,0
			c0.1-0.3-0.2-0.5,0-0.8c0,0,0,0,0,0c0-0.4-0.1-0.7,0-1.1c0-0.1,0-0.1,0-0.2l0,0l0-0.1c0-0.1,0.1-0.3,0-0.5l0,0c0-0.1,0-0.2,0-0.2
			c0,0,0,0,0,0l0,0l0-0.2c0-0.1,0.1,0,0.1-0.2c0-0.1-0.1-0.2-0.1-0.2c0,0,0,0.1,0,0.1l0-0.1c-0.1,0-0.1-0.1-0.2,0.1l0,0.1l0,0V7.7
			c0,0.1,0,0.1,0,0.1c0,0,0,0,0,0L31.6,8c0,0,0,0-0.1,0c0,0.1,0.1,0,0.1,0c0,0.1-0.1,0,0,0.1c0,0,0,0,0,0c0,0.1,0,0.1,0,0.2
			c0,0.1,0,0.2,0,0.2c0,0,0.1,0.1,0.1,0.2c-0.1-0.1,0,0.2-0.1,0.2c0.1,0.1,0,0.2,0.1,0.4c0,0,0,0,0,0c0,0.1,0,0.1,0,0.1
			c0.1,0,0.1,0.1,0.1,0.2c-0.1,0.1-0.1,0-0.1,0c0,0,0,0.1,0.1,0.1c0,0.1,0,0.1-0.1,0.1C31.6,9.6,31.6,9.7,31.5,9.8
			C31.6,9.8,31.5,9.8,31.5,9.8C31.5,9.9,31.5,9.8,31.5,9.8 M31.7,12.2L31.7,12.2C31.7,12.2,31.7,12.2,31.7,12.2
			C31.7,12.2,31.7,12.2,31.7,12.2 M31.8,12.4C31.8,12.4,31.7,12.4,31.8,12.4C31.8,12.3,31.8,12.4,31.8,12.4
			C31.8,12.4,31.8,12.4,31.8,12.4 M32,12C32,12,32,12,32,12C32,12,32,12,32,12C32,12,32,12,32,12C32,12,32,12,32,12"/>
		<path class="st3" d="M47.2,9.8C47.2,9.9,47.3,9.9,47.2,9.8c0.1,0.2,0,0.1,0,0.2c0,0.1,0.1,0.1,0.1,0.2c0,0,0,0,0,0
			c0,0.1,0,0.2,0.1,0.3c0,0,0,0,0,0c0,0,0,0,0.1,0c0,0,0,0.1,0,0.1c0,0,0,0,0,0l0,0c0,0,0-0.1,0-0.1c0,0.1,0.1,0.2,0,0.3
			c0,0,0-0.2-0.1-0.1l0-0.1c-0.1,0.1,0-0.1-0.1,0c0,0.1,0,0.2,0,0.3c0,0,0.1,0,0.1,0c0.1,0.2-0.1,0.2,0,0.3c0,0,0.1,0,0.1,0.2
			l-0.1,0c0,0.1,0.1,0.1,0.1,0.2c0,0,0-0.1,0-0.1c0,0.1,0,0.1,0,0.1l0,0c0,0.2,0.1,0.3,0.1,0.5c0,0,0,0,0,0c0,0.2,0,0.5,0,0.7l0,0.1
			c0,0,0,0,0,0c0,0.1,0,0,0,0c0,0,0,0.1,0,0c0,0.1,0.1,0.4,0.1,0.5l0,0c0,0.1,0.1,0.1,0.1,0.2l0,0c0,0.3,0,0.5,0,0.7
			c0.1,0,0,0.2,0.1,0.3c0,0.1-0.1,0.1-0.1,0.3c0,0.1,0,0.1,0.1,0.1l0,0l0,0.1l0,0l0,0.1c0,0,0-0.1,0-0.1c0,0.1,0,0.2,0,0.2l0,0.2
			c0,0,0,0,0-0.1c0,0.1,0,0,0,0.1c0,0,0,0,0,0c0,0.1,0,0.2,0,0.3l0,0c0,0.2,0,0.4,0,0.6c0-0.1,0.1-0.1,0.1,0l0,0c0,0,0-0.1,0,0
			c0,0.1,0,0-0.1,0l0,0.1c0,0,0,0,0,0c0,0,0,0.2,0,0.2l0,0c0,0.2,0,0.3,0,0.4c0,0,0,0.1,0.1,0.1c0,0.1,0,0.2,0,0.4
			c0,0.1,0,0,0.1,0.1c0,0,0,0.1-0.1,0.1c0,0.2,0,0.2,0.1,0.4c0,0,0,0,0,0c0,0,0,0.1,0,0.1l0,0c0.1,0.2-0.1,0.5,0,0.7v0l0,0.2
			c0,0.1,0-0.1-0.1,0c0.1,0.2,0,0.3,0,0.5c-0.1,0.1,0,0.5-0.1,0.7l0,0c0,0,0,0.1,0,0.1c0,0,0,0,0,0c0,0.4,0-2-0.1-1.5
			c0,0.1,0.1,0.1,0.1,0.3l0-0.1c0.1,0.3,0,0.6,0,0.9c0,0,0,0,0,0c0,0.1,0,0.2,0,0.2c0,0,0,0,0,0c0,0.1,0.1,0.2,0,0.2c0,0,0,0,0,0
			c0,0,0,0.2,0,0.1c0,0.1,0,0.2,0,0.3c0,0.1,0,0.2,0,0.2c-0.1,0,0,0.2,0,0.3c0,0,0,0.1-0.1,0c0,0.1,0,0.2,0.1,0.1
			c-0.1,0.1,0.1,0.3,0,0.4c0,0.2,0.1,0.5,0.1,0.7c-0.1,0,0-0.2-0.1-0.2c0,0.2,0.1,0.3,0.1,0.5c0,0.1,0,0,0,0c0,0.2,0,0.4,0,0.6
			c0,0,0,0,0,0c0,0,0,0.1,0,0.1l0,0c0-0.1,0.1,0.1,0.1,0.1c-0.1-0.1,0,0.2-0.1,0.1c0,0,0,0.1,0,0c0,0,0,0,0,0c0,0.1,0,0.1,0,0.2
			c0,0,0,0,0,0c0,0.1,0,0.1,0,0.2c0,0,0,0,0,0c0,0.2,0.1,0.3,0,0.5c-0.1-0.1,0,0.1-0.1,0.1l0,0.1l0,0c0,0.1,0,0.2,0,0.2l0-0.1l0,0.2
			l0-0.1c0,0.1,0.1,0,0,0.1c0,0,0,0.1,0,0.1l0,0c0,0,0,0.1,0,0.1c0,0-0.1,0-0.1,0c0,0,0,0.2,0.1,0.3c0,0,0,0,0,0l0,0c0,0,0,0,0,0
			c0,0.1,0.1,0,0,0.1c0,0,0,0,0,0c0,0.1,0,0.3,0,0.4c-0.1,0,0-0.1-0.1-0.1c0,0.2,0.1,0.4,0.1,0.6l0,0c0.1,0,0,0.1,0,0.2c0,0,0,0,0,0
			c0,0.1,0,0.3,0,0.4l0,0c0,0.1,0,0.2,0,0.3c0,0,0,0.1,0,0c-0.1,0.2,0.1,0.5,0,0.7c0,0,0-0.1,0,0l0,0.2c0,0,0,0,0-0.1
			c0,0,0,0.1,0,0.1c0-0.1-0.1,0-0.1,0c0,0,0,0,0,0c-0.1,0.1,0.1,0,0,0.1l0,0c0,0,0,0.1,0,0.1c0,0,0-0.1,0-0.1c0,0.1,0.1,0.1,0,0.2
			c0,0,0-0.1,0-0.1c0,0.1,0,0.1,0,0.1v0l0,0.1l0,0c0.1,0.1,0,0.2,0.1,0.3c-0.1-0.1,0,0-0.1,0c0,0,0,0.1,0,0.1c0,0.1,0,0.1,0,0.2
			c0,0,0,0.1,0,0.1c0,0.1,0,0,0,0c0,0.1-0.1,0.3,0,0.5c0,0.2,0.1,0.2,0.1,0.3c0,0,0,0,0,0c0,0.1,0,0.1,0,0.2c0,0,0,0,0,0
			c0,0.1,0,0,0,0.1c0,0,0,0-0.1-0.1c0,0.1,0,0.1,0.1,0.2c0,0,0,0-0.1-0.1c0,0.1,0,0.2,0.1,0.2l0,0c0,0,0,0,0,0c0-0.1,0-0.1,0-0.1
			l0,0c0.1,0,0-0.2,0-0.3l0.1,0l0-0.1c0,0,0,0,0,0c0-0.1,0-0.1,0-0.1c0,0,0,0,0,0l0-0.1c0,0,0,0,0,0c0-0.1,0-0.2,0-0.2v0
			c0-0.2,0,0-0.1-0.2l0.1-0.1l0,0c0,0,0-0.1,0-0.1c0-0.1,0,0,0,0c0-0.1,0-0.2,0.1-0.3c0,0,0,0.1-0.1,0c0.1,0,0-0.1,0-0.2
			c0,0,0,0.1,0.1,0c-0.1,0,0-0.2,0-0.2c-0.1,0,0-0.1,0-0.3c0,0,0-0.2,0-0.3l0,0c-0.1,0,0-0.1-0.1-0.2c0,0,0,0,0.1,0.1v-0.1
			c0,0,0,0,0-0.1l0,0c0-0.1,0-0.2,0-0.3c0,0-0.1,0.1-0.1,0c0,0,0,0,0.1,0c0,0,0,0,0-0.1l0,0.1c0-0.1,0,0,0-0.1c0,0,0,0,0,0
			c0,0,0,0,0,0.1c0-0.1,0-0.1,0-0.1c0,0,0,0,0,0c0-0.1,0,0,0-0.1c0,0,0-0.1,0-0.1c0,0,0,0,0,0c0-0.1,0-0.2,0-0.2v0c0,0,0,0,0,0l0,0
			l0,0c0-0.2,0-0.3,0-0.5h0c0-0.1,0-0.2,0-0.3c0,0,0-0.1,0-0.1c0-0.1,0-0.1,0-0.2c0,0.1,0,0,0,0.1c0-0.1,0-0.1,0-0.2
			c0,0,0-0.1,0-0.1l0,0.1c0-0.1,0-0.1,0-0.1l0,0c0.1-0.2-0.1-0.4,0-0.5c0-0.1,0,0.1-0.1,0.1c0-0.1,0.1-0.2,0.1-0.2
			c0-0.1-0.1-0.1,0-0.2c0,0-0.1,0-0.1-0.1c0-0.1,0.1-0.1,0.1-0.1c0,0,0,0,0,0c0,0,0,0.1,0,0l0,0c0,0,0-0.2,0-0.1c0-0.1,0,0,0,0
			c0-0.1,0-0.2,0-0.3c0,0,0,0,0,0c0-0.2,0-0.1,0-0.2c0-0.1,0.1,0,0-0.1c0-0.1,0,0,0.1,0c0-0.1,0-0.2,0-0.3l0,0.1c0,0,0-0.1,0-0.1
			l0,0c0,0,0-0.1,0-0.1c0,0-0.1,0-0.1,0c0,0,0-0.1,0-0.2c0,0.1,0,0,0.1,0.1c0,0,0-0.1,0-0.1c0,0,0,0,0,0c0-0.1-0.1-0.1-0.1-0.2
			c0,0,0,0,0-0.1c0,0.1,0,0-0.1,0c0-0.1,0-0.1,0-0.1v0.1c0,0,0-0.1,0-0.1c0,0,0,0.1,0,0c0-0.1,0-0.2,0-0.3c0,0,0,0,0.1,0
			c0-0.1,0-0.1,0-0.2c0,0,0,0-0.1,0l0,0.2l0-0.1c0,0.1,0,0.1,0,0.2c0-0.1,0-0.1,0,0c0-0.1,0-0.2,0-0.3l0.1,0c0-0.1,0-0.2,0-0.4
			l0,0.1c0,0,0-0.1,0-0.2c0,0,0,0,0.1-0.1c0,0,0-0.1-0.1-0.1l0-0.1c0-0.1-0.1-0.2-0.1-0.3c0,0,0,0,0.1,0.1c0,0,0-0.1,0-0.1
			c0,0,0-0.1,0-0.2c0,0,0,0,0-0.1c0,0,0,0,0,0c0,0,0-0.1-0.1,0c0.1-0.1,0-0.4,0.1-0.5c0-0.1,0-0.2,0-0.3c0,0,0,0,0,0
			c0-0.1-0.1-0.1-0.1-0.2c0-0.1,0,0.1,0,0c0.1,0,0-0.2,0-0.3l0,0c0-0.1,0-0.2,0-0.3c0,0,0,0,0,0c0-0.1-0.1-0.2-0.1-0.4
			c0,0,0,0.1,0.1,0c0,0-0.1,0-0.1-0.1c0,0,0-0.1,0.1-0.1v0.1c0-0.1,0-0.1,0-0.2l0,0c0-0.1-0.1-0.1-0.1-0.3l0,0c-0.1-0.1,0-0.1,0-0.2
			l0.1,0c0-0.1-0.1,2.6-0.1,2.5c0,0.1,0.1-2.6,0.1-2.5c0-0.1,0,2.6,0,2.6c0,0,0-2.7,0-2.7c0-0.1-0.1,2.6-0.1,2.5
			c0.1,0,0-0.3,0.1-0.4c0-0.2,0-0.4,0-0.6c-0.1,0.1,0-0.1-0.1-0.1c0-0.1,0-0.1,0-0.1l0-0.2c0,0,0,0.1,0,0c0-0.1,0-0.1,0.1-0.1
			c0,0-0.1,0,0-0.1l0,0.1c0-0.2,0.1-0.1,0-0.3l0,0.1c0-0.1,0-0.3-0.1-0.4c0,0,0,0,0,0c0-0.2-0.1-0.5-0.1-0.6l0,0c0,0,0-0.1,0-0.1
			c0,0,0,0,0,0c0,0,0-0.1,0-0.2l0,0c0-0.2-0.1-0.3-0.1-0.5c0.1,0,0.1-0.2,0.1-0.2h0c0-0.2-0.1-0.4-0.1-0.6c0.1-0.1,0-0.5,0-0.7
			c0,0-0.1,0-0.1,0c0-0.1-0.1-0.1,0-0.1v0c0.1,0,0-0.1,0-0.2l-0.1,0c0.1-0.2-0.1-0.6,0-0.7c0-0.1,0-0.1,0-0.2l0,0c0-0.1,0-0.2,0-0.4
			l0,0c0-0.1-0.1-0.1-0.1-0.2l0.1,0c0-0.2,0-0.4,0-0.5c0,0,0,0,0,0c0-0.1,0-0.3-0.1-0.3c0.1,0,0-0.2,0-0.3l0,0
			c-0.1-0.1-0.1-0.1-0.1-0.2c0,0,0,0,0,0c0-0.1,0-0.1,0-0.2l0,0c0-0.1,0-0.1,0-0.1c0-0.1,0-0.2,0-0.2c0,0-0.1-0.1,0-0.1c0,0,0,0,0,0
			c0-0.2,0-0.2,0-0.3c0,0,0,0,0,0c0,0.1,0,0.2,0,0.2c0,0,0-0.1,0.1,0c0-0.1-0.1-0.2-0.1-0.3c0,0,0,0,0,0v0c0,0,0,0,0-0.1
			c0,0,0-0.1,0-0.1c0,0,0-0.1,0-0.2c0,0,0-0.1-0.1,0c0,0,0,0,0,0c0,0,0,0,0,0l0,0c0,0,0,0.1,0,0.1c0,0,0-0.1,0-0.1
			c0,0-0.1-0.1-0.1-0.1c0.1-0.1,0.1-0.2,0.1-0.2c0-0.1,0-0.3-0.1-0.4c0,0,0,0,0-0.1c0,0,0,0.1,0,0.1c0-0.1,0-0.2-0.1-0.3
			c0-0.1,0,0.1,0-0.1l0,0c0.1-0.3-0.2-0.5-0.1-0.8c0,0,0,0,0,0c0-0.4-0.1-0.7,0-1.1c0-0.1,0-0.1,0-0.2l0,0l-0.1-0.1
			c0-0.1,0.1-0.3,0-0.5l0,0c0-0.1,0-0.2,0-0.2c0,0,0,0,0,0l0,0l0-0.2c0-0.1,0.1,0,0.1-0.2c0-0.1-0.1-0.2-0.1-0.2c0,0,0,0.1,0,0.1
			l0-0.1c-0.1,0-0.1-0.1-0.2,0.1l0,0.1l0,0l0-0.1c0,0.1,0,0.1,0,0.1c0,0,0,0,0,0L47.3,8c0,0-0.1,0-0.1,0c0,0.1,0,0,0.1,0
			c0,0.1-0.1,0,0,0.1c0,0,0,0,0,0c0,0.1,0,0.1,0,0.2c0,0.1,0,0.2,0,0.2c0,0,0,0.1,0.1,0.2c-0.1-0.1,0,0.2-0.1,0.2
			c0.1,0.1,0,0.2,0.1,0.4c0,0,0,0,0,0c0,0.1,0,0.1,0,0.1c0.1,0,0.1,0.1,0.1,0.2c-0.1,0.1-0.1,0-0.1,0c0,0,0,0.1,0.1,0.1
			c0,0.1,0,0.1-0.1,0.1C47.3,9.6,47.3,9.7,47.2,9.8C47.3,9.8,47.2,9.8,47.2,9.8C47.2,9.9,47.2,9.8,47.2,9.8 M47.4,12.2L47.4,12.2
			C47.4,12.2,47.4,12.2,47.4,12.2C47.4,12.2,47.4,12.2,47.4,12.2 M47.4,12.4C47.4,12.4,47.4,12.4,47.4,12.4
			C47.5,12.3,47.5,12.4,47.4,12.4C47.5,12.4,47.5,12.4,47.4,12.4 M47.7,12C47.7,12,47.7,12,47.7,12C47.7,12,47.7,12,47.7,12
			C47.7,12,47.7,12,47.7,12C47.7,12,47.7,12,47.7,12"/>
		<path class="st3" d="M63.3,9.3C63.3,9.4,63.4,9.3,63.3,9.3c0.1,0.2,0,0.1,0,0.2c0,0.1,0.1,0.1,0.1,0.2c0,0,0,0,0,0
			c0,0.1,0,0.3,0,0.4c0,0,0,0,0,0c0,0,0.1,0,0.1,0c0,0,0,0.1,0,0.1c0,0,0,0,0,0l0,0c0,0,0-0.1-0.1-0.1c0,0.1,0.1,0.2,0,0.3
			c0,0,0-0.2-0.1-0.1l0-0.1c-0.1,0.1,0-0.1-0.1,0c0,0.2,0,0.2,0,0.3c0,0,0,0,0.1,0c0,0.2-0.1,0.2-0.1,0.3c0,0,0.1,0.1,0.1,0.2
			l-0.1,0c0,0.1,0.1,0.1,0,0.2c0,0,0-0.1,0-0.1c-0.1,0.1,0,0.1,0,0.2l-0.1,0c0,0.2,0,0.3,0,0.5c0,0,0,0,0,0c0,0.2,0,0.5-0.1,0.7
			l0,0.1c0,0,0,0,0,0c0,0.1,0,0,0,0c0,0,0,0.1,0,0c0,0.1,0.1,0.4,0,0.6v0c0,0.1,0.1,0.1,0,0.3l0,0c0,0.3,0,0.6-0.1,0.8
			c0.1,0,0,0.3,0,0.3c-0.1,0.1-0.1,0.1-0.1,0.3c0,0.1,0.1,0.1,0.1,0.2h0l0,0.1l-0.1,0l0,0.1c0,0,0-0.1,0,0c0,0.1,0,0.2-0.1,0.2
			l0,0.2c0,0,0,0,0-0.1c0,0.1-0.1,0,0,0.1c0,0,0,0,0,0c0,0.1,0,0.2,0,0.3l0,0c0,0.2,0,0.4,0,0.6c0-0.1,0.1-0.1,0.1,0l-0.1,0
			c0,0,0-0.1,0.1,0c0,0.1-0.1,0-0.1,0l0,0.1c0,0,0,0,0,0c0,0-0.1,0.2,0,0.2l0,0c0,0.2,0,0.3,0,0.5c0,0,0,0.1,0.1,0.1
			c0,0.1-0.1,0.3-0.1,0.4c0,0.1,0,0,0.1,0.1c0,0,0,0.2-0.1,0.1c0,0.2,0,0.2,0,0.4c0,0,0-0.1,0,0c0,0,0,0.1,0,0.1l0,0
			c0.1,0.2-0.1,0.6-0.1,0.8l0,0l0,0.2c0,0.1,0-0.1,0,0c0.1,0.2,0,0.3,0,0.5c-0.1,0.1,0,0.5-0.1,0.7l0,0c0,0.1,0,0.1,0,0.1
			c0,0,0-0.1,0,0c0,0.4,0-1.9-0.1-1.5c0,0.2,0.1,0.1,0.1,0.3l0-0.1c0.1,0.3,0,0.6,0,1c0,0,0,0,0,0c0,0.1,0,0.2,0,0.2c0,0,0,0,0,0
			c0,0.1,0,0.2,0,0.2c0,0,0,0,0,0c0,0,0,0.2,0,0.2c0,0.1,0,0.2,0,0.3c0,0.1,0,0.2,0,0.2c-0.1,0-0.1,0.2,0,0.3c0,0,0,0.1,0,0
			c0,0.1,0,0.2,0,0.1c-0.1,0.2,0.1,0.3,0,0.4c0,0.3,0.1,0.5,0.1,0.7c-0.1,0,0-0.2-0.1-0.2c0,0.2,0.1,0.3,0.1,0.5c0,0.1,0,0,0,0
			c0,0.2,0,0.4,0,0.6c0,0,0,0,0,0c0,0,0,0.1,0,0.1l0,0c0-0.1,0.1,0.1,0.1,0.2c-0.1-0.1,0,0.2-0.2,0.1c0,0,0,0.1,0,0c0,0,0,0.1,0,0
			c0,0.1,0.1,0.1,0.1,0.2c0,0,0,0,0,0c0,0.1,0.1,0.1,0,0.2c0,0,0,0,0,0c0,0.2,0.1,0.3,0.1,0.5c-0.1-0.1,0,0.1-0.1,0.1l0,0.1l0,0
			c0,0.1,0,0.2,0,0.2l0-0.1v0.2l0-0.1c0,0.1,0.1,0,0.1,0.1c0,0,0,0.1,0,0.1l0,0c0,0,0,0.1,0,0.2c0,0-0.1,0-0.1,0c0,0,0,0.2,0.1,0.3
			c0,0,0,0-0.1,0l0,0c0,0,0,0,0,0c0,0.1,0.1,0,0,0.1c0,0,0,0,0,0c0,0.2,0,0.3,0,0.4c-0.1,0,0-0.1-0.1-0.1c0,0.2,0.1,0.4,0.1,0.6l0,0
			c0.1,0,0,0.1,0,0.2c0,0,0,0,0,0c0,0.1,0,0.3,0,0.5l0,0c0,0.1,0,0.2,0,0.3c0,0,0,0.1,0,0c-0.1,0.3,0.1,0.5,0,0.7c0,0,0-0.1,0,0
			l0,0.2c0,0,0,0,0-0.1c0,0,0,0.1,0,0.1c0-0.1-0.1,0-0.1,0c0,0,0,0,0,0c-0.1,0.1,0.1,0,0,0.2l0,0c0,0.1,0,0.1,0,0.2c0,0,0-0.1,0-0.1
			c0,0.1,0.1,0.2,0,0.2c0,0,0-0.1,0-0.1c0,0.1,0,0.1,0,0.1v0l0,0.1l0,0c0.1,0.1,0,0.2,0.1,0.3c-0.1-0.1,0,0-0.1,0c0,0,0,0.1,0,0.1
			c0,0.1,0,0.1,0,0.2c0,0,0,0.1,0,0.1c0,0.1,0,0,0,0c0.1,0.1-0.1,0.3,0,0.5c0,0.2,0.1,0.2,0.1,0.3c0,0-0.1,0-0.1,0
			c0,0.1,0,0.1,0,0.2c0,0,0,0,0,0c0,0.1,0.1,0,0,0.1c0,0,0,0-0.1-0.1c0,0.1,0,0.1,0.1,0.2c0,0,0,0-0.1-0.1c0,0.1,0,0.2,0.1,0.2
			l0-0.1c0,0,0,0,0,0c0-0.1,0-0.1,0-0.1v0.1c0.1-0.1,0-0.2,0-0.3l0.1,0l0-0.1c0,0,0,0,0.1,0c0-0.1,0-0.1,0-0.1c0,0,0,0,0,0l0-0.1
			c0,0,0,0,0,0c0-0.1,0-0.2,0-0.3l0,0c0-0.2,0,0-0.1-0.2l0.1-0.1l0,0c0,0,0-0.1,0,0c0-0.1,0,0-0.1,0c0-0.1,0-0.3,0.1-0.3
			c0,0,0,0.1-0.1,0c0.1,0,0-0.1,0-0.2c0,0,0,0.1,0.1,0c-0.1,0,0-0.2,0-0.2c-0.1,0,0-0.2,0-0.3c0,0,0-0.2,0-0.3l0,0
			c-0.1,0,0-0.1-0.1-0.2c0,0,0,0,0.1,0.1v-0.1c0,0,0,0,0-0.1l0,0c0-0.1,0-0.2,0-0.3c0,0-0.1,0.1-0.1,0c0,0,0.1,0,0.1,0
			c0,0,0,0,0-0.1l0,0.1c0-0.1,0,0,0-0.1c0,0,0,0,0,0c0,0,0,0,0,0.1c0-0.1,0-0.1,0-0.1c0,0,0,0,0,0c0-0.1,0,0,0-0.1c0,0,0-0.1,0-0.1
			c0,0,0,0,0,0c0-0.1,0-0.3,0-0.2l0,0c0,0,0,0,0,0l0,0l0,0c0-0.2,0-0.4,0-0.5h0c0-0.1,0-0.2,0-0.3c0,0,0-0.1,0-0.1
			c0-0.1,0-0.1,0-0.2c0,0.1,0,0,0,0.1c0-0.1,0-0.1,0-0.2c0,0,0-0.1,0-0.1l0,0.1c0-0.1,0-0.1,0-0.2l0.1,0c0.1-0.2-0.1-0.4,0-0.5
			c0-0.1,0,0.1-0.1,0.1c0-0.1,0.1-0.2,0.1-0.2c0-0.1-0.1-0.1,0-0.3c0,0-0.1,0-0.1-0.1c0-0.1,0.1-0.1,0.1-0.1c0,0,0,0,0,0
			c0,0,0,0.1,0,0l0,0c0,0,0-0.2,0.1-0.2c0-0.1,0,0,0,0c0-0.1,0-0.2,0-0.3c0,0,0,0,0,0c0-0.2,0-0.1,0-0.2c0-0.1,0.1,0,0-0.1
			c0-0.1,0,0,0.1,0c0-0.1,0-0.2,0-0.3l0,0.1c0,0,0-0.1,0-0.1l0,0c0,0,0-0.1,0-0.1c0,0-0.1,0-0.1,0c0,0,0-0.1,0-0.2
			c0,0.1,0,0,0.1,0.1c0,0,0-0.1,0-0.1c0,0,0,0,0,0c0-0.1-0.1-0.1-0.1-0.2c0,0,0.1,0,0-0.1c0,0.1,0,0-0.1,0c0-0.1,0-0.1,0-0.2V24
			c0,0,0-0.1,0-0.1c0,0,0,0.1,0,0c0-0.1,0.1-0.2,0-0.3c0,0,0.1,0,0.1,0c0-0.1,0-0.1,0-0.2c0,0,0,0-0.1,0l0,0.2l-0.1-0.1
			c0,0.1,0,0.1,0,0.2c0-0.1,0-0.1,0,0c0-0.1,0-0.2,0-0.3l0.1,0c0-0.1,0-0.3,0-0.4l0,0.1c0,0,0-0.1,0-0.2c0,0,0,0,0.1-0.1
			c0,0,0-0.1-0.1-0.2l0-0.1c0-0.2-0.1-0.2-0.1-0.3c0,0,0,0,0.1,0.1c0,0,0-0.1,0-0.1c0,0,0-0.1,0-0.2c0,0,0,0,0-0.1c0,0,0,0,0,0
			c0,0,0-0.1-0.1,0c0.1-0.1,0-0.4,0.1-0.5c0-0.1,0-0.2,0-0.3c0,0,0,0,0,0c0-0.1-0.1-0.1-0.1-0.2c0-0.1,0,0.1,0,0c0.1,0,0-0.2,0-0.3
			v0c0-0.1,0-0.2,0-0.3c0,0,0,0,0,0c0-0.1-0.1-0.3-0.1-0.4c0,0,0,0.1,0.1,0c0-0.1-0.1,0-0.1-0.1c0,0,0-0.1,0.1-0.1v0.1
			c0.1-0.1,0-0.1,0-0.2l0,0c0-0.2-0.1-0.2-0.1-0.3l0,0c-0.1-0.1,0-0.1,0-0.2l0.1,0c0-0.1-0.1,2.6-0.1,2.5c0,0.1,0.1-2.6,0.1-2.5
			c0-0.1,0,2.6,0,2.5c0,0,0-2.7,0-2.7c0-0.1-0.1,2.6-0.1,2.5c0.1,0,0-0.3,0.1-0.4c0-0.2,0-0.4,0-0.7c-0.1,0.1,0-0.1-0.1-0.1
			c0-0.1,0-0.1,0-0.1l0.1-0.2c0,0,0,0.1,0,0.1c0-0.1,0-0.1,0.1-0.1c0,0,0,0,0-0.1l0,0.1c0-0.2,0.1-0.1,0-0.3l0,0.1
			c0-0.1,0-0.3-0.1-0.4c0,0,0,0,0,0c0-0.2-0.1-0.5,0-0.7l0,0c0,0,0-0.1,0-0.1c0,0,0,0,0,0c0,0,0-0.1,0-0.2l0,0
			c0-0.2-0.1-0.3-0.1-0.5c0.1,0,0.1-0.2,0.1-0.2l0,0c0-0.3,0-0.4-0.1-0.7c0.1-0.1,0.1-0.5,0.1-0.7c0,0-0.1,0-0.1-0.1
			c0,0,0-0.1,0-0.1v0c0.1,0,0.1-0.2,0.1-0.2l-0.1,0c0.1-0.2,0-0.6,0.1-0.7c0-0.1,0-0.1,0-0.2l0,0c0-0.1,0-0.2,0-0.4l0,0
			c0-0.1-0.1-0.1-0.1-0.2l0.1,0c0-0.2,0.1-0.4,0-0.5c0,0,0,0,0,0c0-0.1,0.1-0.3,0-0.3c0.1,0,0-0.2,0-0.3l0,0c0-0.1-0.1-0.1-0.1-0.2
			c0,0,0,0,0,0c0-0.1,0-0.1,0-0.2l0,0c0-0.1,0-0.1,0-0.1c0-0.1,0-0.2,0-0.2c0,0,0-0.1,0-0.1c0,0,0,0,0,0c0-0.2,0-0.2,0-0.3
			c0,0,0,0,0,0c0,0.1,0,0.2,0,0.2c0,0,0-0.1,0.1,0c0-0.1-0.1-0.2-0.1-0.3c0,0,0,0,0,0v0c0,0,0,0,0-0.1c0,0,0-0.1,0-0.1
			c0,0,0-0.1,0-0.2c0,0,0-0.1-0.1,0c0,0,0,0,0,0c0,0,0,0,0,0h0c0,0,0,0.1,0,0.1c0,0,0-0.1,0-0.1c0,0,0-0.1-0.1-0.1
			c0.1-0.1,0.1-0.2,0.1-0.2c0-0.2,0-0.4-0.1-0.5c0,0,0,0,0-0.1c0,0,0,0.1,0,0.1c0-0.1,0-0.3,0-0.3c0-0.1,0,0.1,0-0.1l0,0
			c0.1-0.3-0.1-0.5,0-0.8c0,0,0,0,0,0c0.1-0.4,0-0.8,0.1-1.2c0-0.1,0-0.1,0-0.2l0,0l0-0.1c0-0.2,0.1-0.3,0-0.5l0,0
			c0-0.1,0-0.2,0-0.2c0,0,0,0,0-0.1h0l0-0.2c0-0.1,0.1,0,0.1-0.2c0-0.1-0.1-0.2-0.1-0.2c0,0,0,0.1,0,0.1l0-0.1
			c-0.1,0-0.2-0.1-0.2,0.1l0,0.1l0,0V7.1c0,0.1,0,0.1,0,0.1c0,0,0,0,0,0l0.1,0.1c0,0-0.1-0.1-0.1,0c0,0.1,0.1-0.1,0.1,0
			c0,0.1-0.1,0,0,0.1c0,0,0,0,0,0c0,0.1,0,0.1,0,0.2c0,0.1,0,0.2-0.1,0.2c0,0,0,0.1,0,0.2c-0.1-0.1,0,0.2-0.1,0.2
			c0.1,0.1,0,0.3,0.1,0.4c0,0,0,0,0,0c0,0.1,0,0.1,0,0.1c0.1,0,0.1,0.1,0.1,0.2c-0.1,0.1-0.1-0.1-0.1,0c0.1,0,0,0.2,0.1,0.1
			c0,0.1,0,0.1-0.1,0.1c0.1,0,0,0.1,0.1,0.1C63.4,9.3,63.4,9.2,63.3,9.3C63.4,9.4,63.3,9.3,63.3,9.3 M63.4,11.8L63.4,11.8
			C63.4,11.8,63.4,11.8,63.4,11.8C63.4,11.8,63.4,11.8,63.4,11.8 M63.4,12C63.4,12,63.4,12,63.4,12C63.4,11.9,63.4,11.9,63.4,12
			C63.4,11.9,63.4,12,63.4,12 M63.7,11.6C63.7,11.6,63.7,11.6,63.7,11.6C63.7,11.6,63.7,11.6,63.7,11.6L63.7,11.6
			C63.7,11.6,63.7,11.6,63.7,11.6"/>
		<g>
			<path class="st3" d="M17.3,12.6C17.3,12.6,17.3,12.5,17.3,12.6C17.3,12.5,17.3,12.5,17.3,12.6c0.1,0,0.1-0.1,0.2-0.1c0,0,0,0,0,0
				c0,0,0.1,0,0.1-0.1c0,0,0,0,0,0c0,0,0-0.1,0-0.1c0,0,0,0,0,0c0,0,0,0,0,0l0,0c0,0,0,0,0,0.1c0,0,0.1-0.1,0.1,0c0,0-0.1,0,0,0.1
				l0,0c0,0.1,0,0,0,0.1c0.1,0,0.1,0,0.1,0c0,0,0,0,0-0.1c0.1,0,0.1,0.1,0.1,0.1c0,0,0-0.1,0.1-0.1l0,0.1c0.1,0,0-0.1,0.1,0
				c0,0,0,0,0,0c0,0,0,0,0.1,0l0,0c0.1,0,0.1,0,0.2-0.1c0,0,0,0,0,0c0.1,0,0.2,0,0.3,0l0,0c0,0,0,0,0,0c0,0,0,0,0,0c0,0,0,0,0,0
				c0.1,0,0.2-0.1,0.2,0l0,0c0,0,0.1-0.1,0.1,0v0c0.1,0,0.2,0,0.3,0c0-0.1,0.1,0,0.1-0.1c0.1,0,0,0.1,0.1,0.1c0,0,0-0.1,0.1-0.1l0,0
				l0,0l0,0.1l0,0c0,0,0,0,0,0c0,0,0.1,0,0.1,0.1l0.1,0c0,0,0,0,0,0c0.1,0,0,0,0.1,0c0,0,0,0,0,0c0,0,0.1,0,0.1,0l0,0
				c0.1,0,0.2,0,0.2,0c0,0,0-0.1,0-0.1l0,0c0,0,0,0,0-0.1c0,0,0,0.1,0,0.1l0,0c0,0,0,0,0,0c0,0,0.1,0,0.1,0l0,0c0.1,0,0.1,0,0.2,0
				c0,0,0,0,0-0.1c0,0,0.1,0,0.2,0c0,0,0,0,0-0.1c0,0,0.1,0,0,0.1c0.1,0,0.1,0,0.2,0c0,0,0,0,0,0c0,0,0,0,0,0l0,0
				c0.1-0.1,0.2,0.1,0.3,0l0,0l0.1,0c0,0,0,0,0,0.1c0.1-0.1,0.1,0,0.2,0c0.1,0.1,0.2,0,0.3,0.1v0c0,0,0,0,0,0c0,0,0,0,0,0
				c0.2,0,0.3,0,0.5,0.1c0.1,0,0-0.1,0.1-0.1l0,0.1c0.1-0.1,0.3,0,0.4-0.1c0,0,0,0,0,0c0,0,0.1,0,0.1,0c0,0,0,0,0,0c0,0,0.1,0,0.1,0
				c0,0,0,0,0,0c0,0,0.1,0,0.1,0c0.1,0,0.1,0,0.1,0c0,0,0.1,0,0.1,0c0,0.1,0.1,0.1,0.1,0c0,0,0,0,0,0c0,0,0.1,0,0.1,0
				c0.1,0.1,0.1-0.1,0.2,0c0.1,0,0.2-0.1,0.3-0.1c0,0.1-0.1,0-0.1,0.1c0.1,0,0.1-0.1,0.2-0.1c0,0,0,0,0,0c0.1,0,0.2,0,0.2,0
				c0,0,0,0,0,0c0,0,0,0,0,0l0,0c0,0,0.1-0.1,0.1-0.1c0,0.1,0.1,0,0,0.1c0,0,0,0,0,0c0,0,0,0,0,0c0.1,0,0,0,0.1,0c0,0,0,0,0,0
				c0,0,0-0.1,0.1,0c0,0,0,0,0,0c0.1,0,0.1-0.1,0.2,0c0,0.1,0,0,0,0.1l0,0l0,0c0,0,0.1,0,0.1,0l0,0l0.1,0l0,0c0,0,0-0.1,0-0.1
				c0,0,0,0,0.1,0l0,0c0,0,0,0,0.1,0c0,0,0,0.1,0,0.1c0,0,0.1,0,0.1-0.1c0,0,0,0,0,0l0,0c0,0,0,0,0,0c0.1,0,0-0.1,0,0c0,0,0,0,0,0
				c0.1,0,0.1,0,0.2,0c0,0,0,0,0,0.1c0.1,0,0.2-0.1,0.3-0.1h0c0-0.1,0,0,0.1,0c0,0,0,0,0,0c0.1,0,0.1,0,0.2,0l0,0c0,0,0.1,0,0.1,0
				c0,0,0,0,0,0c0.1,0.1,0.2-0.1,0.3,0c0,0,0,0,0,0l0.1,0c0,0,0,0,0,0c0,0,0,0,0,0c0,0,0,0.1,0,0.1c0,0,0,0,0,0c0,0.1,0-0.1,0.1,0v0
				c0,0,0,0,0.1,0c0,0,0,0,0,0.1c0,0,0.1-0.1,0.1,0c0,0,0,0,0,0c0,0,0,0,0.1,0v0l0,0v0c0-0.1,0.1,0,0.1-0.1c0,0.1,0,0,0,0.1
				c0,0,0,0,0,0c0,0,0,0,0.1,0c0,0,0,0,0,0c0,0,0,0,0,0c0,0,0.1,0.1,0.2,0c0.1,0,0.1-0.1,0.1-0.1c0,0,0,0.1,0,0.1c0,0,0.1,0,0.1,0
				c0,0,0,0,0,0c0,0,0,0,0,0c0,0,0,0,0,0.1c0,0,0.1,0,0.1,0c0,0,0,0,0,0c0,0,0.1,0,0.1-0.1l0,0c0,0,0,0,0,0c0,0,0,0,0,0l0,0
				c0-0.1-0.1,0-0.1,0l0-0.1l0,0.1c0,0,0,0,0-0.1c0,0,0,0-0.1,0c0,0,0,0,0,0l0,0c0,0,0,0,0,0c-0.1,0-0.1,0-0.1,0v0
				c-0.1,0,0,0-0.1,0.1l0-0.1l0,0c0,0,0,0,0,0c0,0,0,0,0,0c0,0-0.1,0-0.1-0.1c0,0,0,0,0,0c0-0.1,0,0-0.1,0c0,0,0,0,0-0.1
				c0,0.1-0.1,0-0.1,0c0,0.1-0.1,0-0.1,0c0,0-0.1,0-0.1,0v0c0,0.1-0.1,0-0.1,0.1c0,0,0,0,0-0.1h0c0,0,0,0,0,0l0,0c0,0-0.1,0-0.1,0
				c0,0,0,0.1,0,0.1c0,0,0-0.1,0-0.1c0,0,0,0,0,0l0,0c0,0,0,0,0,0c0,0,0,0,0,0c0,0,0,0,0,0c0,0,0,0,0,0c0,0,0,0,0,0c0,0,0,0,0,0
				c0,0,0,0,0,0c0,0,0,0,0,0c0,0-0.1,0-0.1,0v0l0,0l0,0l0,0c-0.1,0-0.1,0-0.2,0v0c0,0-0.1,0-0.1,0c0,0,0,0,0,0c0,0,0,0-0.1,0
				c0,0,0,0,0,0c0,0,0,0-0.1,0c0,0,0,0,0,0l0,0c0,0,0,0-0.1,0l0,0c-0.1-0.1-0.2,0.1-0.2,0c0,0,0,0,0,0.1c0,0-0.1-0.1-0.1-0.1
				c0,0,0,0.1-0.1,0.1c0,0,0,0.1,0,0.1c0,0,0-0.1,0-0.1c0,0,0,0,0,0c0,0,0,0,0,0v0c0,0-0.1,0-0.1,0c0,0,0,0,0,0c0,0-0.1,0-0.1,0
				c0,0,0,0,0,0c-0.1,0,0,0-0.1,0c0,0,0-0.1,0,0c0,0,0,0,0-0.1c0,0-0.1,0-0.1,0l0,0c0,0,0,0,0,0l0,0c0,0,0,0,0,0c0,0,0,0.1,0,0.1
				c0,0,0,0-0.1,0c0.1,0,0,0,0,0c0,0,0,0,0,0c0,0,0,0,0,0c-0.1,0,0,0-0.1,0c0,0,0,0,0,0c0,0,0,0,0,0.1c0,0,0,0-0.1,0l0,0
				c0,0,0,0-0.1,0c0,0,0,0,0,0c0,0-0.1,0-0.1,0c0,0,0,0,0-0.1c0,0,0,0-0.1,0c0,0,0,0,0,0.1l0.1,0l-0.1,0c0,0,0.1,0,0.1,0
				c0,0,0,0,0,0.1c0-0.1-0.1,0-0.1,0v-0.1c0,0-0.1,0-0.2,0l0,0c0,0,0,0-0.1,0c0,0,0,0,0-0.1c0,0-0.1,0-0.1,0.1l0,0
				c-0.1,0-0.1,0.1-0.1,0.1c0,0,0-0.1,0-0.1c0,0,0,0,0,0c0,0,0,0-0.1,0c0,0,0,0,0,0c0,0,0,0,0,0c0,0,0,0,0,0c-0.1-0.1-0.2,0-0.2-0.1
				c0,0-0.1,0-0.1,0c0,0,0,0,0,0c0,0,0,0.1-0.1,0c0,0,0,0,0,0c0-0.1-0.1,0-0.1,0l0,0c0,0-0.1,0-0.1,0c0,0,0,0,0,0
				c0,0-0.1,0.1-0.2,0.1c0,0,0,0,0-0.1c0,0,0,0.1,0,0.1c0,0,0,0-0.1-0.1h0c0-0.1,0,0-0.1,0l0,0c-0.1,0-0.1,0.1-0.1,0.1l0,0
				c-0.1,0.1,0,0-0.1,0l0-0.1c0,0-0.1,0.1-0.1,0.1c0,0,0.1-0.1,0.1-0.1c0,0-0.1,0-0.1,0c0,0,0,0,0,0c0,0-0.1,0.1-0.1,0.1
				c0-0.1-0.1,0-0.2-0.1c-0.1,0-0.2,0-0.3,0c0,0.1,0,0,0,0.1c0,0,0,0,0,0l-0.1-0.1c0,0,0,0,0,0c0,0,0,0,0-0.1c0,0,0,0,0,0l0,0
				c-0.1,0-0.1-0.1-0.1,0l0,0c0,0-0.1,0-0.2,0.1c0,0,0,0,0,0c-0.1,0-0.2,0.1-0.3,0l0,0c0,0,0,0-0.1,0c0,0,0,0,0,0c0,0,0,0-0.1,0l0,0
				c-0.1,0-0.1,0.1-0.2,0.1c0-0.1-0.1-0.1-0.1-0.1l0,0c-0.1,0-0.2,0-0.3,0.1c-0.1-0.1-0.2,0-0.3-0.1c0,0,0,0,0,0.1c0,0-0.1,0-0.1,0
				h0c0-0.1-0.1,0-0.1,0v0.1c-0.1-0.1-0.2,0-0.3-0.1c0,0,0,0-0.1,0v0c-0.1,0-0.1,0-0.2,0l0,0c0,0-0.1,0.1-0.1,0.1l0-0.1
				c-0.1,0-0.1-0.1-0.2,0c0,0,0,0,0,0c0,0-0.1,0-0.1,0c0,0-0.1,0-0.1,0l0,0c0,0.1,0,0.1-0.1,0.1c0,0,0,0,0,0c0,0,0,0-0.1,0l0,0
				c0,0,0,0-0.1,0c0,0-0.1,0-0.1,0c0,0,0,0.1-0.1,0c0,0,0,0,0,0c-0.1,0-0.1,0-0.1,0c0,0,0,0,0,0c0,0,0.1,0,0.1,0c0,0,0,0,0-0.1
				c0,0-0.1,0.1-0.1,0.1c0,0,0,0,0,0v0c0,0,0,0,0,0c0,0,0,0,0,0c0,0,0,0-0.1,0c0,0,0,0,0,0.1c0,0,0,0,0,0c0,0,0,0,0,0l0,0
				c0,0,0,0,0.1,0c0,0,0,0-0.1,0c0,0,0,0.1,0,0.1c0-0.1-0.1-0.1-0.1-0.1c-0.1,0-0.2,0-0.2,0.1c0,0,0,0,0,0c0,0,0,0,0,0
				c0,0-0.1,0-0.1,0.1c0,0,0-0.1,0,0l0,0c-0.1-0.1-0.2,0.1-0.3,0c0,0,0,0,0,0c-0.2,0-0.3,0-0.5,0c0,0-0.1,0-0.1,0l0,0l0,0
				c-0.1,0-0.1-0.1-0.2,0l0,0c0,0-0.1,0-0.1,0c0,0,0,0,0,0v0l-0.1,0c-0.1,0,0-0.1-0.1-0.1c0,0-0.1,0.1-0.1,0.1c0,0,0,0,0,0l0,0
				c0,0.1,0,0.1,0.1,0.2l0,0l0,0l0,0c0,0,0,0,0,0c0,0,0,0,0,0l0-0.1c0,0,0,0.1,0,0.1c0,0,0-0.1,0-0.1c0,0,0,0.1,0,0c0,0,0,0,0,0
				c0,0,0.1,0,0.1,0c0,0,0.1,0,0.1,0c0,0,0,0,0.1,0c0,0.1,0.1,0,0.1,0.1c0-0.1,0.1,0,0.2-0.1c0,0,0,0,0,0c0,0,0.1,0,0.1,0
				c0-0.1,0.1-0.1,0.1-0.1c0,0.1,0,0.1,0,0.1c0,0,0.1,0,0-0.1C17.2,12.5,17.1,12.5,17.3,12.6C17.2,12.4,17.2,12.5,17.3,12.6
				C17.3,12.5,17.2,12.5,17.3,12.6C17.3,12.5,17.3,12.6,17.3,12.6 M18.3,12.4L18.3,12.4C18.3,12.4,18.3,12.4,18.3,12.4
				C18.3,12.4,18.3,12.4,18.3,12.4 M18.4,12.4C18.4,12.4,18.4,12.4,18.4,12.4C18.4,12.4,18.4,12.4,18.4,12.4
				C18.4,12.4,18.4,12.4,18.4,12.4 M18.2,12.2C18.2,12.1,18.2,12.2,18.2,12.2C18.2,12.2,18.2,12.2,18.2,12.2L18.2,12.2
				C18.2,12.2,18.2,12.2,18.2,12.2"/>
			<path class="st3" d="M36.7,12.6C36.7,12.6,36.7,12.5,36.7,12.6C36.7,12.5,36.7,12.5,36.7,12.6c0.1,0,0.1-0.1,0.1-0.1c0,0,0,0,0,0
				c0,0,0.1,0,0.1-0.1c0,0,0,0,0,0c0,0,0-0.1,0-0.1c0,0,0,0,0,0c0,0,0,0,0,0l0,0c0,0,0,0,0,0.1c0,0,0.1-0.1,0.1,0c0,0,0,0,0,0.1l0,0
				c0,0.1,0,0,0,0.1c0,0,0,0,0.1,0c0,0,0,0,0-0.1c0.1,0,0,0.1,0.1,0.1c0,0,0-0.1,0-0.1l0,0.1c0,0,0-0.1,0.1,0c0,0,0,0,0,0
				c0,0,0,0,0,0l0,0c0,0,0.1,0,0.1-0.1c0,0,0,0,0,0c0.1,0,0.1,0,0.2,0l0,0c0,0,0,0,0,0c0,0,0,0,0,0c0,0,0,0,0,0c0,0,0.1-0.1,0.2,0
				l0,0c0,0,0-0.1,0.1,0l0,0c0.1,0,0.1,0,0.2,0c0-0.1,0.1,0,0.1-0.1c0,0,0,0.1,0.1,0.1c0,0,0-0.1,0-0.1v0l0,0l0,0.1l0,0c0,0,0,0,0,0
				c0,0,0.1,0,0.1,0.1l0.1,0c0,0,0,0,0,0c0,0,0,0,0,0c0,0,0,0,0,0c0,0,0.1,0,0.1,0l0,0c0,0,0.1,0,0.2,0c0,0,0-0.1,0-0.1l0,0
				c0,0,0,0,0-0.1c0,0,0,0.1,0,0.1l0,0c0,0,0,0,0,0c0,0,0,0,0,0v0c0.1,0,0.1,0,0.1,0c0,0,0,0,0-0.1c0,0,0.1,0,0.1,0c0,0,0,0,0-0.1
				c0,0,0,0,0,0.1c0,0,0.1,0,0.1,0c0,0,0,0,0,0c0,0,0,0,0,0l0,0c0.1-0.1,0.2,0.1,0.2,0v0l0.1,0c0,0,0,0,0,0.1c0.1-0.1,0.1,0,0.1,0
				c0,0.1,0.1,0,0.2,0.1v0c0,0,0,0,0,0c0,0,0,0,0,0c0.1,0,0.2,0,0.3,0.1c0,0,0-0.1,0.1-0.1l0,0.1c0.1-0.1,0.2,0,0.3-0.1c0,0,0,0,0,0
				c0,0,0.1,0,0.1,0c0,0,0,0,0,0c0,0,0,0,0,0c0,0,0,0,0,0c0,0,0,0,0,0c0,0,0.1,0,0.1,0c0,0,0.1,0,0.1,0c0,0.1,0,0.1,0.1,0
				c0,0,0,0,0,0c0,0,0,0,0,0c0,0.1,0.1-0.1,0.1,0c0.1,0,0.1-0.1,0.2-0.1c0,0.1-0.1,0-0.1,0.1c0.1,0,0.1-0.1,0.2-0.1c0,0,0,0,0,0
				c0.1,0,0.1,0,0.2,0c0,0,0,0,0,0c0,0,0,0,0,0l0,0c0,0,0-0.1,0-0.1c0,0.1,0,0,0,0.1c0,0,0,0,0,0c0,0,0,0,0,0c0,0,0,0,0.1,0
				c0,0,0,0,0,0c0,0,0-0.1,0.1,0c0,0,0,0,0,0c0.1,0,0.1-0.1,0.1,0c0,0.1,0,0,0,0.1l0,0v0c0,0,0,0,0.1,0l0,0l0,0l0,0c0,0,0-0.1,0-0.1
				c0,0,0,0,0,0l0,0c0,0,0,0,0,0c0,0,0,0.1,0,0.1c0,0,0.1,0,0.1-0.1c0,0,0,0,0,0l0,0c0,0,0,0,0,0c0,0,0-0.1,0,0v0c0,0,0.1,0,0.1,0
				c0,0,0,0,0,0.1c0,0,0.1-0.1,0.2-0.1h0c0-0.1,0,0,0.1,0c0,0,0,0,0,0c0,0,0.1,0,0.1,0l0,0c0,0,0.1,0,0.1,0c0,0,0,0,0,0
				c0.1,0.1,0.1-0.1,0.2,0c0,0,0,0,0,0l0.1,0c0,0,0,0,0,0c0,0,0,0,0,0c0,0,0,0.1,0,0.1c0,0,0,0,0,0c0,0.1,0-0.1,0,0l0,0c0,0,0,0,0,0
				c0,0,0,0,0,0.1c0,0,0-0.1,0.1,0c0,0,0,0,0,0c0,0,0,0,0,0v0l0,0l0,0c0-0.1,0.1,0,0.1-0.1c0,0.1,0,0,0,0.1c0,0,0,0,0,0c0,0,0,0,0,0
				c0,0,0,0,0,0c0,0,0,0,0,0c0,0,0.1,0.1,0.1,0c0,0,0.1-0.1,0.1-0.1c0,0,0,0.1,0,0.1c0,0,0,0,0,0c0,0,0,0,0,0c0,0,0,0,0,0
				c0,0,0,0,0,0.1c0,0,0,0,0.1,0c0,0,0,0,0,0c0,0,0.1,0,0.1-0.1l0,0c0,0,0,0,0,0c0,0,0,0,0,0v0c0-0.1,0,0-0.1,0l0-0.1l0,0.1
				c0,0,0,0,0-0.1c0,0,0,0,0,0c0,0,0,0,0,0l0,0c0,0,0,0,0,0c0,0-0.1,0-0.1,0v0c0,0,0,0,0,0.1l0-0.1l0,0c0,0,0,0,0,0c0,0,0,0,0,0
				c0,0-0.1,0-0.1-0.1c0,0,0,0,0,0c0-0.1,0,0-0.1,0c0,0,0,0,0-0.1c0,0.1,0,0-0.1,0c0,0.1,0,0-0.1,0c0,0-0.1,0-0.1,0v0
				c0,0.1,0,0,0,0.1c0,0,0,0,0-0.1h0c0,0,0,0,0,0v0c0,0,0,0-0.1,0c0,0,0,0.1,0,0.1c0,0,0-0.1,0-0.1c0,0,0,0,0,0l0,0c0,0,0,0,0,0
				c0,0,0,0,0,0c0,0,0,0,0,0c0,0,0,0,0,0c0,0,0,0,0,0c0,0,0,0,0,0c0,0,0,0,0,0c0,0,0,0,0,0c0,0-0.1,0-0.1,0l0,0h0l0,0l0,0
				c0,0-0.1,0-0.1,0v0c0,0-0.1,0-0.1,0c0,0,0,0,0,0c0,0,0,0-0.1,0c0,0,0,0,0,0c0,0,0,0-0.1,0c0,0,0,0,0,0l0,0c0,0,0,0,0,0l0,0
				c-0.1-0.1-0.1,0.1-0.1,0c0,0,0,0,0,0.1c0,0,0-0.1-0.1-0.1c0,0,0,0.1-0.1,0.1c0,0,0,0.1,0,0.1c0,0,0-0.1,0-0.1c0,0,0,0,0,0
				c0,0,0,0,0,0v0c0,0-0.1,0,0,0c0,0,0,0,0,0c0,0,0,0-0.1,0c0,0,0,0,0,0c0,0,0,0-0.1,0c0,0,0-0.1,0,0c0,0,0,0,0-0.1c0,0-0.1,0-0.1,0
				l0,0c0,0,0,0,0,0l0,0c0,0,0,0,0,0c0,0,0,0.1,0,0.1c0,0,0,0,0,0c0,0,0,0,0,0c0,0,0,0,0,0c0,0,0,0,0,0c0,0,0,0-0.1,0c0,0,0,0,0,0
				c0,0,0,0,0,0.1c0,0,0,0,0,0l0,0c0,0,0,0,0,0c0,0,0,0,0,0c0,0,0,0-0.1,0c0,0,0,0,0-0.1c0,0,0,0-0.1,0c0,0,0,0,0,0.1l0.1,0l0,0
				c0,0,0,0,0,0c0,0,0,0,0,0.1c0-0.1,0,0-0.1,0v-0.1c0,0-0.1,0-0.1,0l0,0c0,0,0,0,0,0c0,0,0,0,0-0.1c0,0,0,0,0,0.1l0,0
				c0,0,0,0.1-0.1,0.1c0,0,0-0.1,0-0.1c0,0,0,0,0,0c0,0,0,0,0,0c0,0,0,0,0,0c0,0,0,0,0,0c0,0,0,0,0,0c0-0.1-0.1,0-0.1-0.1
				c0,0-0.1,0-0.1,0c0,0,0,0,0,0c0,0,0,0.1-0.1,0c0,0,0,0,0,0c0-0.1,0,0-0.1,0v0c0,0,0,0-0.1,0c0,0,0,0,0,0c0,0-0.1,0.1-0.1,0.1
				c0,0,0,0,0-0.1c0,0,0,0.1,0,0.1c0,0,0,0,0-0.1h0c0-0.1,0,0,0,0v0c0,0,0,0.1-0.1,0.1v0c0,0.1,0,0,0,0l0-0.1c0,0,0,0.1-0.1,0.1
				c0,0,0-0.1,0.1-0.1c0,0,0,0-0.1,0c0,0,0,0,0,0c0,0,0,0.1-0.1,0.1c0-0.1-0.1,0-0.1-0.1c-0.1,0-0.1,0-0.2,0c0,0.1,0,0,0,0.1
				c0,0,0,0,0,0l0-0.1c0,0,0,0,0,0c0,0,0,0,0-0.1c0,0,0,0,0,0l0,0c0,0,0-0.1-0.1,0l0,0c0,0-0.1,0-0.1,0.1c0,0,0,0,0,0
				c0,0-0.1,0.1-0.2,0l0,0c0,0,0,0,0,0c0,0,0,0,0,0c0,0,0,0,0,0l0,0c-0.1,0-0.1,0.1-0.1,0.1c0-0.1,0-0.1-0.1-0.1v0
				c-0.1,0-0.1,0-0.2,0.1c0-0.1-0.1,0-0.2-0.1c0,0,0,0,0,0.1c0,0,0,0,0,0h0c0-0.1,0,0-0.1,0l0,0.1c0-0.1-0.2,0-0.2-0.1
				c0,0,0,0-0.1,0v0c0,0-0.1,0-0.1,0l0,0c0,0,0,0.1-0.1,0.1l0-0.1c0,0-0.1-0.1-0.2,0c0,0,0,0,0,0c0,0-0.1,0-0.1,0c0,0-0.1,0-0.1,0v0
				c0,0.1,0,0.1,0,0.1c0,0,0,0,0,0c0,0,0,0,0,0l0,0c0,0,0,0,0,0c0,0,0,0,0,0c0,0,0,0.1,0,0c0,0,0,0,0,0c0,0-0.1,0-0.1,0c0,0,0,0,0,0
				c0,0,0.1,0,0.1,0c0,0,0,0,0-0.1c0,0-0.1,0.1-0.1,0.1c0,0,0,0,0,0v0c0,0,0,0,0,0c0,0,0,0,0,0c0,0,0,0,0,0c0,0,0,0,0,0.1
				c0,0,0,0,0,0l0,0l0,0c0,0,0,0,0,0c0,0,0,0,0,0c0,0,0,0.1,0,0.1c0-0.1-0.1-0.1-0.1-0.1c0,0-0.1,0-0.1,0.1c0,0,0,0,0,0c0,0,0,0,0,0
				c0,0-0.1,0-0.1,0.1c0,0,0-0.1,0,0v0c-0.1-0.1-0.1,0.1-0.2,0c0,0,0,0,0,0c-0.1,0-0.2,0-0.3,0c0,0,0,0,0,0l0,0l0,0
				c0,0-0.1-0.1-0.1,0l0,0c0,0-0.1,0-0.1,0c0,0,0,0,0,0v0l0,0c0,0,0-0.1,0-0.1c0,0-0.1,0.1,0,0.1c0,0,0,0,0,0l0,0c0,0.1,0,0.1,0,0.2
				l0,0l0,0l0,0c0,0,0,0,0,0c0,0,0,0,0,0l0-0.1c0,0,0,0.1,0,0.1c0,0,0-0.1,0-0.1c0,0,0,0.1,0,0c0,0,0,0,0,0c0,0,0,0,0,0
				c0,0,0.1,0,0,0c0,0,0,0,0,0c0,0.1,0.1,0,0,0.1c0-0.1,0.1,0,0.1-0.1c0,0,0,0,0,0c0,0,0,0,0,0c0-0.1,0-0.1,0-0.1c0,0.1,0,0.1,0,0.1
				C36.6,12.5,36.6,12.5,36.7,12.6C36.6,12.5,36.6,12.5,36.7,12.6C36.6,12.4,36.6,12.5,36.7,12.6C36.7,12.5,36.7,12.5,36.7,12.6
				C36.7,12.5,36.7,12.6,36.7,12.6 M37.4,12.4L37.4,12.4C37.4,12.4,37.4,12.4,37.4,12.4C37.4,12.4,37.4,12.4,37.4,12.4 M37.4,12.4
				C37.4,12.4,37.4,12.4,37.4,12.4C37.4,12.4,37.4,12.4,37.4,12.4C37.4,12.4,37.4,12.4,37.4,12.4 M37.3,12.2
				C37.3,12.1,37.3,12.2,37.3,12.2C37.3,12.2,37.3,12.2,37.3,12.2L37.3,12.2C37.3,12.2,37.3,12.2,37.3,12.2"/>
			<path class="st3" d="M58.6,12.1C58.6,12.1,58.6,12.1,58.6,12.1C58.5,12.2,58.6,12.1,58.6,12.1c-0.1,0-0.1,0.1-0.1,0.1
				c0,0,0,0,0,0c0,0-0.1,0-0.1,0.1c0,0,0,0,0,0c0,0,0,0.1,0,0.1c0,0,0,0,0,0c0,0,0,0,0,0l0,0c0-0.1,0,0,0-0.1c0,0-0.1,0.1-0.1,0
				c0,0,0.1,0,0-0.1l0,0c0-0.1,0,0,0-0.1c-0.1,0-0.1,0-0.1,0c0,0,0,0,0,0.1c-0.1,0,0-0.1-0.1-0.1c0,0,0,0.1,0,0.1l0-0.1
				c0,0,0,0.1-0.1,0c0,0,0,0,0,0c0,0,0,0,0,0l0-0.1c0,0-0.1,0-0.1,0.1c0,0,0,0,0,0c-0.1,0-0.1,0-0.2,0l0,0c0,0,0,0,0,0c0,0,0,0,0,0
				c0,0,0,0,0,0c0,0-0.1,0.1-0.2,0l0,0c0,0,0,0.1-0.1,0l0,0c-0.1,0-0.2,0-0.2,0c0,0.1-0.1,0-0.1,0.1c0,0,0-0.1-0.1-0.1
				c0,0,0,0.1,0,0.1v0l0,0l0-0.1l0,0c0,0,0,0,0,0c0,0-0.1,0-0.1-0.1l-0.1,0c0,0,0,0,0,0c0,0,0,0,0,0c0,0,0,0,0,0c0,0-0.1,0-0.1,0
				l0,0c0,0-0.1,0-0.2,0c0,0,0,0.1,0,0.1l0,0c0,0,0,0,0,0.1c0,0,0-0.1,0-0.1l0,0c0,0,0,0,0,0c0,0,0-0.1,0,0l0,0c0,0-0.1,0-0.1,0
				c0,0,0,0,0,0.1c0,0-0.1,0-0.1,0c0,0,0,0,0,0.1c0,0,0,0,0-0.1c0,0-0.1,0-0.1,0c0,0,0,0,0,0c0,0,0,0,0,0v0c-0.1,0.1-0.1-0.1-0.2,0
				v0l-0.1,0c0,0,0,0,0,0c-0.1,0.1-0.1,0-0.1,0c0-0.1-0.1,0-0.2-0.1l0,0c0,0,0,0,0,0c0,0,0,0,0,0c-0.1,0-0.2,0-0.4-0.1
				c0,0,0,0.1-0.1,0.1l0,0c-0.1,0.1-0.2,0-0.3,0c0,0,0,0,0,0c0,0-0.1,0-0.1,0c0,0,0,0,0,0c0,0,0,0-0.1,0c0,0,0,0,0,0c0,0-0.1,0,0,0
				c0,0-0.1,0-0.1,0c0,0,0,0-0.1,0c0-0.1-0.1-0.1-0.1,0c0,0,0,0,0,0c0,0,0,0,0,0c0-0.1-0.1,0.1-0.1,0c-0.1,0-0.1,0.1-0.2,0.1
				c0-0.1,0.1,0,0.1-0.1c0,0-0.1,0.1-0.1,0.1c0,0,0,0,0,0c-0.1,0-0.1,0-0.2,0c0,0,0,0,0,0c0,0,0,0,0,0l0,0c0,0,0,0.1,0,0.1
				c0-0.1-0.1,0,0-0.1c0,0,0,0,0,0c0,0,0,0,0,0c0,0,0,0-0.1,0c0,0,0,0,0,0c0,0,0,0.1-0.1,0c0,0,0,0,0,0c0,0-0.1,0.1-0.1,0
				c0-0.1,0,0,0-0.1l0,0l0,0c0,0,0,0-0.1,0l0,0l0,0l0,0c0,0,0,0.1,0,0.1c0,0,0,0,0,0l0,0c0,0,0,0,0,0c0,0,0-0.1,0-0.1
				c0,0-0.1,0-0.1,0.1c0,0,0,0,0,0v0c0,0,0,0,0,0c0,0,0,0.1,0,0c0,0,0,0,0,0c0,0-0.1,0-0.1,0c0-0.1,0,0,0-0.1
				c-0.1,0-0.1,0.1-0.2,0.1v0c0,0.1,0,0-0.1,0c0,0,0,0,0,0c0,0-0.1,0-0.1,0v0c0,0,0,0-0.1,0c0,0,0,0,0,0c-0.1-0.1-0.1,0.1-0.2,0
				c0,0,0,0,0,0l0,0c0,0,0,0,0,0c0,0,0,0,0,0c0,0,0-0.1,0-0.1c0,0,0,0,0,0c0-0.1,0,0.1,0,0v0c0,0,0,0,0,0c0,0,0,0,0,0
				c0,0,0,0.1-0.1,0c0,0,0,0,0,0c0,0,0,0,0,0l0,0l0,0l0,0c0,0.1-0.1,0-0.1,0.1c0-0.1,0,0,0-0.1c0,0,0,0,0,0c0,0,0,0,0,0c0,0,0,0,0,0
				c0,0,0,0,0,0c0,0-0.1-0.1-0.1,0c0,0,0,0.1-0.1,0.1c0,0,0-0.1,0-0.1c0,0,0,0-0.1,0c0,0,0,0,0,0c0,0,0,0.1,0,0c0,0,0,0,0-0.1
				c0,0,0,0-0.1,0c0,0,0,0,0,0c0,0-0.1,0-0.1,0.1l0,0c0,0,0,0,0,0c0,0,0,0,0,0l0,0c0,0.1,0.1,0,0.1,0l0,0.1l0,0c0,0,0,0,0,0.1
				c0,0,0,0,0,0v0l0,0c0,0,0,0,0,0c0,0,0.1-0.1,0.1,0h0c0,0,0,0,0-0.1l0,0.1l0,0c0,0,0,0,0,0c0,0,0,0,0,0c0,0,0.1,0,0.1,0.1
				c0,0,0,0,0-0.1c0,0.1,0,0,0,0c0,0,0,0,0,0.1c0-0.1,0,0,0.1,0c0,0,0,0,0.1,0c0,0,0.1,0,0.1,0v0c0-0.1,0,0,0.1-0.1c0,0,0,0,0,0.1h0
				c0,0,0,0,0,0v0c0,0,0.1,0,0.1,0c0,0,0-0.1,0-0.1c0,0,0,0.1,0,0.1c0,0,0,0,0,0l0,0c0,0,0,0,0,0c0,0,0,0,0,0c0,0,0,0,0,0
				c0,0,0,0,0,0c0,0,0,0,0,0c0,0,0,0,0,0c0,0,0,0,0,0c0,0,0,0,0,0c0,0,0.1,0,0,0l0,0l0,0l0,0l0,0c0-0.1,0.1,0,0.1,0v0
				c0,0,0.1,0,0.1,0c0,0,0,0,0,0c0,0,0,0,0.1,0c0,0,0,0,0,0c0,0,0,0,0.1,0c0,0,0,0,0,0l0,0c0,0,0,0,0,0l0,0.1c0,0.1,0.1-0.1,0.1,0
				c0,0,0,0,0-0.1c0,0,0.1,0.1,0.1,0.1c0,0,0-0.1,0.1,0c0,0,0-0.1,0-0.1c0,0,0,0.1,0,0.1c0,0,0,0,0,0c0,0,0,0,0,0v0c0,0,0,0,0,0
				c0,0,0,0,0,0c0,0,0.1,0,0.1,0c0,0,0,0,0,0c0,0,0,0,0.1,0c0,0,0,0.1,0,0c0,0,0,0,0,0.1c0,0,0,0,0.1,0l0,0c0,0,0,0,0,0l0,0
				c0,0,0,0,0,0c0,0,0-0.1,0-0.1c0,0,0,0,0,0c0,0,0,0,0,0.1c0,0,0,0,0,0c0,0,0,0,0,0c0,0,0-0.1,0-0.1c0,0,0,0,0,0c0,0,0,0,0-0.1
				c0,0,0,0,0,0l0,0c0,0,0,0,0,0c0,0,0,0,0,0c0,0,0,0,0.1,0c0,0,0,0,0,0.1c0,0,0,0,0.1,0c0,0,0,0,0-0.1l-0.1,0l0,0c0,0,0,0,0,0
				c0,0,0,0,0,0c0,0.1,0,0,0.1,0l0,0.1c0,0,0.1,0,0.1,0l0,0c0,0,0,0,0,0c0,0,0,0,0,0.1c0,0,0,0,0-0.1l0,0c0,0,0-0.1,0.1-0.1
				c0,0,0,0.1,0,0.1c0,0,0,0,0,0c0,0,0,0,0,0c0,0,0,0,0,0c0,0,0,0,0,0c0,0,0,0,0-0.1c0,0.1,0.1,0,0.1,0.1c0,0,0.1,0,0.1,0
				c0,0,0,0,0,0c0,0,0-0.1,0.1,0c0,0,0,0,0,0c0,0.1,0.1,0,0.1,0l0,0c0,0,0.1,0,0.1,0c0,0,0,0,0,0c0,0,0.1-0.1,0.1-0.1c0,0,0,0,0,0.1
				c0,0,0-0.1,0-0.1c0,0,0,0,0,0.1h0c0,0.1,0,0,0,0v0c0,0,0-0.1,0.1-0.1v0c0-0.1,0,0,0,0l0,0.1c0,0,0.1-0.1,0.1-0.1
				c0,0,0,0.1-0.1,0.1c0,0,0.1,0,0.1,0c0,0,0,0,0,0c0,0,0-0.1,0.1-0.1c0,0.1,0.1,0,0.1,0.1c0.1,0,0.1,0,0.2,0c0-0.1,0,0,0-0.1
				c0,0,0,0,0,0l0,0.1c0,0,0,0,0,0c0,0,0,0,0,0.1c0,0,0,0,0,0l0,0c0,0,0,0.1,0.1,0l0,0c0,0,0.1,0,0.1-0.1c0,0,0,0,0,0
				c0.1,0,0.1-0.1,0.2,0v0c0,0,0,0,0,0c0,0,0,0,0,0c0,0,0,0,0,0l0,0c0,0,0.1-0.1,0.1-0.1c0,0.1,0,0.1,0.1,0.1v0c0.1,0,0.1,0,0.2-0.1
				c0,0.1,0.1,0,0.2,0.1c0,0,0-0.1,0-0.1c0,0,0,0,0,0h0c0,0.1,0,0,0.1,0v-0.1c0.1,0.1,0.2,0,0.2,0.1c0,0,0,0,0,0l0,0
				c0,0,0.1,0,0.1,0l0,0c0,0,0-0.1,0.1-0.1l0,0.1c0,0,0.1,0.1,0.2,0c0,0,0,0,0,0c0,0,0.1,0,0.1,0c0,0.1,0,0,0.1,0v0
				c0-0.1,0-0.1,0.1-0.1c0,0,0,0,0,0c0,0,0,0,0,0l0,0c0,0,0,0,0,0c0,0,0,0,0,0c0,0,0,0,0,0c0,0,0,0,0,0c0,0,0.1,0,0.1,0c0,0,0,0,0,0
				c0,0-0.1,0-0.1,0c0,0,0,0,0,0.1c0,0,0.1-0.1,0.1-0.1c0,0,0,0,0,0l0,0c0,0,0,0,0,0c0,0,0,0,0,0c0,0,0,0,0,0c0,0,0,0,0-0.1
				c0,0,0,0,0,0c0,0,0,0,0,0v0c0,0,0,0,0,0c0,0,0,0,0,0c0,0,0,0,0-0.1c0,0.1,0.1,0.1,0.1,0.1c0,0,0.1,0,0.1-0.1c0,0,0,0,0,0
				c0,0,0,0,0,0c0,0,0.1,0,0.1-0.1c0,0,0,0,0,0v0c0.1,0.1,0.1-0.1,0.2,0c0,0,0,0,0,0c0.1,0,0.2,0,0.3,0c0,0,0,0,0.1,0v0l0,0
				c0,0,0.1,0.1,0.1,0v0c0,0,0.1,0,0.1,0c0,0,0,0,0,0v0l0,0c0,0,0,0.1,0,0.1c0,0,0.1-0.1,0.1-0.1c0,0,0,0,0,0l0,0c0-0.1,0-0.1,0-0.2
				l0,0l0,0l0,0c0,0,0,0,0,0c0,0,0,0,0,0l0,0.1c0,0,0,0,0-0.1c0,0,0,0.1,0,0.1c0,0,0-0.1,0,0c0,0,0,0,0,0c0,0,0,0-0.1,0
				c0,0,0,0,0-0.1c0,0,0,0,0,0.1c0-0.1-0.1,0,0-0.1c0,0.1-0.1,0-0.1,0.1c0,0,0,0,0,0c0,0,0,0,0,0c0,0.1,0,0.1-0.1,0.1
				c0-0.1,0-0.1,0-0.1C58.7,12.2,58.7,12.2,58.6,12.1C58.7,12.2,58.7,12.2,58.6,12.1C58.7,12.2,58.6,12.1,58.6,12.1
				C58.6,12.1,58.6,12.1,58.6,12.1C58.6,12.1,58.6,12.1,58.6,12.1 M57.9,12.2L57.9,12.2C57.9,12.2,57.9,12.2,57.9,12.2
				C57.9,12.2,57.9,12.2,57.9,12.2 M57.9,12.2C57.9,12.2,57.9,12.2,57.9,12.2C57.9,12.2,57.9,12.3,57.9,12.2
				C57.9,12.2,57.9,12.2,57.9,12.2 M58,12.5C58,12.5,58,12.5,58,12.5C58,12.5,58,12.5,58,12.5L58,12.5C58,12.5,58,12.5,58,12.5"/>
		</g>
		<g>
			<path class="st3" d="M17.3,18.2C17.3,18.2,17.3,18.2,17.3,18.2C17.3,18.1,17.3,18.2,17.3,18.2c0.1,0,0.1-0.1,0.2-0.1c0,0,0,0,0,0
				c0,0,0.1,0,0.1-0.1c0,0,0,0,0,0c0,0,0-0.1,0-0.1c0,0,0,0,0,0c0,0,0,0,0,0l0,0c0,0,0,0,0,0c0,0,0.1-0.1,0.1,0c0,0-0.1,0,0,0.1l0,0
				c0,0.1,0,0,0,0.1c0.1,0,0.1,0,0.1,0c0,0,0,0,0-0.1c0.1,0,0.1,0.1,0.1,0.1c0,0,0-0.1,0.1-0.1l0,0c0.1,0,0-0.1,0.1,0c0,0,0,0,0,0
				c0,0,0,0,0.1,0l0,0c0.1,0,0.1,0,0.2,0c0,0,0,0,0,0c0.1,0,0.2,0,0.3,0l0,0c0,0,0,0,0,0c0,0,0,0,0,0c0,0,0,0,0,0
				c0.1,0,0.2-0.1,0.2,0l0,0c0,0,0.1-0.1,0.1,0v0c0.1,0,0.2,0,0.3,0c0-0.1,0.1,0,0.1-0.1c0.1,0,0,0.1,0.1,0.1c0,0,0-0.1,0.1-0.1l0,0
				l0,0l0,0.1l0,0c0,0,0,0,0,0c0,0,0.1,0,0.1,0.1l0.1,0c0,0,0,0,0,0c0.1,0,0,0,0.1,0c0,0,0,0,0,0c0,0,0.1,0,0.1,0l0,0
				c0.1,0,0.2,0,0.2,0c0,0,0-0.1,0-0.1l0,0c0,0,0,0,0-0.1c0,0,0,0.1,0,0.1l0,0c0,0,0,0,0,0c0,0,0.1,0,0.1,0l0,0c0.1,0,0.1,0,0.2,0
				c0,0,0,0,0-0.1c0,0,0.1,0,0.2,0c0,0,0,0,0-0.1c0,0,0.1,0,0,0.1c0.1,0,0.1,0,0.2,0c0,0,0,0,0,0c0,0,0,0,0,0l0,0
				c0.1-0.1,0.2,0.1,0.3,0h0l0.1,0c0,0,0,0,0,0c0.1-0.1,0.1,0,0.2,0c0.1,0.1,0.2,0,0.3,0.1v0c0,0,0,0,0,0c0,0,0,0,0,0
				c0.2,0,0.3,0,0.5,0.1c0.1,0,0-0.1,0.1-0.1l0,0c0.1-0.1,0.3,0,0.4,0c0,0,0,0,0,0c0,0,0.1,0,0.1,0c0,0,0,0,0,0c0,0,0.1,0,0.1,0
				c0,0,0,0,0,0c0,0,0.1,0,0.1,0c0.1,0,0.1,0,0.1,0c0,0,0.1,0,0.1,0c0,0.1,0.1,0.1,0.1,0c0,0,0,0,0,0c0,0,0.1,0,0.1,0
				c0.1,0.1,0.1-0.1,0.2,0c0.1,0,0.2-0.1,0.3-0.1c0,0.1-0.1,0-0.1,0.1c0.1,0,0.1-0.1,0.2-0.1c0,0,0,0,0,0c0.1,0,0.2,0,0.2,0
				c0,0,0,0,0,0c0,0,0,0,0,0l0,0c0,0,0.1-0.1,0.1-0.1c0,0.1,0.1,0,0,0.1c0,0,0,0,0,0c0,0,0,0,0,0c0.1,0,0,0,0.1,0c0,0,0,0,0,0
				c0,0,0,0,0.1,0c0,0,0,0,0,0c0.1,0,0.1-0.1,0.2,0c0,0.1,0,0,0,0.1l0,0l0,0c0,0,0.1,0,0.1,0l0,0l0.1,0l0,0c0,0,0-0.1,0-0.1
				c0,0,0,0,0.1,0l0,0c0,0,0,0,0.1,0c0,0,0,0.1,0,0.1c0,0,0.1,0,0.1-0.1c0,0,0,0,0,0l0,0c0,0,0,0,0,0c0.1,0,0-0.1,0,0c0,0,0,0,0,0
				c0.1,0,0.1,0,0.2,0c0,0,0,0,0,0.1c0.1,0,0.2-0.1,0.3-0.1h0c0-0.1,0,0,0.1,0c0,0,0,0,0,0c0.1,0,0.1,0,0.2,0l0,0c0,0,0.1,0,0.1,0
				c0,0,0,0,0,0c0.1,0.1,0.2-0.1,0.3,0c0,0,0,0,0,0l0.1,0c0,0,0,0,0,0c0,0,0,0,0,0c0,0,0,0.1,0,0.1c0,0,0,0,0,0c0,0.1,0-0.1,0.1,0v0
				c0,0,0,0,0.1,0c0,0,0,0,0,0c0,0,0.1-0.1,0.1,0c0,0,0,0,0,0c0,0,0,0,0.1,0l0,0l0,0v0c0-0.1,0.1,0,0.1-0.1c0,0.1,0,0,0,0.1
				c0,0,0,0,0,0c0,0,0,0,0.1,0c0,0,0,0,0,0c0,0,0,0,0,0c0,0,0.1,0.1,0.2,0c0.1,0,0.1-0.1,0.1-0.1c0,0,0,0.1,0,0.1c0,0,0.1,0,0.1,0
				c0,0,0,0,0,0c0,0,0-0.1,0,0c0,0,0,0,0,0.1c0,0,0.1,0,0.1,0c0,0,0,0,0,0c0,0,0.1,0,0.1-0.1l0,0c0,0,0,0,0,0c0,0,0,0,0,0l0,0
				c0-0.1-0.1,0-0.1,0l0-0.1l0,0c0,0,0,0,0-0.1c0,0,0,0-0.1,0c0,0,0,0,0,0l0,0c0,0,0,0,0,0c-0.1,0-0.1,0-0.1,0l0,0
				c-0.1,0,0,0-0.1,0.1l0-0.1l0,0c0,0,0,0,0,0c0,0,0,0,0,0c0,0-0.1,0-0.1-0.1c0,0,0,0,0,0.1c0-0.1,0,0-0.1,0c0,0,0,0,0-0.1
				c0,0.1-0.1,0-0.1,0c0,0.1-0.1,0-0.1,0c0,0-0.1,0-0.1,0v0c0,0.1-0.1,0-0.1,0.1c0,0,0,0,0-0.1h0c0,0,0,0,0,0l0,0c0,0-0.1,0-0.1,0
				c0,0,0,0.1,0,0.1c0,0,0-0.1,0-0.1c0,0,0,0,0,0l0,0c0,0,0,0,0,0c0,0,0,0,0,0c0,0,0,0,0,0c0,0,0,0,0,0c0,0,0,0,0,0c0,0,0,0,0,0
				c0,0,0,0,0,0c0,0,0,0,0,0c0,0-0.1,0-0.1,0l0,0v0l0,0l0,0c-0.1,0-0.1,0-0.2,0v0c0,0-0.1,0-0.1,0c0,0,0,0,0,0c0,0,0,0-0.1,0
				c0,0,0,0,0,0c0,0,0,0-0.1,0c0,0,0,0,0,0l0,0c0,0,0,0-0.1,0l0,0c-0.1-0.1-0.2,0.1-0.2,0c0,0,0,0,0,0.1c0,0-0.1-0.1-0.1-0.1
				c0,0,0,0.1-0.1,0c0,0,0,0.1,0,0.1c0,0,0-0.1,0-0.1c0,0,0,0,0,0c0,0,0,0,0,0v0c0,0-0.1,0-0.1,0c0,0,0,0,0,0c0,0-0.1,0-0.1,0
				c0,0,0,0,0,0c-0.1,0,0,0-0.1,0c0,0,0-0.1,0,0c0,0,0,0,0-0.1c0,0-0.1,0-0.1,0l0,0c0,0,0,0,0,0l0,0c0,0,0,0,0,0c0,0,0,0.1,0,0.1
				c0,0,0,0-0.1,0c0.1,0,0,0,0,0c0,0,0,0,0,0c0,0,0,0,0,0c-0.1,0,0,0.1-0.1,0.1c0,0,0,0,0,0c0,0,0,0,0,0.1c0,0,0,0-0.1,0l0,0
				c0,0,0,0-0.1,0c0,0,0,0,0,0c0,0-0.1,0-0.1,0c0,0,0,0,0-0.1c0,0,0,0-0.1,0c0,0,0,0,0,0.1l0.1,0l-0.1,0c0,0,0.1,0,0.1,0
				c0,0,0,0,0,0c0-0.1-0.1,0-0.1,0v-0.1c0,0-0.1,0-0.2,0l0,0c0,0,0,0-0.1,0c0,0,0,0,0-0.1c0,0-0.1,0-0.1,0.1l0,0
				c-0.1,0-0.1,0.1-0.1,0.1c0,0,0-0.1,0-0.1c0,0,0,0,0,0c0,0,0,0-0.1,0c0,0,0,0,0,0c0,0,0,0,0,0c0,0,0,0,0,0.1
				c-0.1-0.1-0.2,0-0.2-0.1c0,0-0.1,0-0.1,0c0,0,0,0,0,0c0,0,0,0.1-0.1,0c0,0,0,0,0,0c0-0.1-0.1,0-0.1,0h0c0,0-0.1,0-0.1,0
				c0,0,0,0,0,0c0,0-0.1,0.1-0.2,0.1c0,0,0,0,0-0.1c0,0,0,0.1,0,0.1c0,0,0,0-0.1-0.1h0c0-0.1,0,0-0.1,0l0,0c-0.1,0-0.1,0.1-0.1,0.1
				l0,0c-0.1,0.1,0,0-0.1,0l0-0.1c0,0-0.1,0.1-0.1,0.1c0,0,0.1-0.1,0.1-0.1c0,0-0.1,0-0.1,0c0,0,0,0,0,0c0,0-0.1,0.1-0.1,0.1
				c0-0.1-0.1,0-0.2-0.1c-0.1,0-0.2,0-0.3,0c0,0.1,0,0,0,0.1c0,0,0,0,0,0l-0.1,0c0,0,0,0,0,0c0,0,0,0,0-0.1c0,0,0,0,0,0l0,0
				c-0.1,0-0.1-0.1-0.1,0l0,0c0,0-0.1,0-0.2,0.1c0,0,0,0,0,0c-0.1,0-0.2,0.1-0.3,0l0,0c0,0,0,0-0.1,0c0,0,0,0,0,0c0,0,0,0-0.1,0l0,0
				c-0.1,0-0.1,0.1-0.2,0.1c0-0.1-0.1-0.1-0.1-0.1l0,0c-0.1,0-0.2,0-0.3,0.1c-0.1-0.1-0.2,0-0.3-0.1c0,0,0,0.1,0,0.1
				c0,0-0.1,0-0.1,0h0c0-0.1-0.1,0-0.1,0v0.1c-0.1-0.1-0.2,0-0.3-0.1c0,0,0,0-0.1,0v0c-0.1,0-0.1,0-0.2,0l0,0c0,0-0.1,0.1-0.1,0.1
				l0-0.1c-0.1,0-0.1-0.1-0.2,0c0,0,0,0,0,0c0,0-0.1,0-0.1,0c0-0.1-0.1,0-0.1,0l0,0c0,0.1,0,0.1-0.1,0.1c0,0,0,0,0,0c0,0,0,0-0.1,0
				l0,0c0,0,0,0-0.1,0c0,0-0.1,0-0.1,0c0,0,0,0-0.1,0c0,0,0,0,0,0c-0.1,0-0.1,0-0.1,0c0,0,0,0,0,0c0,0,0.1,0,0.1,0c0,0,0,0,0-0.1
				c0,0-0.1,0.1-0.1,0.1c0,0,0,0,0,0l0,0c0,0,0,0,0,0c0,0,0,0,0,0c0,0,0,0-0.1,0c0,0,0,0,0,0.1c0,0,0,0,0,0c0,0,0,0,0,0l0,0
				c0,0,0,0,0.1,0c0,0,0,0-0.1,0c0,0,0,0.1,0,0.1c0-0.1-0.1-0.1-0.1-0.1c-0.1,0-0.2,0-0.2,0.1c0,0,0,0,0,0c0,0,0,0,0,0
				c0,0-0.1,0-0.1,0.1c0,0,0,0,0,0l0,0c-0.1-0.1-0.2,0.1-0.3,0c0,0,0,0,0,0c-0.2,0-0.3,0-0.5,0c0,0-0.1,0-0.1,0l0,0l0,0.1
				c-0.1,0-0.1-0.1-0.2,0l0,0c0,0-0.1,0-0.1,0c0,0,0,0,0,0v0l-0.1,0c-0.1,0,0-0.1-0.1-0.1c0,0-0.1,0.1-0.1,0.1c0,0,0,0,0,0l0,0
				c0,0.1,0,0.1,0.1,0.2l0,0l0,0l0,0c0,0,0,0,0,0c0,0,0,0,0,0l0-0.1c0,0,0,0,0,0.1c0,0,0-0.1,0-0.1c0,0,0,0.1,0,0c0,0,0,0,0,0
				c0,0,0.1,0,0.1,0c0,0,0.1,0,0.1,0.1c0,0,0,0,0.1-0.1c0,0.1,0.1,0,0.1,0.1c0-0.1,0.1,0,0.2-0.1c0,0,0,0,0,0c0,0,0.1,0,0.1,0
				c0-0.1,0.1-0.1,0.1-0.1c0,0,0,0.1,0,0.1c0,0,0.1,0,0-0.1C17.2,18.1,17.1,18.1,17.3,18.2C17.2,18.1,17.2,18.2,17.3,18.2
				C17.3,18.2,17.2,18.2,17.3,18.2C17.3,18.2,17.3,18.2,17.3,18.2 M18.3,18.1L18.3,18.1C18.3,18.1,18.3,18.1,18.3,18.1
				C18.3,18.1,18.3,18.1,18.3,18.1 M18.4,18.1C18.4,18.1,18.4,18.1,18.4,18.1C18.4,18.1,18.4,18.1,18.4,18.1
				C18.4,18.1,18.4,18.1,18.4,18.1 M18.2,17.8C18.2,17.8,18.2,17.8,18.2,17.8C18.2,17.8,18.2,17.8,18.2,17.8L18.2,17.8
				C18.2,17.8,18.2,17.8,18.2,17.8"/>
			<path class="st3" d="M36.7,18.2C36.7,18.2,36.7,18.2,36.7,18.2C36.7,18.1,36.7,18.2,36.7,18.2c0.1,0,0.1-0.1,0.1-0.1c0,0,0,0,0,0
				c0,0,0.1,0,0.1-0.1c0,0,0,0,0,0c0,0,0-0.1,0-0.1c0,0,0,0,0,0c0,0,0,0,0,0l0,0c0,0,0,0,0,0c0,0,0.1-0.1,0.1,0c0,0,0,0,0,0.1l0,0
				c0,0.1,0,0,0,0.1c0,0,0,0,0.1,0c0,0,0,0,0-0.1c0.1,0,0,0.1,0.1,0.1c0,0,0-0.1,0-0.1l0,0c0,0,0-0.1,0.1,0c0,0,0,0,0,0c0,0,0,0,0,0
				l0,0c0,0,0.1,0,0.1,0c0,0,0,0,0,0c0.1,0,0.1,0,0.2,0l0,0c0,0,0,0,0,0c0,0,0,0,0,0c0,0,0,0,0,0c0,0,0.1-0.1,0.2,0l0,0
				c0,0,0-0.1,0.1,0l0,0c0.1,0,0.1,0,0.2,0c0-0.1,0.1,0,0.1-0.1c0,0,0,0.1,0.1,0.1c0,0,0-0.1,0-0.1v0l0,0l0,0.1l0,0c0,0,0,0,0,0
				c0,0,0.1,0,0.1,0.1l0.1,0c0,0,0,0,0,0c0,0,0,0,0,0c0,0,0,0,0,0c0,0,0.1,0,0.1,0l0,0c0,0,0.1,0,0.2,0c0,0,0-0.1,0-0.1l0,0
				c0,0,0,0,0-0.1c0,0,0,0.1,0,0.1l0,0c0,0,0,0,0,0c0,0,0,0,0,0v0c0.1,0,0.1,0,0.1,0c0,0,0,0,0-0.1c0,0,0.1,0,0.1,0c0,0,0,0,0-0.1
				c0,0,0,0,0,0.1c0,0,0.1,0,0.1,0c0,0,0,0,0,0c0,0,0,0,0,0l0,0c0.1-0.1,0.2,0.1,0.2,0l0,0l0.1,0c0,0,0,0,0,0c0.1-0.1,0.1,0,0.1,0
				c0,0.1,0.1,0,0.2,0.1v0c0,0,0,0,0,0c0,0,0,0,0,0c0.1,0,0.2,0,0.3,0.1c0,0,0-0.1,0.1-0.1l0,0c0.1-0.1,0.2,0,0.3,0c0,0,0,0,0,0
				c0,0,0.1,0,0.1,0c0,0,0,0,0,0c0,0,0,0,0,0c0,0,0,0,0,0c0,0,0,0,0,0c0,0,0.1,0,0.1,0c0,0,0.1,0,0.1,0c0,0.1,0,0.1,0.1,0
				c0,0,0,0,0,0c0,0,0,0,0,0c0,0.1,0.1-0.1,0.1,0c0.1,0,0.1-0.1,0.2-0.1c0,0.1-0.1,0-0.1,0.1c0.1,0,0.1-0.1,0.2-0.1c0,0,0,0,0,0
				c0.1,0,0.1,0,0.2,0c0,0,0,0,0,0c0,0,0,0,0,0l0,0c0,0,0-0.1,0-0.1c0,0.1,0,0,0,0.1c0,0,0,0,0,0c0,0,0,0,0,0c0,0,0,0,0.1,0
				c0,0,0,0,0,0c0,0,0,0,0.1,0c0,0,0,0,0,0c0.1,0,0.1-0.1,0.1,0c0,0.1,0,0,0,0.1l0,0v0c0,0,0,0,0.1,0l0,0l0,0l0,0c0,0,0-0.1,0-0.1
				c0,0,0,0,0,0l0,0c0,0,0,0,0,0c0,0,0,0.1,0,0.1c0,0,0.1,0,0.1-0.1c0,0,0,0,0,0l0,0c0,0,0,0,0,0c0,0,0-0.1,0,0v0c0,0,0.1,0,0.1,0
				c0,0,0,0,0,0.1c0,0,0.1-0.1,0.2-0.1h0c0-0.1,0,0,0.1,0c0,0,0,0,0,0c0,0,0.1,0,0.1,0l0,0c0,0,0.1,0,0.1,0c0,0,0,0,0,0
				c0.1,0.1,0.1-0.1,0.2,0c0,0,0,0,0,0l0.1,0c0,0,0,0,0,0c0,0,0,0,0,0c0,0,0,0.1,0,0.1c0,0,0,0,0,0c0,0.1,0-0.1,0,0l0,0c0,0,0,0,0,0
				c0,0,0,0,0,0c0,0,0-0.1,0.1,0c0,0,0,0,0,0c0,0,0,0,0,0l0,0l0,0l0,0c0-0.1,0.1,0,0.1-0.1c0,0.1,0,0,0,0.1c0,0,0,0,0,0c0,0,0,0,0,0
				c0,0,0,0,0,0c0,0,0,0,0,0c0,0,0.1,0.1,0.1,0c0,0,0.1-0.1,0.1-0.1c0,0,0,0.1,0,0.1c0,0,0,0,0,0c0,0,0,0,0,0c0,0,0-0.1,0,0
				c0,0,0,0,0,0.1c0,0,0,0,0.1,0c0,0,0,0,0,0c0,0,0.1,0,0.1-0.1l0,0c0,0,0,0,0,0c0,0,0,0,0,0v0c0-0.1,0,0-0.1,0l0-0.1l0,0
				c0,0,0,0,0-0.1c0,0,0,0,0,0c0,0,0,0,0,0l0,0c0,0,0,0,0,0c0,0-0.1,0-0.1,0l0,0c0,0,0,0,0,0.1l0-0.1l0,0c0,0,0,0,0,0c0,0,0,0,0,0
				c0,0-0.1,0-0.1-0.1c0,0,0,0,0,0.1c0-0.1,0,0-0.1,0c0,0,0,0,0-0.1c0,0.1,0,0-0.1,0c0,0.1,0,0-0.1,0c0,0-0.1,0-0.1,0v0
				c0,0.1,0,0,0,0.1c0,0,0,0,0-0.1h0c0,0,0,0,0,0v0c0,0,0,0-0.1,0c0,0,0,0.1,0,0.1c0,0,0-0.1,0-0.1s0,0,0,0l0,0c0,0,0,0,0,0
				c0,0,0,0,0,0c0,0,0,0,0,0c0,0,0,0,0,0c0,0,0,0,0,0c0,0,0,0,0,0c0,0,0,0,0,0c0,0,0,0,0,0c0,0-0.1,0-0.1,0h0l0,0l0,0l0,0
				c0,0-0.1,0-0.1,0v0c0,0-0.1,0-0.1,0c0,0,0,0,0,0c0,0,0,0-0.1,0c0,0,0,0,0,0c0,0,0,0-0.1,0c0,0,0,0,0,0l0,0c0,0,0,0,0,0l0,0
				c-0.1-0.1-0.1,0.1-0.1,0c0,0,0,0,0,0.1c0,0,0-0.1-0.1-0.1c0,0,0,0.1-0.1,0c0,0,0,0.1,0,0.1c0,0,0-0.1,0-0.1c0,0,0,0,0,0
				c0,0,0,0,0,0v0c0,0-0.1,0,0,0c0,0,0,0,0,0c0,0,0,0-0.1,0c0,0,0,0,0,0c0,0,0,0-0.1,0c0,0,0-0.1,0,0c0,0,0,0,0-0.1c0,0-0.1,0-0.1,0
				l0,0c0,0,0,0,0,0l0,0c0,0,0,0,0,0c0,0,0,0.1,0,0.1c0,0,0,0,0,0c0,0,0,0,0,0c0,0,0,0,0,0c0,0,0,0,0,0c0,0,0,0.1-0.1,0.1
				c0,0,0,0,0,0c0,0,0,0,0,0.1c0,0,0,0,0,0l0,0c0,0,0,0,0,0c0,0,0,0,0,0c0,0,0,0-0.1,0c0,0,0,0,0-0.1c0,0,0,0-0.1,0c0,0,0,0,0,0.1
				l0.1,0l0,0c0,0,0,0,0,0c0,0,0,0,0,0c0-0.1,0,0-0.1,0v-0.1c0,0-0.1,0-0.1,0l0,0c0,0,0,0,0,0c0,0,0,0,0-0.1c0,0,0,0,0,0.1l0,0
				c0,0,0,0.1-0.1,0.1c0,0,0-0.1,0-0.1c0,0,0,0,0,0c0,0,0,0,0,0c0,0,0,0,0,0c0,0,0,0,0,0c0,0,0,0,0,0.1c0-0.1-0.1,0-0.1-0.1
				c0,0-0.1,0-0.1,0c0,0,0,0,0,0c0,0,0,0.1-0.1,0c0,0,0,0,0,0c0-0.1,0,0-0.1,0l0,0c0,0,0,0-0.1,0c0,0,0,0,0,0c0,0-0.1,0.1-0.1,0.1
				c0,0,0,0,0-0.1c0,0,0,0.1,0,0.1c0,0,0,0,0-0.1h0c0-0.1,0,0,0,0v0c0,0,0,0.1-0.1,0.1v0c0,0.1,0,0,0,0l0-0.1c0,0,0,0.1-0.1,0.1
				c0,0,0-0.1,0.1-0.1c0,0,0,0-0.1,0c0,0,0,0,0,0c0,0,0,0.1-0.1,0.1c0-0.1-0.1,0-0.1-0.1c-0.1,0-0.1,0-0.2,0c0,0.1,0,0,0,0.1
				c0,0,0,0,0,0l0,0c0,0,0,0,0,0c0,0,0,0,0-0.1c0,0,0,0,0,0l0,0c0,0,0-0.1-0.1,0l0,0c0,0-0.1,0-0.1,0.1c0,0,0,0,0,0
				c0,0-0.1,0.1-0.2,0l0,0c0,0,0,0,0,0c0,0,0,0,0,0c0,0,0,0,0,0l0,0c-0.1,0-0.1,0.1-0.1,0.1c0-0.1,0-0.1-0.1-0.1v0
				c-0.1,0-0.1,0-0.2,0.1c0-0.1-0.1,0-0.2-0.1c0,0,0,0.1,0,0.1c0,0,0,0,0,0h0c0-0.1,0,0-0.1,0l0,0.1c0-0.1-0.2,0-0.2-0.1
				c0,0,0,0-0.1,0v0c0,0-0.1,0-0.1,0l0,0c0,0,0,0.1-0.1,0.1l0-0.1c0,0-0.1-0.1-0.2,0c0,0,0,0,0,0c0,0-0.1,0-0.1,0c0-0.1-0.1,0-0.1,0
				v0c0,0.1,0,0.1,0,0.1c0,0,0,0,0,0c0,0,0,0,0,0l0,0c0,0,0,0,0,0c0,0,0,0,0,0c0,0,0,0,0,0c0,0,0,0,0,0c0,0-0.1,0-0.1,0c0,0,0,0,0,0
				c0,0,0.1,0,0.1,0c0,0,0,0,0-0.1c0,0-0.1,0.1-0.1,0.1c0,0,0,0,0,0l0,0c0,0,0,0,0,0c0,0,0,0,0,0c0,0,0,0,0,0c0,0,0,0,0,0.1
				c0,0,0,0,0,0l0,0l0,0c0,0,0,0,0,0c0,0,0,0,0,0c0,0,0,0.1,0,0.1c0-0.1-0.1-0.1-0.1-0.1c0,0-0.1,0-0.1,0.1c0,0,0,0,0,0c0,0,0,0,0,0
				c0,0-0.1,0-0.1,0.1c0,0,0,0,0,0v0c-0.1-0.1-0.1,0.1-0.2,0c0,0,0,0,0,0c-0.1,0-0.2,0-0.3,0c0,0,0,0,0,0l0,0l0,0.1
				c0,0-0.1-0.1-0.1,0l0,0c0,0-0.1,0-0.1,0c0,0,0,0,0,0v0l0,0c0,0,0-0.1,0-0.1c0,0-0.1,0.1,0,0.1c0,0,0,0,0,0l0,0c0,0.1,0,0.1,0,0.2
				l0,0l0,0l0,0c0,0,0,0,0,0c0,0,0,0,0,0l0-0.1c0,0,0,0,0,0.1c0,0,0-0.1,0-0.1c0,0,0,0.1,0,0c0,0,0,0,0,0c0,0,0,0,0,0
				c0,0,0.1,0,0,0.1c0,0,0,0,0-0.1c0,0.1,0.1,0,0,0.1c0-0.1,0.1,0,0.1-0.1c0,0,0,0,0,0c0,0,0,0,0,0c0-0.1,0-0.1,0-0.1
				c0,0,0,0.1,0,0.1C36.6,18.2,36.6,18.2,36.7,18.2C36.6,18.1,36.6,18.1,36.7,18.2C36.6,18.1,36.6,18.2,36.7,18.2
				C36.7,18.2,36.7,18.2,36.7,18.2C36.7,18.2,36.7,18.2,36.7,18.2 M37.4,18.1L37.4,18.1C37.4,18.1,37.4,18.1,37.4,18.1
				C37.4,18.1,37.4,18.1,37.4,18.1 M37.4,18.1C37.4,18.1,37.4,18.1,37.4,18.1C37.4,18.1,37.4,18.1,37.4,18.1
				C37.4,18.1,37.4,18.1,37.4,18.1 M37.3,17.8C37.3,17.8,37.3,17.8,37.3,17.8C37.3,17.8,37.3,17.8,37.3,17.8L37.3,17.8
				C37.3,17.8,37.3,17.8,37.3,17.8"/>
			<path class="st3" d="M58.6,17.7C58.6,17.7,58.6,17.8,58.6,17.7C58.5,17.8,58.6,17.8,58.6,17.7c-0.1,0-0.1,0.1-0.1,0.1
				c0,0,0,0,0,0c0,0-0.1,0-0.1,0.1c0,0,0,0,0,0c0,0,0,0,0,0.1c0,0,0,0,0,0c0,0,0,0,0,0l0,0c0,0,0,0,0-0.1c0,0-0.1,0.1-0.1,0
				c0,0,0.1,0,0-0.1l0,0c0-0.1,0,0,0-0.1c-0.1,0-0.1,0-0.1,0c0,0,0,0,0,0.1c-0.1,0,0-0.1-0.1-0.1c0,0,0,0.1,0,0.1l0,0
				c0,0,0,0.1-0.1,0c0,0,0,0,0,0c0,0,0,0,0,0l0-0.1c0,0-0.1,0-0.1,0.1c0,0,0,0,0,0c-0.1,0-0.1,0-0.2,0l0,0c0,0,0,0,0,0c0,0,0,0,0,0
				c0,0,0,0,0,0c0,0-0.1,0.1-0.2,0l0,0c0,0,0,0.1-0.1,0l0,0c-0.1,0-0.2,0-0.2,0c0,0.1-0.1,0-0.1,0.1c0,0,0-0.1-0.1-0.1
				c0,0,0,0.1,0,0.1v0l0,0l0-0.1l0,0c0,0,0,0,0,0c0,0-0.1,0-0.1-0.1l-0.1,0c0,0,0,0,0,0c0,0,0,0,0,0c0,0,0,0,0,0c0,0-0.1,0-0.1,0
				l0,0c0,0-0.1,0-0.2,0c0,0,0,0.1,0,0.1l0,0c0,0,0,0,0,0.1c0,0,0-0.1,0-0.1l0,0c0,0,0,0,0,0c0,0,0,0,0,0l0,0c0,0-0.1,0-0.1,0
				c0,0,0,0,0,0.1c0,0-0.1,0-0.1,0c0,0,0,0,0,0.1c0,0,0,0,0-0.1c0,0-0.1,0-0.1,0c0,0,0,0,0,0c0,0,0,0,0,0v0c-0.1,0.1-0.1-0.1-0.2,0
				v0l-0.1,0c0,0,0,0,0,0c-0.1,0.1-0.1,0-0.1,0c0-0.1-0.1,0-0.2-0.1l0,0c0,0,0,0,0,0c0,0,0,0,0,0c-0.1,0-0.2,0-0.4-0.1
				c0,0,0,0.1-0.1,0.1l0,0c-0.1,0.1-0.2,0-0.3,0c0,0,0,0,0,0c0,0-0.1,0-0.1,0c0,0,0,0,0,0c0,0,0,0-0.1,0c0,0,0,0,0,0c0,0-0.1,0,0,0
				c0,0-0.1,0-0.1,0c0,0,0,0-0.1,0c0-0.1-0.1-0.1-0.1,0c0,0,0,0,0,0c0,0,0,0,0,0c0-0.1-0.1,0.1-0.1,0c-0.1,0-0.1,0.1-0.2,0.1
				c0-0.1,0.1,0,0.1-0.1c0,0-0.1,0.1-0.1,0.1c0,0,0,0,0,0c-0.1,0-0.1,0-0.2,0c0,0,0,0,0,0c0,0,0,0,0,0l0,0c0,0,0,0.1,0,0.1
				c0-0.1-0.1,0,0-0.1c0,0,0,0,0,0c0,0,0,0,0,0c0,0,0,0-0.1,0c0,0,0,0,0,0c0,0,0,0.1-0.1,0c0,0,0,0,0,0c0,0-0.1,0.1-0.1,0
				c0-0.1,0,0,0-0.1l0,0l0,0c0,0,0,0-0.1,0l0,0l0,0l0,0c0,0,0,0.1,0,0.1c0,0,0,0,0,0l0,0c0,0,0,0,0,0c0,0,0-0.1,0-0.1
				c0,0-0.1,0-0.1,0.1c0,0,0,0,0,0v0c0,0,0,0,0,0c0,0,0,0.1,0,0c0,0,0,0,0,0c0,0-0.1,0-0.1,0c0-0.1,0,0,0-0.1
				c-0.1,0-0.1,0.1-0.2,0.1l0,0c0,0.1,0,0-0.1,0c0,0,0,0,0,0c0,0-0.1,0-0.1,0v0c0,0,0,0-0.1,0c0,0,0,0,0,0c-0.1-0.1-0.1,0.1-0.2,0
				c0,0,0,0,0,0l0,0c0,0,0,0,0,0c0,0,0,0,0,0c0,0,0-0.1,0-0.1c0,0,0,0,0,0c0-0.1,0,0.1,0,0v0c0,0,0,0,0,0c0,0,0,0,0,0
				c0,0,0,0.1-0.1,0c0,0,0,0,0,0c0,0,0,0,0,0v0l0,0l0,0c0,0.1-0.1,0-0.1,0.1c0-0.1,0,0,0-0.1c0,0,0,0,0,0c0,0,0,0,0,0c0,0,0,0,0,0
				c0,0,0,0,0,0c0,0-0.1-0.1-0.1,0c0,0,0,0.1-0.1,0.1c0,0,0-0.1,0-0.1c0,0,0,0-0.1,0c0,0,0,0,0,0c0,0,0,0,0,0c0,0,0,0,0-0.1
				c0,0,0,0-0.1,0c0,0,0,0,0,0c0,0-0.1,0-0.1,0.1l0,0c0,0,0,0,0,0c0,0,0,0,0,0l0,0c0,0.1,0.1,0,0.1,0l0,0.1l0,0c0,0,0,0,0,0.1
				c0,0,0,0,0,0c0,0,0,0,0,0l0,0c0,0,0,0,0,0c0,0,0.1,0,0.1,0h0c0,0,0,0,0-0.1l0,0.1l0,0c0,0,0,0,0,0c0,0,0,0,0,0c0,0,0.1,0,0.1,0.1
				c0,0,0,0,0-0.1c0,0.1,0,0,0,0c0,0,0,0,0,0.1c0-0.1,0,0,0.1,0c0-0.1,0,0,0.1,0c0,0,0.1,0,0.1,0v0c0-0.1,0,0,0.1-0.1c0,0,0,0,0,0.1
				h0c0,0,0,0,0,0v0c0,0,0.1,0,0.1,0c0,0,0-0.1,0-0.1c0,0,0,0.1,0,0.1c0,0,0,0,0,0l0,0c0,0,0,0,0,0c0,0,0,0,0,0c0,0,0,0,0,0
				c0,0,0,0,0,0c0,0,0,0,0,0c0,0,0,0,0,0c0,0,0,0,0,0c0,0,0,0,0,0c0,0,0.1,0,0,0l0,0v0l0,0l0,0c0,0,0.1,0,0.1,0v0c0,0,0.1,0,0.1,0
				c0,0,0,0,0,0c0,0,0,0,0.1,0c0,0,0,0,0,0c0,0,0,0,0.1,0c0,0,0,0,0,0l0,0c0,0,0,0,0,0l0,0c0,0.1,0.1-0.1,0.1,0c0,0,0,0,0-0.1
				c0,0,0.1,0.1,0.1,0.1c0,0,0-0.1,0.1-0.1c0,0,0-0.1,0-0.1c0,0,0,0.1,0,0.1c0,0,0,0,0,0c0,0,0,0,0,0v0c0,0,0,0,0,0c0,0,0,0,0,0
				c0,0,0.1,0,0.1,0c0,0,0,0,0,0c0,0,0,0,0.1,0c0,0,0,0.1,0,0c0,0,0,0,0,0.1c0,0,0,0,0.1,0l0,0c0,0,0,0,0,0l0,0c0,0,0,0,0,0
				c0,0,0-0.1,0-0.1c0,0,0,0,0,0c0,0,0,0,0,0c0,0,0,0,0,0c0,0,0,0,0,0c0,0,0,0,0,0c0,0,0,0,0,0c0,0,0,0,0-0.1c0,0,0,0,0,0l0,0
				c0,0,0,0,0,0c0,0,0,0,0,0c0,0,0,0,0.1,0c0,0,0,0,0,0.1c0,0,0,0,0.1,0c0,0,0,0,0-0.1l-0.1,0l0,0c0,0,0,0,0,0c0,0,0,0,0,0
				c0,0.1,0,0,0.1,0l0,0.1c0,0,0.1,0,0.1,0l0,0c0,0,0,0,0,0c0,0,0,0,0,0.1c0,0,0,0,0-0.1l0,0c0,0,0-0.1,0.1-0.1c0,0,0,0.1,0,0.1
				c0,0,0,0,0,0c0,0,0,0,0,0c0,0,0,0,0,0c0,0,0,0,0,0c0,0,0,0,0,0c0,0.1,0.1,0,0.1,0.1c0,0,0.1,0,0.1,0c0,0,0,0,0,0c0,0,0-0.1,0.1,0
				c0,0,0,0,0,0c0,0.1,0.1,0,0.1,0l0,0c0,0,0.1,0,0.1,0c0,0,0,0,0,0c0,0,0.1-0.1,0.1-0.1c0,0,0,0,0,0.1c0,0,0-0.1,0-0.1
				c0,0,0,0,0,0.1h0c0,0,0,0,0,0v0c0,0,0-0.1,0.1-0.1v0c0-0.1,0,0,0,0l0,0.1c0,0,0.1-0.1,0.1-0.1c0,0,0,0.1-0.1,0.1c0,0,0.1,0,0.1,0
				c0,0,0,0,0,0c0,0,0-0.1,0.1-0.1c0,0.1,0.1,0,0.1,0.1c0.1,0,0.1,0,0.2,0c0-0.1,0,0,0-0.1c0,0,0,0,0,0l0,0.1c0,0,0,0,0,0
				c0,0,0,0,0,0.1c0,0,0,0,0,0l0,0c0,0,0,0.1,0.1,0l0,0c0,0,0.1,0,0.1-0.1c0,0,0,0,0,0c0.1,0,0.1-0.1,0.2,0v0c0,0,0,0,0,0
				c0,0,0,0,0,0c0,0,0,0,0,0l0,0c0,0,0.1-0.1,0.1-0.1c0,0.1,0,0.1,0.1,0.1v0c0.1,0,0.1-0.1,0.2-0.1c0,0.1,0.1,0,0.2,0.1
				c0,0,0,0,0-0.1c0,0,0,0,0,0l0,0c0,0.1,0,0,0.1,0v-0.1c0.1,0.1,0.2,0,0.2,0.1c0,0,0,0,0,0l0,0c0,0,0.1,0,0.1,0l0,0
				c0,0,0-0.1,0.1-0.1l0,0.1c0,0,0.1,0.1,0.2,0c0,0,0,0,0,0c0,0,0.1,0,0.1,0c0,0,0,0,0.1,0v0c0-0.1,0-0.1,0.1-0.1c0,0,0,0,0,0
				c0,0,0,0,0,0l0,0c0,0,0,0,0,0c0,0,0,0,0,0c0,0,0,0,0,0c0,0,0,0,0,0c0,0,0.1,0,0.1,0c0,0,0,0,0,0c0,0-0.1,0-0.1,0c0,0,0,0,0,0.1
				c0,0,0.1-0.1,0.1-0.1c0,0,0,0,0,0v0c0,0,0,0,0,0c0,0,0,0,0,0c0,0,0,0,0,0c0,0,0,0,0-0.1c0,0,0,0,0,0l0,0l0,0c0,0,0,0,0,0
				c0,0,0,0,0,0c0,0,0-0.1,0-0.1c0,0.1,0.1,0.1,0.1,0.1c0,0,0.1,0,0.1-0.1c0,0,0,0,0,0c0,0,0,0,0,0c0,0,0.1,0,0.1-0.1c0,0,0,0,0,0v0
				c0.1,0.1,0.1-0.1,0.2,0c0,0,0,0,0,0c0.1,0,0.2,0,0.3,0c0,0,0,0,0.1,0v0l0,0c0,0,0.1,0.1,0.1,0v0c0,0,0.1,0,0.1,0c0,0,0,0,0,0v0
				l0,0c0,0,0,0.1,0,0.1c0,0,0.1-0.1,0.1-0.1c0,0,0,0,0,0l0,0c0-0.1,0-0.1,0-0.2l0,0l0,0l0,0c0,0,0,0,0,0c0,0,0,0,0,0l0,0.1
				c0,0,0,0,0-0.1c0,0,0,0.1,0,0.1c0,0,0-0.1,0,0c0,0,0,0,0,0c0,0,0,0-0.1,0c0,0,0,0,0,0c0,0,0,0,0,0c0-0.1-0.1,0,0-0.1
				c0,0.1-0.1,0-0.1,0.1c0,0,0,0,0,0c0,0,0,0,0,0c0,0.1,0,0.1-0.1,0.1c0-0.1,0-0.1,0-0.1C58.7,17.8,58.7,17.8,58.6,17.7
				C58.7,17.8,58.7,17.8,58.6,17.7C58.7,17.9,58.6,17.8,58.6,17.7C58.6,17.8,58.6,17.8,58.6,17.7C58.6,17.8,58.6,17.7,58.6,17.7
				 M57.9,17.9L57.9,17.9C57.9,17.9,57.9,17.9,57.9,17.9C57.9,17.9,57.9,17.9,57.9,17.9 M57.9,17.9C57.9,17.9,57.9,17.9,57.9,17.9
				C57.9,17.9,57.9,17.9,57.9,17.9C57.9,17.9,57.9,17.9,57.9,17.9 M58,18.2C58,18.2,58,18.2,58,18.2C58,18.1,58,18.1,58,18.2
				L58,18.2C58,18.1,58,18.2,58,18.2"/>
		</g>
		<g>
			<path class="st3" d="M17.3,23.9C17.3,23.9,17.3,23.8,17.3,23.9C17.3,23.8,17.3,23.8,17.3,23.9c0.1,0,0.1-0.1,0.2-0.1c0,0,0,0,0,0
				c0,0,0.1,0,0.1-0.1c0,0,0,0,0,0c0,0,0-0.1,0-0.1c0,0,0,0,0,0c0,0,0,0,0,0l0,0c0,0.1,0,0,0,0.1c0,0,0.1-0.1,0.1,0c0,0-0.1,0,0,0.1
				l0,0c0,0.1,0,0,0,0.1c0.1,0,0.1,0,0.1,0c0,0,0,0,0-0.1c0.1,0,0.1,0.1,0.1,0.1c0,0,0-0.1,0.1-0.1l0,0.1c0.1,0,0-0.1,0.1,0
				c0,0,0,0,0,0c0,0,0,0,0.1,0l0,0c0.1,0,0.1,0,0.2-0.1c0,0,0,0,0,0c0.1,0,0.2,0,0.3,0l0,0c0,0,0,0,0,0c0,0,0,0,0,0c0,0,0,0,0,0
				c0.1,0,0.2-0.1,0.2,0l0,0c0,0,0.1-0.1,0.1,0v0c0.1,0,0.2,0,0.3,0c0-0.1,0.1,0,0.1-0.1c0.1,0,0,0.1,0.1,0.1c0,0,0-0.1,0.1-0.1l0,0
				l0,0l0,0.1l0,0c0,0,0,0,0,0c0,0,0.1,0,0.1,0.1l0.1,0c0,0,0,0,0,0c0.1,0,0,0,0.1,0c0,0,0,0,0,0c0,0,0.1,0,0.1,0l0,0
				c0.1,0,0.2,0,0.2,0c0,0,0-0.1,0-0.1l0,0.1c0,0,0,0,0-0.1c0,0,0,0.1,0,0.1l0,0c0,0,0,0,0,0c0,0,0.1,0,0.1,0l0,0c0.1,0,0.1,0,0.2,0
				c0,0,0,0,0-0.1c0,0,0.1,0,0.2,0c0,0,0,0,0-0.1c0,0,0.1,0,0,0.1c0.1,0,0.1,0,0.2,0c0,0,0,0,0,0c0,0,0,0,0,0l0,0
				c0.1-0.1,0.2,0.1,0.3,0l0,0l0.1,0c0,0,0,0,0,0.1c0.1-0.1,0.1,0,0.2,0c0.1,0.1,0.2,0,0.3,0.1v0c0,0,0,0,0,0c0,0,0,0,0,0
				c0.2,0,0.3,0,0.5,0.1c0.1,0,0-0.1,0.1-0.1l0,0c0.1-0.1,0.3,0,0.4,0c0,0,0,0,0,0c0,0,0.1,0,0.1,0c0,0,0,0,0,0c0,0,0.1,0,0.1,0
				c0,0,0,0,0,0c0,0,0.1,0,0.1,0c0.1,0,0.1,0,0.1,0c0,0,0.1,0,0.1,0c0,0.1,0.1,0.1,0.1,0c0,0,0,0,0,0.1c0,0,0.1,0,0.1,0
				c0.1,0.1,0.1-0.1,0.2,0c0.1,0,0.2-0.1,0.3-0.1c0,0.1-0.1,0-0.1,0.1c0.1,0,0.1-0.1,0.2-0.1c0,0,0,0,0,0c0.1,0,0.2,0,0.2,0
				c0,0,0,0,0,0c0,0,0,0,0,0l0,0c0,0,0.1-0.1,0.1-0.1c0,0.1,0.1,0,0,0.1c0,0,0,0,0,0c0,0,0,0,0,0c0.1,0,0,0,0.1,0c0,0,0,0,0,0
				c0,0,0-0.1,0.1,0c0,0,0,0,0,0c0.1,0,0.1-0.1,0.2,0c0,0.1,0,0,0,0.1l0,0l0,0c0,0,0.1,0,0.1,0l0,0l0.1,0l0,0c0,0,0-0.1,0-0.1
				c0,0,0,0,0.1,0l0,0c0,0,0,0,0.1,0c0,0,0,0.1,0,0.1c0,0,0.1,0,0.1-0.1c0,0,0,0,0,0l0,0c0,0,0,0,0,0c0.1,0,0-0.1,0,0c0,0,0,0,0,0
				c0.1,0,0.1,0,0.2,0c0,0.1,0,0,0,0.1c0.1,0,0.2-0.1,0.3-0.1l0,0c0-0.1,0,0,0.1,0c0,0,0,0,0,0c0.1,0,0.1,0,0.2,0l0,0
				c0,0,0.1,0,0.1,0c0,0,0,0,0,0c0.1,0.1,0.2-0.1,0.3,0c0,0,0,0,0,0l0.1,0c0,0,0,0,0,0c0,0,0,0,0,0c0,0,0,0.1,0,0.1c0,0,0,0,0,0
				c0,0.1,0-0.1,0.1,0v0c0,0,0,0,0.1,0c0,0,0,0,0,0.1c0,0,0.1-0.1,0.1,0c0,0,0,0,0,0c0,0,0,0,0.1,0l0,0l0,0v0c0-0.1,0.1,0,0.1-0.1
				c0,0.1,0,0,0,0.1c0,0,0,0,0,0c0,0,0,0,0.1,0c0,0,0,0,0,0c0,0,0,0,0,0c0,0,0.1,0.1,0.2,0c0.1,0,0.1-0.1,0.1-0.1c0,0,0,0.1,0,0.1
				c0,0,0.1,0,0.1,0c0,0,0,0,0,0c0,0,0-0.1,0,0c0,0,0,0,0,0.1c0,0,0.1,0,0.1-0.1c0,0,0,0,0,0.1c0,0,0.1,0,0.1-0.1l0,0c0,0,0,0,0,0
				c0,0,0,0,0,0l0,0c0-0.1-0.1,0-0.1,0l0-0.1l0,0.1c0,0,0,0,0-0.1c0,0,0,0-0.1,0c0,0,0,0,0,0l0,0c0,0,0,0,0,0c-0.1,0-0.1,0-0.1,0v0
				c-0.1,0,0,0-0.1,0.1l0-0.1l0,0c0,0,0,0,0,0c0,0,0,0,0,0c0,0-0.1,0-0.1,0c0,0,0,0,0,0c0-0.1,0,0-0.1,0c0,0,0,0,0-0.1
				c0,0.1-0.1,0-0.1,0c0,0.1-0.1,0-0.1,0c0,0-0.1,0-0.1,0v0c0,0.1-0.1,0-0.1,0.1c0,0,0,0,0-0.1h0c0,0,0,0,0,0l0,0c0,0-0.1,0-0.1,0
				c0,0,0,0.1,0,0.1c0,0,0-0.1,0-0.1c0,0,0,0,0,0l0,0c0,0,0,0,0,0c0,0,0,0,0,0c0,0,0,0,0,0c0,0,0,0,0,0c0,0,0,0,0,0c0,0,0,0,0,0
				c0,0,0,0,0,0c0,0,0,0,0,0c0,0-0.1,0-0.1,0.1v0l0,0l0,0l0,0c-0.1,0-0.1,0-0.2,0v0c0,0-0.1,0-0.1,0c0,0,0,0,0,0c0,0,0,0-0.1,0
				c0,0,0,0,0,0c0,0,0,0-0.1,0c0,0,0,0,0,0l0,0c0,0,0,0-0.1,0l0,0c-0.1-0.1-0.2,0.1-0.2,0c0,0,0,0,0,0.1c0,0-0.1-0.1-0.1-0.1
				c0,0,0,0.1-0.1,0.1c0,0,0,0.1,0,0.1c0,0,0-0.1,0-0.1c0,0,0,0,0,0c0,0,0,0,0,0v0c0,0-0.1,0-0.1,0c0,0,0,0,0,0c0,0-0.1,0-0.1,0
				c0,0,0,0,0,0c-0.1,0,0,0-0.1,0c0,0,0-0.1,0,0c0,0,0,0,0-0.1c0,0-0.1,0-0.1,0l0,0c0,0,0,0,0,0l0,0c0,0,0,0,0,0c0,0,0,0.1,0,0.1
				c0,0,0,0-0.1,0c0.1,0,0,0,0-0.1c0,0,0,0,0,0c0,0,0,0,0,0c-0.1,0,0,0.1-0.1,0.1c0,0,0-0.1,0,0c0,0,0,0,0,0.1c0,0,0,0-0.1,0l0,0
				c0,0,0,0-0.1,0c0,0,0,0,0,0c0,0-0.1,0-0.1,0c0,0,0,0,0-0.1c0,0,0,0-0.1,0c0,0,0,0,0,0.1l0.1,0l-0.1,0.1c0,0,0.1,0,0.1,0
				c0,0,0,0,0,0c0-0.1-0.1,0-0.1,0v-0.1c0,0-0.1,0-0.2,0l0,0c0,0,0,0-0.1,0c0,0,0,0,0-0.1c0,0-0.1,0-0.1,0.1l0,0
				c-0.1,0-0.1,0.1-0.1,0.1c0,0,0-0.1,0-0.1c0,0,0,0,0,0c0,0,0,0-0.1,0c0,0,0,0,0,0c0,0,0,0,0,0c0,0,0,0,0,0.1
				c-0.1-0.1-0.2,0-0.2-0.1c0,0-0.1,0-0.1,0c0,0,0,0,0,0c0,0,0,0.1-0.1,0.1c0,0,0,0,0,0c0-0.1-0.1,0-0.1,0l0,0c0,0-0.1,0-0.1,0
				c0,0,0,0,0,0c0,0-0.1,0.1-0.2,0.1c0,0,0,0,0-0.1c0,0,0,0.1,0,0.1c0,0,0,0-0.1-0.1h0c0-0.1,0,0-0.1,0l0,0c-0.1,0-0.1,0.1-0.1,0.1
				l0,0c-0.1,0.1,0,0-0.1,0l0-0.1c0,0-0.1,0.1-0.1,0.1c0,0,0.1-0.1,0.1-0.1c0,0-0.1,0-0.1,0c0,0,0,0,0,0c0,0-0.1,0.1-0.1,0.1
				c0-0.1-0.1,0-0.2-0.1c-0.1,0-0.2,0-0.3,0c0,0.1,0,0,0,0.1c0,0,0,0,0,0l-0.1-0.1c0,0,0,0,0,0c0,0,0,0,0-0.1c0,0,0,0,0,0l0,0
				c-0.1,0-0.1-0.1-0.1,0l0,0c0,0-0.1,0-0.2,0.1c0,0,0,0,0,0c-0.1,0-0.2,0.1-0.3,0l0,0c0,0,0,0-0.1,0c0,0,0,0,0,0c0,0,0,0-0.1,0l0,0
				c-0.1,0-0.1,0.1-0.2,0.1c0-0.1-0.1-0.1-0.1-0.1l0,0c-0.1,0-0.2,0.1-0.3,0.1c-0.1-0.1-0.2,0-0.3-0.1c0,0,0,0.1,0,0.1
				c0,0-0.1,0-0.1,0h0c0-0.1-0.1,0-0.1,0v0.1c-0.1-0.1-0.2,0-0.3-0.1c0,0,0,0-0.1,0v0c-0.1,0-0.1,0-0.2,0l0,0c0,0-0.1,0.1-0.1,0.1
				l0-0.1c-0.1,0-0.1-0.1-0.2,0c0,0,0,0,0,0c0,0-0.1,0-0.1,0c0-0.1-0.1,0-0.1,0l0,0c0,0.1,0,0.1-0.1,0.1c0,0,0,0,0,0c0,0,0,0-0.1,0
				l0,0c0,0,0,0-0.1,0c0,0-0.1,0-0.1,0c0,0,0,0.1-0.1,0c0,0,0,0,0,0c-0.1,0-0.1,0-0.1,0c0,0,0,0,0,0c0,0,0.1,0,0.1,0c0,0,0,0,0-0.1
				c0,0-0.1,0.1-0.1,0.1c0,0,0,0,0,0v0c0,0,0,0,0,0c0,0,0,0,0,0c0,0,0,0-0.1,0c0,0,0,0,0,0.1c0,0,0,0,0,0c0,0,0,0,0,0v0
				c0,0,0,0,0.1,0c0,0,0,0-0.1,0c0,0,0,0.1,0,0.1c0-0.1-0.1-0.1-0.1-0.1c-0.1,0-0.2,0-0.2,0.1c0,0,0,0,0,0c0,0,0,0,0,0
				c0,0-0.1,0-0.1,0.1c0,0,0,0,0,0l0,0c-0.1-0.1-0.2,0.1-0.3,0c0,0,0,0,0,0c-0.2,0-0.3,0-0.5,0c0,0-0.1,0-0.1,0l0,0l0,0
				c-0.1,0-0.1-0.1-0.2,0l0,0c0,0-0.1,0-0.1,0c0,0,0,0,0,0v0l-0.1,0c-0.1,0,0-0.1-0.1-0.1c0,0-0.1,0.1-0.1,0.1c0,0,0,0,0,0l0,0
				c0,0.1,0,0.1,0.1,0.2l0,0l0,0l0,0c0,0,0,0,0,0c0,0,0,0,0,0l0-0.1c0,0,0,0.1,0,0.1c0,0,0-0.1,0-0.1c0,0,0,0.1,0,0c0,0,0,0,0,0
				c0,0,0.1,0,0.1,0c0,0,0.1,0,0.1,0.1c0,0,0,0,0.1-0.1c0,0.1,0.1,0,0.1,0.1c0-0.1,0.1,0,0.2-0.1c0,0,0,0,0,0c0,0,0.1,0,0.1,0
				c0-0.1,0.1-0.1,0.1-0.1c0,0.1,0,0.1,0,0.1c0,0,0.1,0,0-0.1C17.2,23.8,17.1,23.8,17.3,23.9C17.2,23.8,17.2,23.8,17.3,23.9
				C17.3,23.8,17.2,23.8,17.3,23.9C17.3,23.8,17.3,23.9,17.3,23.9 M18.3,23.7L18.3,23.7C18.3,23.7,18.3,23.7,18.3,23.7
				C18.3,23.7,18.3,23.7,18.3,23.7 M18.4,23.7C18.4,23.7,18.4,23.7,18.4,23.7C18.4,23.7,18.4,23.7,18.4,23.7
				C18.4,23.7,18.4,23.7,18.4,23.7 M18.2,23.5C18.2,23.5,18.2,23.5,18.2,23.5C18.2,23.5,18.2,23.5,18.2,23.5L18.2,23.5
				C18.2,23.5,18.2,23.5,18.2,23.5"/>
			<path class="st3" d="M36.7,23.9C36.7,23.9,36.7,23.8,36.7,23.9C36.7,23.8,36.7,23.8,36.7,23.9c0.1,0,0.1-0.1,0.1-0.1c0,0,0,0,0,0
				c0,0,0.1,0,0.1-0.1c0,0,0,0,0,0c0,0,0-0.1,0-0.1c0,0,0,0,0,0c0,0,0,0,0,0l0,0c0,0.1,0,0,0,0.1c0,0,0.1-0.1,0.1,0c0,0,0,0,0,0.1
				l0,0c0,0.1,0,0,0,0.1c0,0,0,0,0.1,0c0,0,0,0,0-0.1c0.1,0,0,0.1,0.1,0.1c0,0,0-0.1,0-0.1l0,0.1c0,0,0-0.1,0.1,0c0,0,0,0,0,0
				c0,0,0,0,0,0l0,0c0,0,0.1,0,0.1-0.1c0,0,0,0,0,0c0.1,0,0.1,0,0.2,0l0,0c0,0,0,0,0,0c0,0,0,0,0,0c0,0,0,0,0,0c0,0,0.1-0.1,0.2,0
				l0,0c0,0,0-0.1,0.1,0l0,0c0.1,0,0.1,0,0.2,0c0-0.1,0.1,0,0.1-0.1c0,0,0,0.1,0.1,0.1c0,0,0-0.1,0-0.1v0l0,0l0,0.1l0,0c0,0,0,0,0,0
				c0,0,0.1,0,0.1,0.1l0.1,0c0,0,0,0,0,0c0,0,0,0,0,0c0,0,0,0,0,0c0,0,0.1,0,0.1,0l0,0c0,0,0.1,0,0.2,0c0,0,0-0.1,0-0.1l0,0.1
				c0,0,0,0,0-0.1c0,0,0,0.1,0,0.1l0,0c0,0,0,0,0,0c0,0,0,0,0,0v0c0.1,0,0.1,0,0.1,0c0,0,0,0,0-0.1c0,0,0.1,0,0.1,0c0,0,0,0,0-0.1
				c0,0,0,0,0,0.1c0,0,0.1,0,0.1,0c0,0,0,0,0,0c0,0,0,0,0,0l0,0c0.1-0.1,0.2,0.1,0.2,0v0l0.1,0c0,0,0,0,0,0.1c0.1-0.1,0.1,0,0.1,0
				c0,0.1,0.1,0,0.2,0.1v0c0,0,0,0,0,0c0,0,0,0,0,0c0.1,0,0.2,0,0.3,0.1c0,0,0-0.1,0.1-0.1l0,0c0.1-0.1,0.2,0,0.3,0c0,0,0,0,0,0
				c0,0,0.1,0,0.1,0c0,0,0,0,0,0c0,0,0,0,0,0c0,0,0,0,0,0c0,0,0,0,0,0c0,0,0.1,0,0.1,0c0,0,0.1,0,0.1,0c0,0.1,0,0.1,0.1,0
				c0,0,0,0,0,0.1c0,0,0,0,0,0c0,0.1,0.1-0.1,0.1,0c0.1,0,0.1-0.1,0.2-0.1c0,0.1-0.1,0-0.1,0.1c0.1,0,0.1-0.1,0.2-0.1c0,0,0,0,0,0
				c0.1,0,0.1,0,0.2,0c0,0,0,0,0,0c0,0,0,0,0,0l0,0c0,0,0-0.1,0-0.1c0,0.1,0,0,0,0.1c0,0,0,0,0,0c0,0,0,0,0,0c0,0,0,0,0.1,0
				c0,0,0,0,0,0c0,0,0-0.1,0.1,0c0,0,0,0,0,0c0.1,0,0.1-0.1,0.1,0c0,0.1,0,0,0,0.1l0,0v0c0,0,0,0,0.1,0l0,0l0,0l0,0c0,0,0-0.1,0-0.1
				c0,0,0,0,0,0l0,0c0,0,0,0,0,0c0,0,0,0.1,0,0.1c0,0,0.1,0,0.1-0.1c0,0,0,0,0,0l0,0c0,0,0,0,0,0c0,0,0-0.1,0,0c0,0,0,0,0,0
				c0,0,0.1,0,0.1,0c0,0.1,0,0,0,0.1c0,0,0.1-0.1,0.2-0.1l0,0c0-0.1,0,0,0.1,0c0,0,0,0,0,0c0,0,0.1,0,0.1,0l0,0c0,0,0.1,0,0.1,0
				c0,0,0,0,0,0c0.1,0.1,0.1-0.1,0.2,0c0,0,0,0,0,0l0.1,0c0,0,0,0,0,0c0,0,0,0,0,0c0,0,0,0.1,0,0.1c0,0,0,0,0,0c0,0.1,0-0.1,0,0l0,0
				c0,0,0,0,0,0c0,0,0,0,0,0.1c0,0,0-0.1,0.1,0c0,0,0,0,0,0c0,0,0,0,0,0l0,0l0,0l0,0c0-0.1,0.1,0,0.1-0.1c0,0.1,0,0,0,0.1
				c0,0,0,0,0,0c0,0,0,0,0,0c0,0,0,0,0,0c0,0,0,0,0,0c0,0,0.1,0.1,0.1,0c0,0,0.1-0.1,0.1-0.1c0,0,0,0.1,0,0.1c0,0,0,0,0,0
				c0,0,0,0,0,0c0,0,0-0.1,0,0c0,0,0,0,0,0.1c0,0,0,0,0.1-0.1c0,0,0,0,0,0.1c0,0,0.1,0,0.1-0.1l0,0c0,0,0,0,0,0c0,0,0,0,0,0v0
				c0-0.1,0,0-0.1,0l0-0.1l0,0.1c0,0,0,0,0-0.1c0,0,0,0,0,0c0,0,0,0,0,0l0,0c0,0,0,0,0,0c0,0-0.1,0-0.1,0v0c0,0,0,0,0,0.1l0-0.1l0,0
				c0,0,0,0,0,0c0,0,0,0,0,0c0,0-0.1,0-0.1,0c0,0,0,0,0,0c0-0.1,0,0-0.1,0c0,0,0,0,0-0.1c0,0.1,0,0-0.1,0c0,0.1,0,0-0.1,0
				c0,0-0.1,0-0.1,0v0c0,0.1,0,0,0,0.1c0,0,0,0,0-0.1h0c0,0,0,0,0,0v0c0,0,0,0-0.1,0c0,0,0,0.1,0,0.1c0,0,0-0.1,0-0.1c0,0,0,0,0,0
				l0,0c0,0,0,0,0,0c0,0,0,0,0,0c0,0,0,0,0,0c0,0,0,0,0,0c0,0,0,0,0,0c0,0,0,0,0,0c0,0,0,0,0,0c0,0,0,0,0,0c0,0-0.1,0-0.1,0.1l0,0h0
				l0,0l0,0c0,0-0.1,0-0.1,0v0c0,0-0.1,0-0.1,0c0,0,0,0,0,0c0,0,0,0-0.1,0c0,0,0,0,0,0c0,0,0,0-0.1,0c0,0,0,0,0,0l0,0c0,0,0,0,0,0
				l0,0c-0.1-0.1-0.1,0.1-0.1,0c0,0,0,0,0,0.1c0,0,0-0.1-0.1-0.1c0,0,0,0.1-0.1,0.1c0,0,0,0.1,0,0.1c0,0,0-0.1,0-0.1c0,0,0,0,0,0
				c0,0,0,0,0,0v0c0,0-0.1,0,0,0c0,0,0,0,0,0c0,0,0,0-0.1,0c0,0,0,0,0,0c0,0,0,0-0.1,0c0,0,0-0.1,0,0c0,0,0,0,0-0.1c0,0-0.1,0-0.1,0
				l0,0c0,0,0,0,0,0l0,0c0,0,0,0,0,0c0,0,0,0.1,0,0.1c0,0,0,0,0,0c0,0,0,0,0-0.1c0,0,0,0,0,0c0,0,0,0,0,0c0,0,0,0.1-0.1,0.1
				c0,0,0-0.1,0,0c0,0,0,0,0,0.1c0,0,0,0,0,0l0,0c0,0,0,0,0,0c0,0,0,0,0,0c0,0,0,0-0.1,0c0,0,0,0,0-0.1c0,0,0,0-0.1,0c0,0,0,0,0,0.1
				l0.1,0l0,0.1c0,0,0,0,0,0c0,0,0,0,0,0c0-0.1,0,0-0.1,0v-0.1c0,0-0.1,0-0.1,0l0,0c0,0,0,0,0,0c0,0,0,0,0-0.1c0,0,0,0,0,0.1l0,0
				c0,0,0,0.1-0.1,0.1c0,0,0-0.1,0-0.1c0,0,0,0,0,0c0,0,0,0,0,0c0,0,0,0,0,0c0,0,0,0,0,0c0,0,0,0,0,0.1c0-0.1-0.1,0-0.1-0.1
				c0,0-0.1,0-0.1,0c0,0,0,0,0,0c0,0,0,0.1-0.1,0.1c0,0,0,0,0,0c0-0.1,0,0-0.1,0v0c0,0,0,0-0.1,0c0,0,0,0,0,0c0,0-0.1,0.1-0.1,0.1
				c0,0,0,0,0-0.1c0,0,0,0.1,0,0.1c0,0,0,0,0-0.1h0c0-0.1,0,0,0,0v0c0,0,0,0.1-0.1,0.1v0c0,0.1,0,0,0,0l0-0.1c0,0,0,0.1-0.1,0.1
				c0,0,0-0.1,0.1-0.1c0,0,0,0-0.1,0c0,0,0,0,0,0c0,0,0,0.1-0.1,0.1c0-0.1-0.1,0-0.1-0.1c-0.1,0-0.1,0-0.2,0c0,0.1,0,0,0,0.1
				c0,0,0,0,0,0l0-0.1c0,0,0,0,0,0c0,0,0,0,0-0.1c0,0,0,0,0,0l0,0c0,0,0-0.1-0.1,0l0,0c0,0-0.1,0-0.1,0.1c0,0,0,0,0,0
				c0,0-0.1,0.1-0.2,0l0,0c0,0,0,0,0,0c0,0,0,0,0,0c0,0,0,0,0,0l0,0c-0.1,0-0.1,0.1-0.1,0.1c0-0.1,0-0.1-0.1-0.1v0
				c-0.1,0-0.1,0.1-0.2,0.1c0-0.1-0.1,0-0.2-0.1c0,0,0,0.1,0,0.1c0,0,0,0,0,0h0c0-0.1,0,0-0.1,0l0,0.1c0-0.1-0.2,0-0.2-0.1
				c0,0,0,0-0.1,0v0c0,0-0.1,0-0.1,0l0,0c0,0,0,0.1-0.1,0.1l0-0.1c0,0-0.1-0.1-0.2,0c0,0,0,0,0,0c0,0-0.1,0-0.1,0c0-0.1-0.1,0-0.1,0
				v0c0,0.1,0,0.1,0,0.1c0,0,0,0,0,0c0,0,0,0,0,0l0,0c0,0,0,0,0,0c0,0,0,0,0,0c0,0,0,0.1,0,0c0,0,0,0,0,0c0,0-0.1,0-0.1,0
				c0,0,0,0,0,0c0,0,0.1,0,0.1,0c0,0,0,0,0-0.1c0,0-0.1,0.1-0.1,0.1c0,0,0,0,0,0v0c0,0,0,0,0,0c0,0,0,0,0,0c0,0,0,0,0,0
				c0,0,0,0,0,0.1c0,0,0,0,0,0c0,0,0,0,0,0v0c0,0,0,0,0,0c0,0,0,0,0,0c0,0,0,0.1,0,0.1c0-0.1-0.1-0.1-0.1-0.1c0,0-0.1,0-0.1,0.1
				c0,0,0,0,0,0c0,0,0,0,0,0c0,0-0.1,0-0.1,0.1c0,0,0,0,0,0v0c-0.1-0.1-0.1,0.1-0.2,0c0,0,0,0,0,0c-0.1,0-0.2,0-0.3,0c0,0,0,0,0,0
				l0,0l0,0c0,0-0.1-0.1-0.1,0l0,0c0,0-0.1,0-0.1,0c0,0,0,0,0,0v0l0,0c0,0,0-0.1,0-0.1c0,0-0.1,0.1,0,0.1c0,0,0,0,0,0l0,0
				c0,0.1,0,0.1,0,0.2l0,0l0,0l0,0c0,0,0,0,0,0c0,0,0,0,0,0l0-0.1c0,0,0,0.1,0,0.1c0,0,0-0.1,0-0.1c0,0,0,0.1,0,0c0,0,0,0,0,0
				c0,0,0,0,0,0c0,0,0.1,0,0,0.1c0,0,0,0,0-0.1c0,0.1,0.1,0,0,0.1c0-0.1,0.1,0,0.1-0.1c0,0,0,0,0,0c0,0,0,0,0,0c0-0.1,0-0.1,0-0.1
				c0,0.1,0,0.1,0,0.1C36.6,23.8,36.6,23.8,36.7,23.9C36.6,23.8,36.6,23.8,36.7,23.9C36.6,23.8,36.6,23.8,36.7,23.9
				C36.7,23.8,36.7,23.8,36.7,23.9C36.7,23.8,36.7,23.9,36.7,23.9 M37.4,23.7L37.4,23.7C37.4,23.7,37.4,23.7,37.4,23.7
				C37.4,23.7,37.4,23.7,37.4,23.7 M37.4,23.7C37.4,23.7,37.4,23.7,37.4,23.7C37.4,23.7,37.4,23.7,37.4,23.7
				C37.4,23.7,37.4,23.7,37.4,23.7 M37.3,23.5C37.3,23.5,37.3,23.5,37.3,23.5C37.3,23.5,37.3,23.5,37.3,23.5L37.3,23.5
				C37.3,23.5,37.3,23.5,37.3,23.5"/>
			<path class="st3" d="M58.6,23.4C58.6,23.4,58.6,23.5,58.6,23.4C58.5,23.5,58.6,23.4,58.6,23.4c-0.1,0-0.1,0.1-0.1,0.1
				c0,0,0,0,0,0c0,0-0.1,0-0.1,0.1c0,0,0,0,0,0c0,0,0,0.1,0,0.1c0,0,0,0,0,0c0,0,0,0,0,0l0,0c0-0.1,0,0,0-0.1c0,0-0.1,0.1-0.1,0
				c0,0,0.1,0,0-0.1l0,0c0-0.1,0,0,0-0.1c-0.1,0-0.1,0-0.1,0c0,0,0,0,0,0.1c-0.1,0,0-0.1-0.1-0.1c0,0,0,0.1,0,0.1l0-0.1
				c0,0,0,0.1-0.1,0c0,0,0,0,0,0c0,0,0,0,0,0l0,0c0,0-0.1,0-0.1,0.1c0,0,0,0,0,0c-0.1,0-0.1,0-0.2,0l0,0c0,0,0,0,0,0c0,0,0,0,0,0
				c0,0,0,0,0,0c0,0-0.1,0.1-0.2,0l0,0c0,0,0,0.1-0.1,0l0,0c-0.1,0-0.2,0-0.2,0c0,0.1-0.1,0-0.1,0.1c0,0,0-0.1-0.1-0.1
				c0,0,0,0.1,0,0.1v0l0,0l0-0.1l0,0c0,0,0,0,0,0c0,0-0.1,0-0.1-0.1l-0.1,0c0,0,0,0,0,0c0,0,0,0,0,0c0,0,0,0,0,0c0,0-0.1,0-0.1,0
				l0,0c0,0-0.1,0-0.2,0c0,0,0,0.1,0,0.1l0,0c0,0,0,0,0,0.1c0,0,0-0.1,0-0.1l0,0c0,0,0,0,0,0c0,0,0,0,0,0l0,0c0,0-0.1,0-0.1,0
				c0,0,0,0,0,0.1c0,0-0.1,0-0.1,0c0,0,0,0,0,0.1c0,0,0,0,0-0.1c0,0-0.1,0-0.1,0c0,0,0,0,0,0c0,0,0,0,0,0v0c-0.1,0.1-0.1-0.1-0.2,0
				v0l-0.1,0c0,0,0,0,0-0.1c-0.1,0.1-0.1,0-0.1,0c0-0.1-0.1,0-0.2-0.1l0,0c0,0,0,0,0,0c0,0,0,0,0,0c-0.1,0-0.2,0-0.4-0.1
				c0,0,0,0.1-0.1,0.1l0,0c-0.1,0.1-0.2,0-0.3,0c0,0,0,0,0,0c0,0-0.1,0-0.1,0c0,0,0,0,0,0c0,0,0,0-0.1,0c0,0,0,0,0,0c0,0-0.1,0,0,0
				c0,0-0.1,0-0.1,0c0,0,0,0-0.1,0c0-0.1-0.1-0.1-0.1,0c0,0,0,0,0,0c0,0,0,0,0,0c0-0.1-0.1,0.1-0.1,0c-0.1,0-0.1,0.1-0.2,0.1
				c0-0.1,0.1,0,0.1-0.1c0,0-0.1,0.1-0.1,0.1c0,0,0,0,0,0c-0.1,0-0.1,0-0.2,0c0,0,0,0,0,0c0,0,0,0,0,0l0,0c0,0,0,0.1,0,0.1
				c0-0.1-0.1,0,0-0.1c0,0,0,0,0,0c0,0,0,0,0,0c0,0,0,0-0.1,0c0,0,0,0,0,0c0,0,0,0.1-0.1,0c0,0,0,0,0,0c0,0-0.1,0.1-0.1,0
				c0-0.1,0,0,0-0.1l0,0l0,0c0,0,0,0-0.1,0l0,0l0,0l0,0c0,0,0,0.1,0,0.1c0,0,0,0,0,0l0,0c0,0,0,0,0,0c0,0,0-0.1,0-0.1
				c0,0-0.1,0-0.1,0.1c0,0,0,0,0,0v0c0,0,0,0,0,0c0,0,0,0.1,0,0c0,0,0,0,0,0c0,0-0.1,0-0.1,0c0-0.1,0,0,0-0.1
				c-0.1,0-0.1,0.1-0.2,0.1v0c0,0.1,0,0-0.1,0c0,0,0,0,0,0c0,0-0.1,0-0.1,0v0c0,0,0,0-0.1,0c0,0,0,0,0,0c-0.1-0.1-0.1,0.1-0.2,0
				c0,0,0,0,0,0l0,0c0,0,0,0,0,0c0,0,0,0,0,0c0,0,0-0.1,0-0.1c0,0,0,0,0,0c0-0.1,0,0.1,0,0v0c0,0,0,0,0,0c0,0,0,0,0-0.1
				c0,0,0,0.1-0.1,0c0,0,0,0,0,0c0,0,0,0,0,0v0l0,0l0,0c0,0.1-0.1,0-0.1,0.1c0-0.1,0,0,0-0.1c0,0,0,0,0,0c0,0,0,0,0,0c0,0,0,0,0,0
				c0,0,0,0,0,0c0,0-0.1-0.1-0.1,0c0,0,0,0.1-0.1,0.1c0,0,0-0.1,0-0.1c0,0,0,0-0.1,0c0,0,0,0,0,0c0,0,0,0.1,0,0c0,0,0,0,0-0.1
				c0,0,0,0-0.1,0.1c0,0,0,0,0-0.1c0,0-0.1,0-0.1,0.1l0,0c0,0,0,0,0,0c0,0,0,0,0,0l0,0c0,0.1,0.1,0,0.1,0l0,0.1l0,0c0,0,0,0,0,0.1
				c0,0,0,0,0,0c0,0,0,0,0,0l0,0c0,0,0,0,0,0c0,0,0.1,0,0.1,0l0,0c0,0,0,0,0-0.1l0,0.1l0,0c0,0,0,0,0,0c0,0,0,0,0,0
				c0,0,0.1,0,0.1,0.1c0,0,0,0,0,0c0,0.1,0,0,0,0c0,0,0,0,0,0.1c0-0.1,0,0,0.1,0c0-0.1,0,0,0.1,0c0,0,0.1,0,0.1,0v0
				c0-0.1,0,0,0.1-0.1c0,0,0,0,0,0.1h0c0,0,0,0,0,0v0c0,0,0.1,0,0.1,0c0,0,0-0.1,0-0.1c0,0,0,0,0,0.1c0,0,0,0,0,0l0,0c0,0,0,0,0,0
				c0,0,0,0,0,0c0,0,0,0,0,0c0,0,0,0,0,0c0,0,0,0,0,0c0,0,0,0,0,0c0,0,0,0,0,0c0,0,0,0,0,0c0,0,0.1,0,0-0.1v0l0,0l0,0l0,0
				c0,0,0.1,0,0.1,0v0c0,0,0.1,0,0.1,0c0,0,0,0,0,0c0,0,0,0,0.1,0c0,0,0,0,0,0c0,0,0,0,0.1,0c0,0,0,0,0,0l0,0c0,0,0,0,0,0l0,0
				c0,0.1,0.1-0.1,0.1,0c0,0,0,0,0-0.1c0,0,0.1,0.1,0.1,0.1c0,0,0-0.1,0.1-0.1c0,0,0-0.1,0-0.1c0,0,0,0.1,0,0.1c0,0,0,0,0,0
				c0,0,0,0,0,0v0c0,0,0,0,0,0c0,0,0,0,0,0c0,0,0.1,0,0.1,0c0,0,0,0,0,0c0,0,0,0,0.1,0c0,0,0,0.1,0,0c0,0,0,0,0,0.1c0,0,0,0,0.1,0
				l0,0c0,0,0,0,0,0l0,0c0,0,0,0,0,0c0,0,0-0.1,0-0.1c0,0,0,0,0,0c0,0,0,0,0,0.1c0,0,0,0,0,0c0,0,0,0,0,0c0,0,0-0.1,0-0.1
				c0,0,0,0.1,0,0c0,0,0,0,0-0.1c0,0,0,0,0,0l0,0c0,0,0,0,0,0c0,0,0,0,0,0c0,0,0,0,0.1,0c0,0,0,0,0,0.1c0,0,0,0,0.1,0c0,0,0,0,0-0.1
				l-0.1,0l0-0.1c0,0,0,0,0,0c0,0,0,0,0,0c0,0.1,0,0,0.1,0l0,0.1c0,0,0.1,0,0.1,0l0,0c0,0,0,0,0,0c0,0,0,0,0,0.1c0,0,0,0,0-0.1l0,0
				c0,0,0-0.1,0.1-0.1c0,0,0,0.1,0,0.1c0,0,0,0,0,0c0,0,0,0,0,0c0,0,0,0,0,0c0,0,0,0,0,0c0,0,0,0,0-0.1c0,0.1,0.1,0,0.1,0.1
				c0,0,0.1,0,0.1,0c0,0,0,0,0,0c0,0,0-0.1,0.1-0.1c0,0,0,0,0,0c0,0.1,0.1,0,0.1,0l0,0c0,0,0.1,0,0.1,0c0,0,0,0,0,0
				c0,0,0.1-0.1,0.1-0.1c0,0,0,0,0,0.1c0,0,0-0.1,0-0.1c0,0,0,0,0,0.1h0c0,0.1,0,0,0,0v0c0,0,0-0.1,0.1-0.1v0c0-0.1,0,0,0,0l0,0.1
				c0,0,0.1-0.1,0.1-0.1c0,0,0,0.1-0.1,0.1c0,0,0.1,0,0.1,0c0,0,0,0,0,0c0,0,0-0.1,0.1-0.1c0,0.1,0.1,0,0.1,0.1c0.1,0,0.1,0,0.2,0
				c0-0.1,0,0,0-0.1c0,0,0,0,0,0l0,0.1c0,0,0,0,0,0c0,0,0,0,0,0.1c0,0,0,0,0,0l0,0c0,0,0,0.1,0.1,0l0,0c0,0,0.1,0,0.1-0.1
				c0,0,0,0,0,0c0.1,0,0.1-0.1,0.2,0v0c0,0,0,0,0,0c0,0,0,0,0,0c0,0,0,0,0,0l0,0c0,0,0.1-0.1,0.1-0.1c0,0.1,0,0.1,0.1,0.1v0
				c0.1,0,0.1-0.1,0.2-0.1c0,0.1,0.1,0,0.2,0.1c0,0,0-0.1,0-0.1c0,0,0,0,0,0l0,0c0,0.1,0,0,0.1,0v-0.1c0.1,0.1,0.2,0,0.2,0.1
				c0,0,0,0,0,0l0,0c0,0,0.1,0,0.1,0l0,0c0,0,0-0.1,0.1-0.1l0,0.1c0,0,0.1,0.1,0.2,0c0,0,0,0,0,0c0,0,0.1,0,0.1,0c0,0.1,0,0,0.1,0v0
				c0-0.1,0-0.1,0.1-0.1c0,0,0,0,0,0c0,0,0,0,0,0l0,0c0,0,0,0,0,0c0,0,0,0,0,0c0,0,0-0.1,0,0c0,0,0,0,0,0c0,0,0.1,0,0.1,0
				c0,0,0,0,0,0c0,0-0.1,0-0.1,0c0,0,0,0,0,0.1c0,0,0.1-0.1,0.1-0.1c0,0,0,0,0,0v0c0,0,0,0,0,0c0,0,0,0,0,0c0,0,0,0,0,0
				c0,0,0,0,0-0.1c0,0,0,0,0,0c0,0,0,0,0,0v0c0,0,0,0,0,0c0,0,0,0,0,0c0,0,0-0.1,0-0.1c0,0.1,0.1,0.1,0.1,0.1c0,0,0.1,0,0.1-0.1
				c0,0,0,0,0,0c0,0,0,0,0,0c0,0,0.1,0,0.1-0.1c0,0,0,0,0,0v0c0.1,0.1,0.1-0.1,0.2,0c0,0,0,0,0,0c0.1,0.1,0.2,0,0.3,0c0,0,0,0,0.1,0
				v0l0,0c0,0,0.1,0.1,0.1,0v0c0,0,0.1,0,0.1,0c0,0,0,0,0,0v0l0,0c0,0,0,0.1,0,0.1c0,0,0.1-0.1,0.1-0.1c0,0,0,0,0,0l0,0
				c0-0.1,0-0.1,0-0.2l0,0l0,0h0c0,0,0,0,0,0c0,0,0,0,0,0l0,0.1c0,0,0-0.1,0-0.1c0,0,0,0.1,0,0.1c0,0,0-0.1,0,0c0,0,0,0,0,0
				c0,0,0,0-0.1,0c0,0,0,0,0-0.1c0,0,0,0.1,0,0.1c0-0.1-0.1,0,0-0.1c0,0.1-0.1,0-0.1,0.1c0,0,0,0,0,0c0,0,0,0,0,0
				c0,0.1,0,0.1-0.1,0.1c0-0.1,0-0.1,0-0.1c0,0,0,0,0,0.1C58.7,23.5,58.7,23.5,58.6,23.4C58.7,23.5,58.6,23.5,58.6,23.4
				C58.6,23.5,58.6,23.4,58.6,23.4C58.6,23.4,58.6,23.4,58.6,23.4 M57.9,23.5L57.9,23.5C57.9,23.5,57.9,23.5,57.9,23.5
				C57.9,23.5,57.9,23.5,57.9,23.5 M57.9,23.5C57.9,23.5,57.9,23.5,57.9,23.5C57.9,23.5,57.9,23.6,57.9,23.5
				C57.9,23.5,57.9,23.5,57.9,23.5 M58,23.8C58,23.8,58,23.8,58,23.8C58,23.8,58,23.8,58,23.8L58,23.8C58,23.8,58,23.8,58,23.8"/>
		</g>
	</g>
</g>
</svg>
