<svg xmlns="http://www.w3.org/2000/svg" xmlns:xlink="http://www.w3.org/1999/xlink" version="1.1" x="0px" y="0px" viewBox="0 0 100 125" style="enable-background:new 0 0 100 100;fill:#fff;" xml:space="preserve"><g><path d="M85.1,11.8l-60,24c-1,0.4-1.6,1.4-1.6,2.4s0.8,2,1.8,2.3l26.3,8.1l8.1,26.3c0.3,1,1.2,1.7,2.3,1.8c0,0,0.1,0,0.1,0   c1,0,1.9-0.6,2.3-1.6l24-60c0.4-0.9,0.2-2-0.6-2.7C87,11.6,86,11.4,85.1,11.8z"/><rect x="18.7" y="69" transform="matrix(0.7071 -0.7071 0.7071 0.7071 -42.3589 40.7121)" width="18.6" height="5"/><rect x="11.6" y="54.8" transform="matrix(0.7071 -0.7071 0.7071 0.7071 -34.43 31.5701)" width="18.6" height="5"/><rect x="32.8" y="76.1" transform="matrix(0.7071 -0.7071 0.7071 0.7071 -43.217 52.7832)" width="18.6" height="5"/></g></svg>